<?xml version="1.0" encoding="utf-8"?>
<!-- Generator: Adobe Illustrator 28.3.0, SVG Export Plug-In . SVG Version: 6.00 Build 0)  -->
<svg version="1.1" id="Blockchain_Academy" xmlns="http://www.w3.org/2000/svg" xmlns:xlink="http://www.w3.org/1999/xlink" x="0px"
	 y="0px" viewBox="0 0 101.8 40" style="enable-background:new 0 0 101.8 40;" xml:space="preserve">
<style type="text/css">
	.st0{fill:#F1EAA3;}
	.st1{fill:#85C282;}
</style>
<g>
	<g>
		<g>
			<path class="st0" d="M19,19H0V0h19V19z M3.5,15.5h12.1V12H6.9V3.5H3.5V15.5z"/>
			<path class="st0" d="M39.7,19h-19V0h19V19z M24.2,15.5h12.1v-12H24.2V15.5z M27.6,12.1V6.9h5.2v5.2H27.6z"/>
			<path class="st0" d="M60.4,19h-19V0h19V19z M48.3,12.1l3.5,3.5H57l-4.3-4.3H57V3.5H44.9v12.1h3.5v-3.5H48.3z M48.3,6.9h5.2v0.9
				h-5.2V6.9z"/>
			<path class="st0" d="M81.1,19h-19V0h19V19z M69,12.1v-0.9h8.6V7.8H69V6.9h8.6V3.5h-12v12.1h12.1v-3.5H69z"/>
			<path class="st0" d="M82.8,19V0h19v19H82.8z M89.7,6.9h0.9v8.6H94V6.9h0.9v8.6h3.5v-12H86.3v12.1h3.5V6.9H89.7z"/>
		</g>
		<g>
			<path class="st1" d="M0,40V21h19v19H0z M7.8,33.1v3.5h3.5v-3.5H7.8z"/>
			<path class="st1" d="M20.7,40V21h19v19H20.7z M28.5,33.1v3.5H32v-3.5H28.5z"/>
			<path class="st1" d="M60.4,40h-19V21h19V40z M44.9,36.5H57V33h-8.6v-8.6h-3.5V36.5z"/>
			<path class="st1" d="M62.1,40V21h19v19H62.1z M69,27.9h0.9v8.6h3.5v-8.6h0.9v8.6h3.5v-12H65.6v12.1H69V27.9z"/>
			<path class="st1" d="M101.8,40h-19V21h19V40z M98.3,27.9v-3.5h-12v7.8h8.6v0.9h-8.6v3.5h12.1v-7.8h-8.6v-0.9
				C89.8,27.9,98.3,27.9,98.3,27.9z"/>
		</g>
	</g>
</g>
</svg>
