<?xml version="1.0" encoding="utf-8"?>
<!-- Generator: Adobe Illustrator 28.3.0, SVG Export Plug-In . SVG Version: 6.00 Build 0)  -->
<svg version="1.1" id="Camada_1" xmlns="http://www.w3.org/2000/svg" xmlns:xlink="http://www.w3.org/1999/xlink" x="0px" y="0px"
	 viewBox="0 0 198.4 228.4" style="enable-background:new 0 0 198.4 228.4;" xml:space="preserve">
<style type="text/css">
	.st0{fill:#9B54D4;}
	.st1{fill:#FFA700;}
	.st2{fill:none;}
	.st3{fill:#FDA729;}
	.st4{fill:#243365;}
	.st5{fill:#324174;}
</style>
<g id="Grupo_4122" transform="translate(-2042.955 675.064)">
	<g id="Caminho_3341">
		<path class="st0" d="M2141.3-457.9l-87.1-50.9v-103.3l87.1-51.8l88.9,51.8v103.3L2141.3-457.9z M2058.1-511.1l83.2,48.6l84.9-48.6
			v-98.7l-84.9-49.5l-83.2,49.5V-511.1z"/>
	</g>
	<g id="Grupo_2923" transform="translate(2083.282 -627.149)">
		<g id="Grupo_2610" transform="translate(0 0)">
			<g id="Polígono_14">
				<path class="st1" d="M118.6,96c0,2.2-1.2,4.2-3.1,5.2L62.2,131c-1.8,1-4,1-5.9,0L3.1,101.2c-1.9-1-3.1-3-3.1-5.2V36.7
					c0-2.2,1.2-4.2,3.1-5.2L56.4,1.6c1.8-1,4-1,5.9,0l53.3,29.8c1.9,1.1,3.1,3.1,3.1,5.2V96H118.6z"/>
			</g>
			<g id="Polígono_18">
				<path class="st1" d="M106.3,90.2c0,2.1-1.1,4.1-3,5.2l-41,23.8c-1.9,1.1-4.2,1.1-6,0l-41-23.8c-1.8-1.1-3-3-3-5.2V42.5
					c0-2.1,1.1-4.1,3-5.2l41-23.8c1.9-1.1,4.2-1.1,6,0l41,23.8c1.8,1.1,3,3.1,3,5.2V90.2z"/>
			</g>
			<g id="Polígono_19" transform="translate(111.81 6.143) rotate(90)">
				<g>
					<path class="st2" d="M86.8,0C89,0,91,1.2,92,3l26.7,46.5c1.1,1.8,1.1,4.1,0,6L92,102c-1.1,1.9-3.1,3-5.2,3H33.6
						c-2.2,0-4.1-1.2-5.2-3L1.7,55.5c-1.1-1.8-1.1-4.1,0-6L28.4,3c1.1-1.9,3.1-3,5.2-3H86.8z"/>
				</g>
				<g>
					<path class="st3" d="M33.6,1c-1.8,0-3.4,1-4.3,2.5L2.6,50c-0.9,1.5-0.9,3.4,0,5l26.7,46.5c0.9,1.6,2.6,2.5,4.3,2.5h53.3
						c1.8,0,3.4-1,4.3-2.5L117.8,55c0.9-1.5,0.9-3.4,0-5L91.2,3.5C90.3,2,88.6,1,86.8,1H33.6 M33.6,0h53.3C89,0,91,1.2,92,3
						l26.7,46.5c1.1,1.8,1.1,4.1,0,6L92,102c-1.1,1.9-3.1,3-5.2,3H33.6c-2.2,0-4.1-1.2-5.2-3L1.7,55.5c-1.1-1.8-1.1-4.1,0-6L28.4,3
						C29.4,1.2,31.4,0,33.6,0z"/>
				</g>
			</g>
			<g id="Polígono_20" transform="translate(111.81 6.143) rotate(90)">
				<g>
					<path class="st2" d="M86.8,0C89,0,91,1.2,92,3l26.7,46.5c1.1,1.8,1.1,4.1,0,6L92,102c-1.1,1.9-3.1,3-5.2,3H33.6
						c-2.2,0-4.1-1.2-5.2-3L1.7,55.5c-1.1-1.8-1.1-4.1,0-6L28.4,3c1.1-1.9,3.1-3,5.2-3H86.8z"/>
				</g>
				<g>
					<path class="st3" d="M33.6,3c-1.1,0-2.1,0.6-2.6,1.5L4.3,51c-0.5,0.9-0.5,2.1,0,3L31,100.5c0.5,0.9,1.5,1.5,2.6,1.5h53.3
						c1.1,0,2.1-0.6,2.6-1.5L116.1,54c0.5-0.9,0.5-2.1,0-3L89.4,4.5C88.9,3.6,87.9,3,86.8,3H33.6 M33.6,0h53.3C89,0,91,1.2,92,3
						l26.7,46.5c1.1,1.8,1.1,4.1,0,6L92,102c-1.1,1.9-3.1,3-5.2,3H33.6c-2.2,0-4.1-1.2-5.2-3L1.7,55.5c-1.1-1.8-1.1-4.1,0-6L28.4,3
						C29.4,1.2,31.4,0,33.6,0z"/>
				</g>
			</g>
		</g>
		<g id="Grupo_2611" transform="translate(21.502 12.901)">
			<g id="Elipse_1">
				<ellipse class="st4" cx="38.4" cy="56.8" rx="38.4" ry="37.8"/>
			</g>
			<g id="Elipse_2">
				<ellipse class="st5" cx="38.4" cy="51.6" rx="38.4" ry="38.1"/>
			</g>
			<g>
				<path class="st3" d="M7.4,42.2v-0.6H7.3c-0.2,0-0.2,0-0.2,0L7,41.4v-0.6c0.2,0,0.2-0.2,0.3-0.2s0.2-0.2,0.3-0.2
					c0,0-0.2,0-0.2-0.2c0,0,0-0.2-0.2-0.2S7,40,7,39.9c0,0,0,0,0-0.2c0,0,0,0,0-0.2h0.3l0.2,0.2l0.2-0.2l-0.2-0.2v-0.3L7.6,39h0.3
					l0.3,0.2v0.2l0.2,0.2h0.2c0.2-0.2,0.2-0.3,0.3-0.5c0.2,0,0.2,0,0.3,0s0.2,0,0.3,0c0.2-0.2,0.2-0.3,0.3-0.3c0,0,0.2,0,0.3,0.2
					v0.3h0.5l0.3,0.2l0.2,0.2l0,0l0.2,0.2h0.5c0-0.2,0-0.3,0-0.3c0-0.2,0-0.2,0.2-0.3h0.6c0,0.2,0,0.2,0,0.2v0.2
					c0.2,0,0.2-0.2,0.2-0.3l-0.2-0.2h-0.2v-0.3l0.3-0.3h0.2c0,0.2,0.2,0.2,0.3,0.3v0.2c0.2,0,0.3,0,0.5,0.2c0.2,0.2,0.2,0.2,0.2,0.3
					c0.2,0,0.2,0,0.2,0.2l0.2-0.2c0,0,0.2-0.2,0.2-0.3h0.3l0.2-0.2c0,0,0.2,0,0.2-0.2c0.2,0,0.2,0,0.2-0.2l0.2-0.2l0,0v0.3l-0.2,0.2
					V39c0,0.2,0.2,0.2,0.2,0.2s0.2,0,0.2,0.2v0.5l-0.6,0.6v0.3l0.3,0.2v0.2l-0.2,0.2v0.2c0,0,0,0.2-0.2,0.2v-0.5l-0.2-0.2v-0.2
					c-0.2,0-0.3,0-0.5,0c-0.2-0.2-0.2-0.3-0.2-0.5L13.5,40v0.2h-0.2h-0.2v0.5l0,0h0.3l0.2,0.2c0,0,0.2,0,0.2,0.2c0,0.2,0,0.2,0,0.3
					c0,0,0,0.2,0.2,0.2h0.6V42h-0.8c0-0.2,0-0.2,0-0.3c0-0.2,0-0.2,0-0.3h-0.5l-0.2,0.3V42l0.2,0.2h0.5v0.5l0.2,0.2h0.5v0.6L14,43.6
					v0.6l0,0h0.2c0.2,0,0.2-0.2,0.2-0.2s0.2,0,0.2-0.2v-0.2l0,0v0.9l0.3,0.3h0.2v0.5l-0.2,0.2h-0.2l-0.2-0.2l0,0v-0.3l-0.2-0.3H14
					l-0.2,0.2c0,0,0,0-0.2,0.2v0.3l0,0l0.2-0.2H14l0.2,0.2v0.2l0.2,0.2V46c0.2,0,0.2,0.2,0.3,0.2c0,0,0,0.2,0.2,0.3
					c0,0.2,0,0.2-0.2,0.2s-0.2,0-0.2,0.2l-0.2-0.5c-0.2,0-0.2,0-0.3,0s-0.2,0-0.3,0l-0.2-0.2c0-0.2,0-0.2,0-0.3c0-0.2,0-0.2,0-0.3
					h-0.2h-0.3l-0.2,0.2V46l0.2,0.2c0,0,0.2,0,0.2,0.2h0.2l0.2,0.2v0.3l0.2,0.2h0.5v0.2v0.6H14h-0.5l-0.2-0.2v-0.5l-0.2-0.2h-0.5
					l-0.2,0.2l0.2,0.2v0.3c0.2,0,0.2,0,0.3,0s0.2,0,0.3,0l0.2,0.2V48l0.2,0.2H14l0.2,0.2v0.3l0.2,0.2v0.2l0.3,0.2v0.2l-0.2,0.2h-0.2
					l0,0v0.5h0.2c0,0.2,0.2,0.2,0.2,0.3v0.3l-0.3,0.2h-0.2l0,0v0.5l0.2,0.2h0.2l0.2,0.2v0.5c-0.2,0-0.2,0-0.2,0.2l-0.2,0.2
					c0,0.2,0.2,0.3,0.3,0.5h0.2v0.3l0.2,0.2l-0.2,0.2v0.2l-0.2,0.2l-0.2,0.2V54v0.2c0,0,0,0.2,0.2,0.2c0,0.2-0.2,0.2-0.3,0.3v0.2
					l-0.2,0.2v0.8c-0.2,0-0.2,0-0.3,0l-0.2,0.2V56l0.2,0.2c0-0.2,0.2-0.2,0.2-0.3c0.2,0,0.2-0.2,0.3-0.2v0.2
					c0.2,0.2,0.2,0.2,0.2,0.3l-0.2,0.2v0.3h0.2l0.2,0.2h0.3l0.2,0.3c-0.2,0-0.2,0.2-0.3,0.2v0.3h0.2h0.5c0-0.2,0-0.2,0-0.3l0.3-0.3
					H16c0.2,0.3,0.2,0.5,0.3,0.6h0.5l0.2,0.2V58l0.2,0.2c0,0,0,0,0.2,0c0.2-0.2,0.2-0.2,0.3-0.3c0.2-0.2,0.2-0.2,0.3-0.3h0.6v0.2
					h0.2l-0.2-0.2v-0.3l0.2-0.2h0.3l0.2,0.2l0.2,0.2h0.6v0.2c0,0.2,0,0.2,0,0.2l0,0l0,0h0.3l0.2-0.2v-0.2c0-0.2,0.2-0.2,0.2-0.2
					s0.2,0,0.2-0.2h0.3l0.3-0.3v-0.2c0,0,0.2,0,0.2-0.2h0.2c0.2,0,0.2,0.2,0.2,0.3c0,0.2,0.2,0.2,0.2,0.3H22c0.2,0,0.2,0.2,0.3,0.3
					c0,0.2,0.2,0.3,0.3,0.3h0.2l0.3,0.3v0.3l-0.2,0.2c0,0-0.2,0-0.2,0.2l0,0c0.2,0.2,0.2,0.2,0.2,0.3c0,0.2,0.2,0.2,0.2,0.3v0.5
					c0,0-0.2,0.2-0.3,0.2l-0.3,0.3c0,0.2-0.2,0.3-0.2,0.3s-0.2,0.2-0.2,0.3c-0.2,0-0.2,0-0.3,0.2V61c0,0-0.2,0-0.2,0.2
					c0,0-0.2,0-0.2,0.2v0.3l0.2,0.2h0.2l0.2-0.2v0.2l0,0l0.2,0.2h0.2c0,0,0.2,0,0.2-0.2v-0.2h0.2c0,0,0,0,0.2,0.2L22.6,62v0.3
					l-0.2,0.2v0.2c-0.2,0.2-0.3,0.2-0.3,0.2C22,62.7,22,62.9,22,63l0,0l0,0h0.2v0.2c0,0,0.2,0,0.2,0.2l0.2,0.2l-0.2,0.2
					c0,0-0.2,0-0.2,0.2H22v-0.3l-0.2-0.2v-0.2L21.5,63l-0.2,0.2v0.3l0.2,0.2h0.3v0.2L22,64v0.2c-0.2,0.2-0.2,0.2-0.2,0.2
					s-0.2,0-0.3,0l-0.2-0.2h-0.2c-0.2,0-0.2-0.2-0.2-0.2l-0.2-0.2h-0.2l-0.3,0.3h-0.6c-0.2-0.2-0.2-0.2-0.3-0.3h-0.2l-0.2,0.3h-0.6
					c-0.2-0.2-0.2-0.3-0.3-0.5c0,0-0.2,0-0.3,0v0.2h-0.2L17.7,64h-0.3v-0.2l-0.2-0.2h-0.6L16.3,64l0,0l-0.2,0.2c-0.2,0-0.3,0-0.5,0
					L15.5,64c0,0,0-0.2-0.2-0.3l0.2-0.2l-0.2,0.2l-0.3-0.2c-0.2,0-0.2,0.2-0.3,0.3c-0.2,0-0.2,0-0.2-0.2s-0.2-0.2-0.2-0.2l-0.2-0.2
					c0,0-0.2,0-0.2,0.2H14l-0.2,0.2c0,0.2-0.2,0.2-0.2,0.2L13.5,64h-0.3l-0.2-0.2l-0.2-0.2h-0.5l-0.2,0.2h-0.5
					c-0.2,0-0.2-0.2-0.2-0.2s0-0.2-0.2-0.2h-0.5c0,0.2,0,0.2-0.2,0.2l-0.2,0.2h-0.3c0-0.2-0.2-0.2-0.2-0.2s-0.2,0-0.2-0.2H9.9
					l-0.2,0.2H9.4c0-0.2,0-0.2,0-0.2l-0.2-0.2l0.2-0.2H9.3c-0.2,0-0.2,0-0.2,0L8.9,63l-0.2-0.2c0,0,0-0.2-0.2-0.2H8.3l-0.2,0.2
					c0,0,0,0.2-0.2,0.2l0.2,0.2l0,0H7.6l-0.3,0.3H7l-0.2-0.3H6.6L6.8,63l-0.2-0.2H6.2L6,62.7l0.2-0.3l0.2-0.2v-0.5
					c0,0,0-0.2-0.2-0.2c0-0.2-0.2-0.2-0.2-0.3l0,0l0.2,0.2h0.5L6.3,61c0-0.2,0-0.2,0-0.3c0-0.2,0-0.2,0-0.3c0.2-0.2,0.2-0.2,0.3-0.3
					S7,60,7,59.8v-0.3c-0.2,0-0.2-0.2-0.3-0.2S6.5,59.2,6.5,59c0.2-0.2,0.3-0.3,0.5-0.3v-0.3l-0.2-0.2v-0.2c-0.2,0-0.2-0.2-0.3-0.2
					c-0.2,0-0.2-0.2-0.2-0.2v-0.3c0-0.2-0.2-0.3-0.3-0.5c0-0.2,0-0.3,0.2-0.5h0.2v-0.2v-0.2l-0.2-0.2v-0.3L6,55.7l-0.2-0.2L6,55.2
					h0.2l0.2,0.2v0.3c0,0,0.2,0,0.3,0l0.2-0.2c0,0,0,0,0.2-0.2v-0.2l-0.3-0.3l-0.2,0.2l0,0v-0.8v0.2h0.2l0.2-0.2l-0.2-0.2H6.5
					l-0.2,0.2H6l-0.2-0.2L6,54l0.2-0.2v-0.6l-0.3-0.3v-0.2L6,52.6l0.2-0.2h0.2v-0.3L6.2,52L6,51.8v0.8h0.2v-0.2h0.2v-0.2v-0.2
					c0-0.2,0.2-0.3,0.3-0.3H7C7,52,7.1,52,7.1,52.1c0,0.2,0.2,0.2,0.2,0.3h0.2c0-0.2,0-0.2,0-0.5c-0.2-0.2-0.3-0.3-0.6-0.5
					c-0.2-0.2-0.5-0.3-0.6-0.5v-0.6h0.2l0.2,0.2l0.2,0.2c0,0,0.2-0.2,0.3-0.3v-0.2c-0.2-0.2-0.2-0.2-0.3-0.3
					c-0.2-0.2-0.2-0.2-0.3-0.3v-0.9H6.2H6l-0.2-0.2v-0.2L6,48.2C6,48,6,48,5.9,48v-0.2l-0.2-0.2v-0.5c0.2-0.2,0.5-0.2,0.5-0.2v-0.3
					l0.2-0.2v-0.2l0.2-0.2l0.2-0.2v-0.3c-0.2-0.2-0.2-0.2-0.3-0.2c-0.2,0-0.2-0.2-0.2-0.3l0.2-0.2v-0.3c0-0.2,0.2-0.2,0.2-0.2
					c0.2,0,0.2,0,0.3-0.2v-0.5l0,0c-0.2,0-0.2,0.2-0.3,0.2c-0.2,0-0.2,0.2-0.3,0.2H5.9v-0.2L6,44.2L6.2,44v-0.2l0.2-0.2l-0.2-0.3
					l-0.3-0.3v-0.2l0.3-0.2l0.2-0.3v-0.3L6.5,42h0.9L7.4,42.2l0.2,0.3v0.2h0.2c0,0,0.2,0,0.2-0.2L8,42.3v-0.2L7.9,42H7.7L7.4,42.2
					L7.4,42.2z M7.1,47.2L7,47.4l-0.2,0.2v0.2h0.3l0.2-0.2L7.1,47.2z M6.8,43.4L7,43.6h0.2l0,0l0,0c0,0,0,0,0-0.2c0,0,0,0,0-0.2
					v-0.3c0,0,0,0,0-0.2c0,0,0,0,0-0.2H6.8c0,0,0,0-0.2,0c0,0,0,0-0.2,0v0.8L6.8,43.4L6.8,43.4z M6.8,58v0.2c0,0,0,0,0,0.2
					c0,0,0,0,0,0.2h0.5l0,0v-0.2c-0.2,0-0.2,0-0.2-0.2c0,0,0-0.2-0.2-0.2l-0.2,0.2L6.8,58z M7,52.6v0.3c0.2,0,0.2,0.2,0.3,0.2h0.2
					c0-0.2,0-0.2,0-0.3s0-0.2-0.2-0.3L7,52.6L7,52.6z M7.6,43.7L7.6,43.7L7.6,43.7L7.6,43.7v0.2L7.9,44C8,44,8,43.9,8,43.7L7.6,43.7
					L7.6,43.7z M7.7,45.4l0.2-0.2L8,45.1v-0.2H7.6c0,0,0,0,0,0.2c0,0,0,0,0,0.2v0.2C7.6,45.2,7.6,45.4,7.7,45.4
					C7.6,45.4,7.7,45.4,7.7,45.4z M7.7,54.4l-0.2-0.2l0,0v0.5l0.2,0.2L8,54.6C7.9,54.6,7.9,54.6,7.7,54.4
					C7.9,54.6,7.7,54.4,7.7,54.4z M7.7,56.3L7.7,56.3L7.9,56l-0.2-0.2H7.6H7.4V56L7.7,56.3L7.7,56.3z M8,60.3V60v-0.2H7.7
					c0,0,0,0-0.2,0c0,0,0,0-0.2,0v0.5c0.2,0.2,0.2,0.2,0.3,0.2L8,60.3z M8,61.2L7.9,61H7.7l-0.2,0.2c0,0.2,0,0.3,0,0.3l0.2,0.2
					c0,0,0.2,0,0.2,0.2H8v-0.2V61.2z M8,41.3c-0.2-0.2-0.2-0.2-0.2-0.3l-0.3,0.2v0.3H8L8,41.3L8,41.3z M7.6,49.2l0.2,0.2l0,0
					l0.2-0.2c-0.2-0.2-0.2-0.2-0.2-0.3L7.6,49.2L7.6,49.2z M7.7,53.2l-0.2,0.2l0.2,0.2h0.2v-0.2L7.7,53.2L7.7,53.2z M7.9,39.7
					L7.9,39.7c0,0.2,0,0.2,0,0.3c0,0,0,0,0.2,0.2h0.2v0.2c0,0,0,0.2,0.2,0.2l0.2,0.2l0.2,0.2l0.2-0.2c-0.2-0.2-0.2-0.2-0.3-0.2
					s-0.2-0.2-0.3-0.2L8,40.2L7.9,39.7z M7.7,46.5L7.7,46.5L7.7,46.5C7.7,46.6,7.7,46.6,7.7,46.5C7.7,46.6,7.7,46.5,7.7,46.5z
					 M8,50.5L8,50.5l-0.3,0.2l0,0l0.2,0.2L8,50.6V50.5z M7.7,57.2v0.2l0.2,0.2l0,0L8,57.4v-0.2c0,0,0,0,0-0.2c0,0,0,0,0-0.2
					L7.7,57.2L7.7,57.2z M8,47.8L8,47.8L8,47.8L8,47.8L8,47.8z M8,59v-0.3v-0.2H7.9v0.2L8,59z M9.6,45.5l-0.2-0.2v-0.2l-0.2-0.2
					l-0.3,0.2l-0.2,0.3v0.3H8.5L8.3,46c0,0-0.2,0-0.2,0.2v0.2l0.2,0.2c0.2,0,0.3,0,0.3,0h0.2v0.3l0.2,0.2h0.2c0.2,0,0.2,0,0.2,0
					v-0.2l-0.2-0.2c0,0,0,0-0.2-0.2s-0.2-0.2-0.3-0.2V46c0-0.2,0.2-0.2,0.2-0.2c0.2,0,0.2,0,0.3,0L9.3,46v0.3l0.2,0.2h0.3h0.2v-0.2
					c0-0.2,0-0.2,0-0.2V46l-0.2-0.2H9.6V45.5z M8.3,47.5l0.2-0.2l0.2-0.2l-0.3-0.2c-0.2,0.2-0.2,0.2-0.3,0.3
					C8.2,47.4,8.2,47.4,8.3,47.5C8.3,47.4,8.3,47.5,8.3,47.5z M8.9,58.4l-0.6-0.6H8.2c0,0,0,0-0.2,0c0,0,0,0-0.2,0v0.5
					c0.2,0,0.3,0,0.5,0l0.2,0.2v0.5c0,0,0.2,0,0.3,0.2c0.2,0,0.3,0,0.3,0c0,0.2,0.2,0.2,0.2,0.3c0,0.2,0.2,0.2,0.2,0.3
					c0.2,0,0.2,0.2,0.3,0.2S9.9,60,9.9,60v0.3l0.2,0.2l0.2-0.2l0.3,0.2l0.2,0.3V61l0.2,0.2h0.3l0.2-0.3c0-0.2-0.2-0.2-0.3-0.3
					c-0.2-0.2-0.3-0.2-0.3-0.2V60v-0.2h-0.5L10,59.7v-0.2c-0.2-0.2-0.2-0.3-0.2-0.5H9.4l0,0v-0.3l-0.2-0.3L8.9,58.4
					C9.3,58.6,9.3,58.4,8.9,58.4C9.1,58.4,9.1,58.4,8.9,58.4z M8.2,59.7h0.3h0.2c0,0,0,0,0.2,0l0.2-0.2v-0.2l-0.2-0.2H8.6H8.5v0.5
					L8.2,59.7L8.2,59.7z M8.6,62.3V62c0,0,0-0.2-0.2-0.2s-0.2,0-0.3-0.2H8v0.5l0.2,0.2c0,0,0.2,0,0.2-0.2
					C8.5,62.4,8.6,62.3,8.6,62.3z M8.8,57.1v-0.3c-0.2-0.2-0.2-0.2-0.3-0.2l-0.2,0.2v0.3H8.8L8.8,57.1v0.3l0.2,0.2c0,0,0,0,0.2,0.2
					h0.2l0.3-0.2v-0.3l-0.2-0.2H8.8z M8.5,43.1c-0.2,0-0.2,0.2-0.3,0.2l0.2,0.2l0.2-0.2C8.5,43.2,8.6,43.2,8.5,43.1L8.5,43.1z
					 M8.3,52.8L8.3,52.8L8.3,52.8l0.2-0.2l-0.2-0.2c-0.2,0.2-0.2,0.2-0.3,0.2L8.3,52.8z M8.3,49.8V50l0.2,0.2L8.8,50v-0.2
					c0,0,0,0,0-0.2s0,0,0-0.2H8.6L8.3,49.8z M8.3,54L8.3,54l0.2,0.3c0-0.2,0.2-0.2,0.3-0.3c0,0-0.2,0-0.2-0.2l-0.2-0.2L8.3,54z
					 M8.3,55.4l0.2,0.2l0.2-0.2l-0.2-0.2C8.5,55.2,8.5,55.2,8.3,55.4L8.3,55.4z M8.6,48.6l-0.2-0.2L8.6,48.6l-0.2,0.2L8.6,48.6
					L8.6,48.6z M8.6,51.4L8.6,51.4l-0.3-0.2v0.2l0.2,0.2L8.6,51.4z M8.8,61v-0.2l-0.3-0.3l-0.2,0.2l0,0L8.8,61L8.8,61z M8.6,44.5
					L8.6,44.5l-0.2,0.2l0.2,0.2V44.5L8.6,44.5L8.6,44.5L8.6,44.5L8.6,44.5z M9.3,52.3L9.3,52.3h0.3c-0.2,0-0.2-0.2-0.2-0.3l-0.2-0.2
					H9.1L8.9,52v0.2L9.3,52.3L9.3,52.3L9.3,52.3z M8.8,62.7c0,0.2,0.2,0.2,0.3,0.2c0.2,0,0.2,0,0.3,0.2h0.2c0-0.2-0.2-0.2-0.2-0.3
					c0-0.2-0.2-0.2-0.3-0.2C8.9,62.7,8.9,62.7,8.8,62.7C8.9,62.7,8.9,62.7,8.8,62.7L8.8,62.7z M9.1,50.5C8.9,50.5,8.9,50.5,9.1,50.5
					c-0.2,0.2-0.2,0.2-0.2,0.3v0.3h0.2l0.2-0.2v-0.2L9.1,50.5z M8.9,39.7L8.9,39.7C8.9,40,9.1,40,9.1,40l0.2-0.2L8.9,39.7L8.9,39.7
					L8.9,39.7z M8.9,42.5l0.2,0.2l0,0l0.2-0.2l-0.3-0.3V42.5z M8.9,43.9V44h0.3l0.2-0.2l0,0c-0.2-0.2-0.2-0.2-0.3-0.2L8.9,43.9z
					 M9.3,49.4l0.2-0.2c0-0.2-0.2-0.2-0.3-0.2c-0.2,0.2-0.2,0.2-0.2,0.3l0,0l0,0L9.3,49.4L9.3,49.4z M9.3,53.5l0.2-0.3l-0.2-0.2H8.9
					l-0.2,0.2v0.2l0.2,0.2L9.3,53.5L9.3,53.5z M9.3,54.6C9.3,54.6,9.3,54.4,9.3,54.6c-0.2-0.2-0.2-0.2-0.2-0.2l-0.2,0.2v0.2l0.2,0.2
					h0.2l0.2-0.2L9.3,54.6L9.3,54.6z M8.9,56C8.9,56.1,9.1,56.1,8.9,56c0.2,0.2,0.2,0.2,0.2,0.3l0.2-0.2V56c0,0,0,0,0-0.2
					c0,0,0,0,0-0.2L8.9,56L8.9,56z M9.1,59.8L9.1,59.8L8.9,60c0,0,0,0,0,0.2c0,0,0,0,0,0.2h0.2l0.2-0.2C9.3,60,9.3,60,9.1,59.8
					C9.1,60,9.1,60,9.1,59.8z M9.3,41.1l-0.2-0.2H8.9v0.2l0,0l0,0H9.3L9.3,41.1z M9.1,47.8L9.1,47.8L9.1,47.8L9.1,47.8L9.1,47.8z
					 M9.3,61.5v-0.2H9.1L9.3,61.5L9.3,61.5z M10,44.6v-0.2l-0.2-0.2c0,0-0.2,0-0.2-0.2c-0.2,0-0.2,0.2-0.2,0.2c0,0.2,0,0.2-0.2,0.3
					l0.2,0.2L10,44.6L10,44.6z M9.7,48.8c0.2,0.2,0.2,0.2,0.3,0.2s0.2,0.2,0.2,0.2c0,0.2,0,0.3,0,0.3h0.5c0,0.2,0,0.2,0,0.3v0.2V50
					l0.2-0.2l0.2-0.3v-0.2c0-0.2-0.2-0.2-0.2-0.2c-0.2,0-0.2-0.2-0.2-0.2v-0.3l0.2-0.2h0.2c0.2,0,0.2,0,0.3-0.2v-0.2l-0.2-0.2
					c0,0,0,0-0.2-0.2c-0.2,0.2-0.2,0.2-0.3,0.3c0,0,0,0.2-0.2,0.3c-0.2,0-0.3,0-0.5,0l-0.2-0.2v-0.3L10,48h0.3l0.2-0.2v-0.3
					l-0.2-0.2c0,0,0,0-0.2-0.2H10l-0.3-0.6c-0.2-0.2-0.5-0.2-0.5-0.2v0.2l0.2,0.3c0.2,0.2,0.2,0.2,0.3,0.2s0.2,0.2,0.3,0.2v0.2
					l-0.2,0.2c-0.3,0-0.5,0.2-0.6,0.3v0.3L9.7,48.8L9.7,48.8z M9.6,51.5l0.5,0.2l0,0h0.2c0-0.2,0-0.2,0-0.3c0-0.2,0-0.2-0.2-0.3H9.9
					l-0.2,0.2c-0.2,0-0.2,0-0.2,0L9.6,51.5L9.6,51.5z M11.4,56.9c0-0.2,0-0.2,0-0.3c0-0.2,0-0.2,0-0.3l0,0h-0.5h-0.2V56l-0.2-0.3
					h-0.2c0-0.2-0.2-0.2-0.2,0c-0.2,0-0.2,0-0.2-0.3c0-0.2,0-0.3,0-0.3h0.2c0.2,0,0.2,0,0.3-0.2c0.2-0.2,0.2-0.2,0.2-0.3l-0.2-0.3
					h-0.5c-0.2-0.2-0.2-0.5-0.3-0.6H9.7c0,0.2,0,0.2-0.2,0.2L9.4,54c0.2,0,0.2,0.2,0.3,0.2c0.2,0,0.2,0.2,0.2,0.2
					c0,0.2,0,0.5-0.2,0.5H9.4l-0.2,0.2v0.3l0.2,0.2h0.2c0.2,0,0.2,0,0.2,0v0.2l0.2,0.2c0,0.2,0,0.2,0,0.2c0.2,0,0.3,0,0.5,0
					c0,0.2,0.2,0.2,0.2,0.3c0,0.2,0,0.2,0,0.3h0.9V56.9z M10.8,58.4h-0.3l-0.3-0.2V58L10,57.7H9.7c0,0,0,0-0.2,0c0,0,0,0-0.2,0v0.6
					l0,0h0.5l0,0v0.3l0.2,0.3h0.5c0,0.2,0,0.3,0,0.5l0.2,0.2h0.5h0.2V59c0,0,0,0,0-0.2c0,0,0,0,0-0.2h-0.6l0,0l-0.2-0.2
					C10.8,58.6,10.8,58.4,10.8,58.4z M10.2,61.2L10.2,61.2l0.2,0.3l0.2,0.2h0.2h0.2c0,0,0,0,0.2,0v-0.2l-0.2-0.2L10.2,61.2V61
					L10,60.9v-0.2H9.6l-0.2,0.2v0.3l0.2,0.2L10.2,61.2L10.2,61.2z M11.6,42.2c0,0.2,0,0.2,0,0.3c0,0.2,0,0.2,0,0.3
					c0.2,0,0.3,0.2,0.3,0.2c0.2,0,0.2,0.2,0.3,0.2v0.2l0.2,0.2h0.2h0.2c0,0,0,0,0.2,0v-0.5h-0.3c-0.2,0-0.3-0.2-0.3-0.3L12,42.5
					l-0.2-0.2h-0.3v-0.6l0,0H12c0,0.2,0.2,0.2,0.3,0.3s0.3,0.2,0.3,0.2l0.2,0.2v-0.2l0.2-0.2v-0.3l-0.2-0.2c-0.2,0-0.5,0-0.5,0v-0.6
					h0.5l0.2,0.2v0.2l0.2,0.3c0.2,0,0.2-0.2,0.3-0.2c0.2,0,0.2-0.2,0.2-0.2v-0.3h-0.5l-0.2-0.2c0-0.3,0-0.5-0.2-0.6h-0.5l-0.2,0.3
					v0.3L12,40.9h-0.5v-0.6l0,0h0.3H12v-0.2C11.9,40,11.7,40,11.4,40l-0.2,0.2c0,0,0,0-0.2,0.2v0.2c-0.2,0-0.2,0-0.3,0.2v-0.3
					l-0.2-0.2v-0.3h-0.5l0,0l0,0v0.5l0.2,0.2c0.2,0,0.3,0,0.5,0v0.2l0.2,0.2c-0.2,0.2-0.2,0.3-0.2,0.3s-0.2,0-0.5,0
					c0-0.2-0.2-0.5-0.5-0.5l-0.2,0.2c0,0,0,0-0.2,0.2v0.2l0.2,0.3H10L9.9,42H9.4v0.3c0.2,0.2,0.2,0.2,0.2,0.3h0.2l0.2-0.2
					c0-0.2,0-0.2,0-0.5h0.6c0,0.2,0,0.3,0,0.5l0.2,0.2h0.9L11.6,42.2L11.6,42.2z M11.6,44.9v0.3l-0.2,0.2v0.2l-0.2,0.2h-0.3
					c0,0.2-0.2,0.3-0.2,0.3l0.3,0.3l0.2-0.2h0.2l0.2-0.2v-0.3l0,0c0.2,0,0.2-0.2,0.3-0.2s0.2-0.2,0.3-0.2v-0.3H12l-0.2-0.2
					L11.6,44.9L11.6,44.9l-0.2-0.3v-0.2c-0.2,0-0.5-0.2-0.5-0.5l0,0l-0.2-0.2v-0.2v-0.2c0,0,0,0,0-0.2h0.5c0,0.2,0,0.2,0,0.3v0.2
					h0.2V44l0.2-0.2h0.3c0.2-0.2,0.2-0.2,0.2-0.3c-0.2-0.2-0.3-0.2-0.5-0.3c-0.2,0-0.3,0-0.3,0v-0.6h-0.3l-0.2-0.2l-0.2,0.2
					l-0.2-0.2V42H10l-0.2,0.2v0.5l0.2,0.2c0.2,0,0.3,0,0.5,0v0.2l-0.2,0.2v0.3H9.9c0-0.2,0-0.3-0.2-0.5H9.6l-0.3,0.3v0.2
					c0,0,0,0,0,0.2c0,0,0,0,0,0.2h0.5c0.2,0.2,0.2,0.3,0.3,0.5c0.2,0,0.2,0.2,0.3,0.2c0.2,0,0.2,0,0.2,0.2v0.6l-0.2-0.2
					c-0.2,0-0.3,0.2-0.5,0.3v0.3l0.5,0.3l0.2-0.2v-0.8H11.6z M10.2,50.3v-0.5l0,0L10,49.7H9.9l-0.3,0.2V50L10.2,50.3L10.2,50.3
					l0.2,0.3v0.5h0.5c0.2,0,0.2,0.2,0.3,0.2c0,0.2,0.2,0.2,0.2,0.3h0.2v-0.5c-0.2,0-0.2,0-0.2-0.2l-0.2-0.2v-0.3
					c0,0-0.2-0.2-0.2-0.3h-0.8V50.3z M10.8,53.1h-0.6C10,52.9,10,52.6,10,52.6l-0.2-0.2H9.7v0.2c0,0,0,0-0.2,0.2v0.2v0.2
					c0,0,0,0,0,0.2H10l0.2,0.2v0.5V54h0.3l0.2-0.2v-0.2l0.2-0.2V53.1h0.3v-0.2l0.3-0.2l-0.2-0.3h-0.2l-0.2,0.2v0.2L10.8,53.1
					L10.8,53.1z M9.6,56.7L9.6,56.7l0.5-0.2v-0.3C9.9,56.6,9.7,56.7,9.6,56.7z M9.9,62.3L9.9,62.3V62l0,0V62.3L9.9,62.3z M10.2,51.8
					V52c0,0,0,0.2,0.2,0.2h0.3c0.2-0.2,0.2-0.2,0.2-0.3v-0.2l-0.2-0.2L10.2,51.8L10.2,51.8z M10.3,46.8L10.3,46.8l0.3,0.2l0.2-0.2
					v-0.2c-0.2,0-0.2-0.2-0.3-0.2s-0.2-0.2-0.3-0.2v0.3L10.3,46.8z M11.6,57.7h-0.5h-0.2c0,0,0,0-0.2,0c0,0,0-0.2,0-0.3
					c0-0.2-0.2-0.2-0.2-0.3h-0.2l-0.2,0.2c0,0.2-0.2,0.2-0.2,0.3l0.2,0.2h0.5l0.2,0.2v0.5h0.2l0.2,0.2c0.2,0,0.3,0,0.3,0v0.3
					l0.2,0.2c0,0.2,0,0.2,0,0.3H12c0,0,0,0,0.2,0c0,0,0,0,0.2,0v-0.5c0,0,0,0,0-0.2c0,0,0,0,0-0.2h-0.5l0,0v-0.8h0.6l0,0v-0.5
					L12,56.9l-0.2,0.3v0.5H11.6z M10.2,62.6v0.3l0.3,0.2l0.2-0.2v-0.2l-0.2-0.2L10.2,62.6L10.2,62.6z M11.4,41.4
					c-0.2,0-0.5,0-0.5,0.2l-0.2-0.2v-0.2l0.2-0.2c0,0,0,0,0-0.2h0.5l0,0V41.4z M10.9,55.4L10.9,55.4v0.2V55.4l0.3,0.2l0.2-0.2v-0.3
					h-0.3L10.9,55.4z M10.9,63.6L10.9,63.6L10.9,63.6L10.9,63.6L10.9,63.6z M10.9,62.1l0.2,0.2l0.2-0.2L11.1,62h-0.2c0,0,0,0-0.2,0
					c0,0,0,0-0.2,0v0.2H10.9z M11.1,54.3l0.2-0.2l0,0L11.1,54c0,0,0,0,0,0.2C10.9,54.1,10.9,54.1,11.1,54.3L11.1,54.3L11.1,54.3z
					 M11.2,47.2L11.2,47.2l-0.2,0.2h0.2V47.2z M11.9,56.3l0.2-0.2L11.9,56c0,0,0-0.2-0.2-0.2h-0.2L11.4,56l0.2,0.2v0.2l0.2,0.2
					L11.9,56.3z M11.6,46.8c0.2,0,0.2,0,0.3,0v-0.3l-0.2-0.2l-0.2,0.2V46.8z M11.6,50.3L11.6,50.3C11.6,50.3,11.6,50.5,11.6,50.3
					c0,0.2,0,0.2,0,0.3c0,0,0,0.2,0.2,0.2l0.2-0.2v-0.2L11.6,50.3z M11.6,61.3l0.2,0.2h0.2l0.2-0.2L11.7,61
					C11.7,61.2,11.6,61.3,11.6,61.3z M11.6,60.1v0.2l0.2,0.2h0.2l0.5,0.5v0.3h0.3l0.2,0.2h0.2V61c0,0,0,0,0-0.2c0,0,0,0,0-0.2
					c-0.2,0-0.2,0-0.3-0.2c-0.2,0-0.2,0-0.3,0c0-0.2-0.2-0.2-0.2-0.3L12,60.1H11.6z M11.9,48l0.2-0.2c-0.2,0-0.2,0-0.3-0.2v0.2
					L11.9,48L11.9,48z M11.7,51.8L11.7,51.8c0,0.2,0,0.2,0,0.2s0,0,0,0.2l0,0l0.2-0.2L11.7,51.8L11.7,51.8z M11.7,53.4L11.7,53.4
					L11.7,53.4v-0.2V53.4z M12,54.8l-0.2-0.2l-0.2,0.2l0.2,0.2L12,54.8z M11.9,62.6C11.9,62.6,11.9,62.7,11.9,62.6
					c-0.2,0.2-0.2,0.2-0.2,0.3h0.2C11.9,62.7,11.9,62.6,11.9,62.6z M12.6,58.1V58h-0.2l-0.2,0.2c0,0.2,0,0.3,0,0.3L12.6,58.1
					C12.5,58.3,12.6,58.3,12.6,58.1z M12.8,59.4L12.8,59.4L12.6,59h-0.5c0,0,0,0,0,0.2c0,0,0,0,0,0.2v0.2l0.3,0.3h0.2L12.8,59.4z
					 M12.2,63.3l0.2,0.3h0.2l0.2-0.2c0,0,0-0.2,0.2-0.2v-0.2h-0.3L12.2,63.3z M12.5,48.6L12.5,48.6v-0.2V48.6L12.5,48.6z M12.5,44.3
					l-0.2,0.2l0.2,0.2h0.3v-0.2L12.5,44.3z M12.8,45.9l-0.2-0.2l-0.2,0.2l0.2,0.2l0,0L12.8,45.9z M12.3,50l0.3,0.3h0.2V50l-0.3-0.2
					L12.3,50z M12.8,62.3c-0.2,0-0.2-0.2-0.2-0.2L12.5,62l-0.2,0.2L12.8,62.3L12.8,62.3z M12.8,47.1L12.8,47.1l-0.3,0.2
					c0,0,0.2,0.2,0.2,0.3h0.2c0,0,0,0,0.2-0.2L12.8,47.1L12.8,47.1z M12.8,51.4l-0.2-0.2l-0.2,0.2l0.3,0.2V51.4z M12.8,52.5
					L12.8,52.5L12.8,52.5l-0.3,0.2v0.3h0.2L12.8,52.5z M12.5,54.1c0.2,0,0.3-0.2,0.3-0.3l-0.2-0.2l-0.2,0.2V54.1z M12.5,55.5
					L12.5,55.5L12.5,55.5C12.6,55.5,12.6,55.5,12.5,55.5l0.2-0.2L12.5,55.5L12.5,55.5z M12.5,56.6l-0.2,0.2l0.2,0.2V56.6L12.5,56.6z
					 M13.1,45.1c-0.2,0-0.2,0.2-0.3,0.2v0.2h0.2l0.2-0.2V45.1z M13.2,47.5l-0.2,0.2c0,0-0.2,0-0.2,0.2V48l0.2,0.2h0.3l0,0v-0.5l0,0
					h-0.2V47.5z M14.2,43.6v-0.3v-0.2v-0.2c-0.2,0-0.2,0-0.3,0s-0.2,0-0.3,0v-0.2l-0.2-0.3l-0.3-0.2l-0.2,0.2c0,0.2,0,0.2-0.2,0.2
					v0.2h0.5l0.2,0.2c0,0.2,0,0.2,0,0.3s0,0.2,0,0.3H14.2z M13.1,46.5l-0.2,0.2l0,0l0.2,0.2l0.2-0.2c0,0,0.2,0,0.2-0.2l-0.2-0.2
					h-0.2V46.5z M13.6,59L13.6,59c0.2,0.2,0.2,0.3,0.2,0.5s0.2,0.2,0.3,0.3h0.2v-0.3L14,59.2h-0.2L13.6,59L13.6,59l-0.2-0.2l0,0
					l-0.3-0.3h-0.2v0.3l0.2,0.2H13.6v0.2l0,0V59z M12.9,59.8v0.6h0.3l0.2-0.2v-0.2L13.2,60L12.9,59.8L12.9,59.8z M12.9,61.2v0.6
					c0.2,0.2,0.3,0.2,0.5,0.2l0.2-0.2v-0.5l-0.3-0.2L12.9,61.2L12.9,61.2z M12.9,62.9L12.9,62.9l0.2,0.2h0.2l0.2,0.2h0.2v-0.3
					l-0.2-0.2c0,0,0,0-0.2-0.2h-0.2L12.9,62.9z M13.4,39.9v-0.2h-0.3l-0.2,0.2V40l0.2,0.2L13.4,39.9z M13.6,44.2v0.2l0.2,0.2v0.2
					l0.3,0.3h0.2l0,0l0,0v-0.5H14h-0.2L13.6,44.2V44l-0.2-0.2v-0.3h-0.3l-0.2,0.2V44l0.2,0.2c0,0,0.2,0,0.2,0.2h0.3V44.2z
					 M13.4,48.9c-0.2,0-0.2,0-0.3,0v0.3l0.2,0.2c0,0,0,0,0.2,0.2l0.2-0.2L13.4,48.9L13.4,48.9z M13.2,54.8v-0.3l0,0V54.8L13.2,54.8
					L13.2,54.8z M13.4,56l-0.2-0.2l0,0L13.1,56c0,0.2,0.2,0.3,0.3,0.3V56L13.4,56L13.4,56z M13.2,50.8L13.2,50.8v-0.2h-0.2l-0.2,0.2
					C13.2,50.8,13.2,50.8,13.2,50.8z M13.4,52.1L13.2,52l-0.2,0.2v0.2L13.4,52.1z M13.2,57.4L13.2,57.4L13.2,57.4L13.2,57.4
					L13.2,57.4z M13.2,53.5L13.2,53.5v-0.3V53.5L13.2,53.5z M13.6,55.4C13.6,55.5,13.7,55.5,13.6,55.4c0.2,0.2,0.2,0.2,0.3,0.2
					l0.2-0.2c0,0,0,0,0.2-0.2L14,55.1l-0.2,0.2C13.7,55.4,13.6,55.4,13.6,55.4z M13.6,51.5L13.6,51.5c0.2,0,0.3,0,0.3,0l0.2-0.2
					l-0.2-0.2h-0.2l-0.2,0.2V51.5z M14.5,53.1L14.5,53.1l-0.3-0.2v-0.2c0-0.2,0-0.2,0-0.2h-0.3l-0.3,0.2l0.2,0.3c0.2,0,0.2,0,0.3,0
					S14.3,53.1,14.5,53.1z M13.9,53.7L13.9,53.7c-0.2,0-0.2,0-0.3,0c-0.2,0,0,0-0.2,0V54l0.2,0.3h0.3V53.7L13.9,53.7z M13.6,58.1
					C13.7,58.1,13.7,58.1,13.6,58.1c0.2,0.2,0.2,0.2,0.2,0.3H14h0.2v-0.2c-0.2-0.2-0.3-0.2-0.5-0.3h-0.2L13.6,58.1L13.6,58.1z
					 M13.9,60.4c-0.2,0-0.2,0.2-0.3,0.3v0.2h0.2l0.2-0.2V60.4L13.9,60.4z M13.7,48.6c0.2,0.2,0.3,0.2,0.5,0.3l0,0v-0.5L14,48.3h-0.2
					l-0.2,0.2L13.7,48.6L13.7,48.6z M13.7,56.7c0.2,0.2,0.2,0.2,0.3,0.2l0.2-0.2v-0.2H14C13.9,56.6,13.9,56.6,13.7,56.7
					C13.7,56.6,13.7,56.6,13.7,56.7L13.7,56.7z M14.2,62.3v-0.2C14,62,14,62,13.9,62l-0.2,0.2l-0.2,0.2l0.2,0.2h0.2L14.2,62.3z
					 M13.7,50l0.2,0.2H14v-0.3l-0.2-0.2h-0.2C13.9,49.7,13.9,49.8,13.7,50z M14.8,60.4l0.2,0.3c0,0.2,0,0.3,0,0.3h0.2l0.2,0.2h0.2
					c0,0,0,0,0.2,0c0,0,0,0,0.2,0v-0.3l-0.3-0.3h-0.2L14.8,60.4l0.2-0.3L14.8,60c0-0.2,0-0.3,0-0.3h-0.5l-0.2,0.2
					c0,0.2,0,0.3,0.2,0.3C14.6,60.3,14.6,60.4,14.8,60.4z M14.3,40L14.3,40L14.3,40L14.3,40L14.3,40L14.3,40z M14.6,49.7
					c0-0.2,0.2-0.2,0.2-0.3v-0.3c-0.2,0-0.2-0.2-0.3-0.2h-0.2h-0.2v0.5l0.2,0.2L14.6,49.7L14.6,49.7z M14.8,50.9L14.8,50.9
					c0-0.2,0-0.3,0-0.3v-0.2c0,0,0,0,0-0.2c-0.2,0-0.3-0.2-0.3-0.2l-0.3,0.2v0.5l0.2,0.2H14.8z M14.9,59.4c0,0.2,0,0.3,0,0.3V59.4
					l0.3,0.2l0.2-0.2c0-0.2,0-0.2-0.2-0.3c-0.2,0-0.2-0.2-0.3-0.2v-0.2l-0.2-0.2v-0.2h-0.3c-0.2,0.2-0.2,0.2-0.2,0.3l0.2,0.2h0.3
					l0.2,0.2C14.8,59.2,14.9,59.2,14.9,59.4z M15.1,62.4h0.3l0.2-0.2c0-0.2-0.2-0.3-0.3-0.5h-0.3l-0.2-0.2v-0.2l-0.2-0.2l-0.2-0.2
					c0,0-0.2,0.2-0.3,0.3v0.2c0,0,0,0,0,0.2c0,0,0,0,0,0.2c0.3,0,0.5,0,0.6,0.2C14.8,62,14.9,62.1,15.1,62.4z M14.5,51.8L14.3,52
					v0.2c0,0,0,0,0,0.2c0,0,0,0,0,0.2h0.2c0,0,0-0.2,0.2-0.2v-0.2V52h-0.2V51.8z M14.6,63l0.2-0.2l-0.2-0.2l-0.2,0.2L14.6,63
					L14.6,63z M14.6,57.2C14.5,57.2,14.5,57.2,14.6,57.2c-0.2,0.2-0.2,0.2-0.2,0.3l0.2,0.2c0,0,0,0,0.2,0.2l0.3-0.2v-0.2L14.6,57.2z
					 M14.8,53.7L14.8,53.7l0.2,0.3L14.8,53.7L14.8,53.7z M14.9,42.2l0.2,0.2h0.2v0.2h-0.2h-0.2C14.9,42.3,14.9,42.3,14.9,42.2z
					 M14.9,48.2v-0.5l0,0l0.2,0.2l0.2-0.2c0,0,0,0,0,0.2c0,0,0,0,0,0.2v0.2L14.9,48.2L14.9,48.2z M15.5,57.7h-0.3l-0.2,0.2V58
					c0,0,0,0.2-0.2,0.2v0.2h0.3c0,0,0.2,0,0.2-0.2l0.2-0.2V57.7z M15.2,63.3l-0.2,0.2l0.2,0.2c0,0,0,0,0.2,0.2l0,0l0.2-0.2l-0.2-0.2
					h-0.2V63.3z M15.7,59.8L15.5,60v0.3l0,0h0.3L16,60L15.7,59.8L15.7,59.8z M15.7,61.2v0.3l0.2,0.2H16l0.2-0.2v-0.2c0,0,0,0,0-0.2
					c0,0,0,0,0-0.2L15.7,61.2L15.7,61.2L15.7,61.2z M16.2,62.6h-0.3l0,0l0,0v0.2l0.2,0.2c0,0,0,0,0.2,0.2c0,0,0.2-0.2,0.3-0.2v-0.3
					L16.2,62.6L16.2,62.6z M15.7,58.7C15.7,58.7,15.7,58.9,15.7,58.7c0.2,0.2,0.2,0.2,0.2,0.3H16c0,0,0.2,0,0.2,0.2V59L16,58.7
					l-0.2-0.2L15.7,58.7z M16.9,61.8h-0.3l-0.2-0.2l-0.2,0.2l0.2,0.2c0,0.2,0,0.3,0,0.3h0.3l0.2-0.2C16.9,62.1,17.1,62.1,16.9,61.8
					L16.9,61.8L16.9,61.8z M17.7,62.4L17.7,62.4l0.3,0.2c0.2,0,0.3,0,0.3,0.2v0.2V63c0,0,0,0.2,0.2,0.2h0.3V63l0.2-0.2v-0.2v-0.2
					h-0.2h-0.2c0,0-0.2,0-0.2-0.2v-0.3c-0.2-0.2-0.2-0.3-0.3-0.3H18l-0.2-0.2c0-0.2,0-0.3,0-0.5c0.2,0,0.3,0,0.5,0v0.5l0.2,0.2
					l0.3-0.2l0.2-0.2l0,0l0.2-0.2l0,0c-0.2,0-0.2-0.2-0.3-0.2c-0.2,0-0.2,0-0.3-0.2c0-0.2,0-0.3-0.2-0.3l0.2-0.3h0.2
					c0.2-0.2,0.3-0.2,0.3-0.5c0-0.2-0.2-0.2-0.3-0.3c-0.2-0.2-0.3-0.3-0.3-0.6l-0.2-0.2L18,59h-0.2l-0.2,0.3v0.2l-0.3,0.2h-0.3
					c-0.2-0.2-0.2-0.3-0.2-0.5L16.8,59h-0.2l-0.2-0.2h-0.2v0.5l0,0l0.3,0.2h0.3V60v0.2c0,0,0,0,0,0.2h-0.6v0.3c0,0.2,0,0.3,0,0.5
					h0.2l0.2-0.2h0.2c0.2-0.2,0.2-0.2,0.3-0.3v-0.2h0.2c0.2,0.2,0.3,0.2,0.5,0.2l0,0v0.3c-0.2,0-0.2,0.2-0.3,0.2c-0.2,0-0.3,0-0.3,0
					v0.6h0.2h0.2l0.3,0.2V62l0.2,0.2v0.3L17.7,62.4l-0.3,0.2c0,0,0,0-0.2,0c0,0,0,0-0.2,0.2c0,0,0,0.2,0,0.3l0.2,0.2h0.2h0.3
					c0,0.2,0.2,0.2,0.2,0.3s0.2,0.2,0.2,0.2h0.2v-0.2C18,63.3,18,63.3,18,63.3s0,0,0-0.2h-0.3L17.5,63L17.7,62.4L17.7,62.4z
					 M16.8,58l-0.2-0.2h-0.2l-0.2-0.2V58l0.2,0.3h0.2L16.8,58L16.8,58z M16.3,63.2l0.2,0.3c0.2,0,0.2,0,0.5,0v-0.3H16.3z M17.5,58.7
					v-0.2h-0.5v0.2l0.3,0.3C17.4,58.9,17.4,58.9,17.5,58.7C17.4,58.9,17.5,58.7,17.5,58.7z M18.3,60.3h-0.6l0,0V60c0,0,0,0,0.2,0
					c0,0,0,0,0.2,0h0.3l0,0L18.3,60.3L18.3,60.3z M18.6,58.6l-0.3,0.2v0.2l0.2,0.2h0.3l0.2-0.2v-0.3L18.6,58.6z M18.9,62.3l0.2,0.3
					c0.2,0,0.2-0.2,0.3-0.2h0.2h0.2v-0.6l0,0h-0.5l-0.2,0.3L18.9,62.3L18.9,62.3z M19.2,61.2L19.2,61.2c0.2,0,0.2-0.2,0.3-0.2
					c0-0.2,0-0.2,0-0.3c0,0,0,0,0-0.2c0,0,0,0,0-0.2h-0.6v0.5C19.1,61,19.2,61,19.2,61.2z M19.2,59.7L19.2,59.7
					C19.4,59.7,19.4,59.7,19.2,59.7c0.2,0,0.2,0,0.3,0v-0.2l-0.2-0.2c0,0-0.2,0-0.2-0.2l-0.2,0.2L19.2,59.7L19.2,59.7z M19.4,63.2
					C19.2,63.3,19.2,63.3,19.4,63.2c-0.2,0.2-0.2,0.2-0.2,0.3l0.2,0.2c0.2-0.2,0.2-0.2,0.2-0.3C19.4,63.3,19.4,63.3,19.4,63.2
					C19.4,63.3,19.4,63.2,19.4,63.2z M19.7,58.4l-0.2-0.2c0-0.2,0-0.3,0-0.5c0,0.2-0.2,0.2-0.2,0.2c-0.2,0-0.2,0.2-0.2,0.3l0.2,0.2
					H19.7v0.3l0.2,0.2V59l0.2,0.2c0.2,0,0.3,0,0.3,0v-0.3c0,0,0,0,0-0.2c0,0,0,0,0-0.2L20,58.7L19.7,58.4L19.7,58.4z M20.3,62.4h0.5
					l0,0c0-0.2,0-0.2,0-0.3V62l-0.2-0.2c-0.2,0-0.2,0-0.3,0c-0.2,0-0.2,0-0.2,0L20,61.5l0,0l-0.2-0.2h-0.5l0,0l0.2,0.2v0.2l0.2,0.2
					c0.2,0,0.3,0,0.5,0.2C20.1,62.1,20.1,62.3,20.3,62.4C20.3,62.3,20.3,62.3,20.3,62.4z M20.1,60.3L20.1,60.3
					C20.3,60.3,20.3,60.3,20.1,60.3c0-0.2,0-0.3,0-0.3v-0.2H20h-0.2l0,0l0,0v0.3C19.8,60.1,19.8,60.3,20.1,60.3v0.2l0,0V60.3z
					 M20.3,62.6C20.1,62.6,20.1,62.6,20.3,62.6C20.1,62.6,20.1,62.6,20.3,62.6H20l0,0l0,0v0.3l0.2,0.2c0,0,0.2,0,0.2-0.2h0.2
					L20.3,62.6L20.3,62.6z M20.9,60.4h-0.3l-0.3,0.2c0,0,0,0.2,0.2,0.2v0.2l0.3,0.2l0.2-0.2V60.4z M20.9,59.7v-0.3l-0.2-0.2h-0.2
					l-0.2,0.2v0.3l0.2,0.3h0.2l0.2,0.2v0.5h0.3l0.3-0.2c0-0.2,0-0.3,0-0.3l0,0h-0.2L21.2,60h-0.2L20.9,59.7z M21.1,58.9L21.1,58.9
					C21.1,59,21.1,59,21.1,58.9h0.3c0,0,0,0,0.2,0c0,0,0,0,0.2,0v-0.2l-0.3-0.3l-0.2,0.2L21.1,58.9L21.1,58.9z M21.1,61.5L21.1,61.5
					C21.1,61.5,21.1,61.7,21.1,61.5c0,0.2,0,0.2,0,0.2h0.3l0.2-0.2v-0.3h-0.3C21.2,61.2,21.2,61.3,21.1,61.5
					C21.1,61.3,21.1,61.3,21.1,61.5z M21.5,62.7C21.4,62.7,21.4,62.6,21.5,62.7c-0.2-0.2-0.2-0.2-0.3-0.2l-0.2,0.2v0.2l0.2,0.2
					l0.3-0.2V62.7z M22.1,59.4L22.1,59.4l-0.3-0.2l-0.2,0.2v0.2c0,0,0,0,0,0.2c0,0,0,0,0,0.2H22L22.1,59.4L22.1,59.4z M21.7,60.7
					L21.7,60.7C21.7,60.9,21.7,60.9,21.7,60.7c0,0.2,0,0.2,0,0.2h0.2l0.2-0.2c0,0,0,0,0.2-0.2L22,60.4c0,0,0,0-0.2-0.2L21.7,60.7z
					 M21.8,57.8c0,0.2,0.2,0.3,0.2,0.3l0.2-0.2c0,0,0-0.2,0.2-0.2v-0.2L21.8,57.8L21.8,57.8z M22.3,58.6l0.3,0.3l0.2-0.2
					c0,0,0,0,0.2-0.2c0,0-0.2,0-0.2-0.2h-0.2C22.4,58.4,22.4,58.4,22.3,58.6C22.4,58.6,22.4,58.6,22.3,58.6L22.3,58.6z"/>
				<path class="st3" d="M32.6,52.9v0.2l0.2,0.2v0.2l0.3,0.3v0.2l0,0V54l-0.2,0.2h-0.3l-0.2,0.2v0.2l0.2,0.2v0.5
					c-0.2,0.2-0.3,0.2-0.5,0.3c0,0,0,0.2,0.2,0.2l0.2,0.2v0.5l-0.2,0.2h-0.2L32,56.4v-0.3C31.8,56,31.8,56,31.7,56l-0.2,0.2v0.2
					l0.2,0.2h0.5v0.6c0.2,0,0.2,0,0.2,0.2s0.2,0,0.2,0l0.2,0.2v0.3c0,0.2,0.2,0.2,0.2,0.3H33l0.2,0.2v0.5L33,58.7l-0.2,0.2v0.3
					l0.2,0.2v0.3c0,0-0.2,0-0.3,0l-0.2-0.2h-0.2v0.2v0.2l0.2,0.2v0.2l0.2,0.2l-0.2,0.3h-0.2l-0.2,0.2h-0.2v-0.3L32,60.3
					c0,0,0,0-0.2-0.2l0,0L31.7,60h-0.2v0.5l0.3,0.2h0.3l0.2,0.2c0.2,0.2,0.3,0.3,0.3,0.3c0.2,0.2,0.2,0.2,0.3,0.3v0.8
					c-0.2,0-0.3,0-0.5-0.2c0,0,0,0.2,0,0.3h0.3l0.2,0.3V63l-0.2,0.2c0,0,0,0.2-0.2,0.2l-0.2,0.2c0,0,0,0.2-0.2,0.2h0.2v0.5l0.2,0.2
					v0.2c-0.2,0-0.2-0.2-0.3-0.2s-0.2-0.2-0.3-0.2l-0.2,0.2h-0.2v0.2l-0.2,0.2c0,0,0,0-0.2,0.2h-0.6l-0.2-0.2h-0.2l-0.2,0.2
					l-0.2,0.2L30,64.7h-0.3l-0.2-0.2c0,0,0-0.2-0.2-0.2v-0.2H29l-0.2-0.2h-0.2v0.2l0.2,0.2c0,0.2-0.2,0.3-0.5,0.3
					c0-0.2-0.2-0.2-0.3-0.2C28,64.4,28,64.3,28,64.3s-0.2-0.2-0.3-0.2c-0.2,0.2-0.2,0.2-0.2,0.3c0,0.2-0.2,0.2-0.3,0.3h-0.6
					l-0.2-0.2h-0.3L26,64.7h-0.5l-0.3-0.3v-0.3c0.2,0,0.3-0.2,0.3-0.3v-0.3l-0.2-0.2l0.2-0.2V63c0.2,0,0.2-0.2,0.3-0.2
					c0-0.2,0-0.2,0-0.3l-0.5-0.5v-0.3l0.2-0.2l0.2-0.2c0-0.2,0-0.2,0-0.2s0-0.2,0.2-0.2c-0.2,0-0.2-0.2-0.3-0.3
					c-0.2-0.2-0.2-0.3-0.2-0.3s0-0.2,0.2-0.2c0.2,0,0.2-0.2,0.2-0.2v-0.5c-0.2-0.2-0.2-0.2-0.3-0.3v-0.3c0.2,0,0.2-0.2,0.3-0.3v-0.6
					l-0.2-0.2v-0.3h0.2h0.2v0.3H26l0.3-0.2v-0.8h-0.2L26,57.4c-0.2-0.2-0.2-0.3-0.2-0.3c0-0.2,0-0.3,0-0.3c-0.2-0.2-0.2-0.3-0.3-0.3
					V56l0.3-0.3v-0.2v-0.2c-0.2-0.2-0.3-0.2-0.3-0.2v-0.2l-0.2-0.2v-0.3l0.2-0.3h0.3l0.2-0.2V54c0,0,0-0.2-0.2-0.2s-0.2,0-0.2-0.2
					s0-0.2,0-0.3l0.3-0.3h0.2l0.2-0.3v-0.5l0,0l0,0c0,0,0.2,0,0.2,0.2h0.2c0,0.2,0.2,0.2,0.2,0.3s0.2,0.2,0.2,0.2h0.3l0.2-0.2
					c0-0.2-0.2-0.2-0.3-0.3c-0.2-0.2-0.3-0.2-0.3-0.3V52l-0.2-0.2c-0.2,0-0.2,0-0.2-0.2s-0.2,0-0.3,0L26,51.4v-0.2
					c-0.2,0-0.3-0.2-0.5-0.3v-0.6c0,0,0.2-0.2,0.3-0.2C26,50,26,49.8,26,49.7s0.2-0.2,0.5-0.2h0.2l0.2-0.2v-0.3h-0.2
					c-0.2,0-0.2,0.2-0.3,0.3v-0.2l-0.2,0.2L26,49.2c0,0-0.2,0-0.2-0.2c0.2-0.2,0.2-0.3,0.2-0.5c0,0,0-0.2,0-0.5h-0.2l-0.2-0.3v-0.3
					l0.3-0.2l0.2-0.2l0,0L26,46.9h-0.2l-0.3-0.3v-0.5c0.2,0,0.2-0.2,0.2-0.2l0.2-0.2v-0.3l-0.2-0.2l-0.2-0.3v-0.3l0.2-0.3v-0.3
					c-0.2,0-0.2,0-0.3,0c0,0-0.2,0-0.2-0.2v-0.6l0.2-0.2h0.3l0.2-0.3v-0.2c-0.2-0.2-0.2-0.3-0.2-0.3c0-0.2,0-0.2,0-0.3l0.2-0.2H26
					v-0.5h-0.2l-0.2-0.3v-0.3l0.2-0.2H26l0.2-0.3v-0.3L26,40l0.3-0.3h0.2l0.2,0.2l0.2-0.2v-0.3c0,0,0.2,0,0.3,0h0.2
					c0.2,0.2,0.2,0.2,0.3,0.2l0.2,0.2c0,0,0,0.2,0.2,0.2h0.3l0.2-0.2h0.5l0.2,0.2v0.3l0.2,0.2c0.3-0.2,0.5-0.3,0.6-0.5h0.5
					c0.2,0.2,0.3,0.3,0.5,0.5c0.2,0,0.3,0.2,0.6,0.2l0.2-0.2H31v-0.2c0.2-0.2,0.2-0.2,0.3-0.2c0,0,0.2,0,0.3,0.2v0.2
					c0,0.2,0,0.2,0.2,0.2c0.2,0,0.3,0.2,0.3,0.2c0-0.2,0.2-0.2,0.2-0.3h0.5c0,0,0,0.2,0,0.3l-0.2,0.2l-0.3-0.2l0,0v0.6
					c0,0,0.2,0.2,0.2,0s0.2,0,0.2,0c0.2,0.2,0.3,0.3,0.3,0.3s0.2,0.3,0.3,0.3h0.2l0.2,0.2v0.2c0.2,0.2,0.3,0.2,0.3,0.3
					c0.2,0,0.2,0.2,0.3,0.2v0.6L34,43.4v0.3l0.2-0.2h0.3v0.2l-0.2,0.2L34.1,44v0.3l0.2,0.3c0.2,0,0.3,0,0.3,0s0.2,0.2,0.3,0.2
					c0,0.2,0,0.2,0,0.3s0,0.2,0,0.3l0.2,0.2v0.2L34.7,46c-0.2,0-0.2-0.2-0.2-0.3c0-0.2-0.2-0.2-0.5-0.3C34,45.2,34,45.1,34,44.9
					l-0.2-0.2h-0.2l-0.3,0.3l0,0l0.2,0.2h0.2l0.2,0.2v0.2c0,0.2,0.2,0.2,0.2,0.2s0,0.2,0,0.3h0.3c0.2,0,0.3,0.2,0.3,0.3
					s0.2,0.3,0.2,0.3c0.2,0,0.2,0,0.2,0.2H35v0.2l0.2,0.2v0.2c0.2,0.2,0.3,0.3,0.5,0.5V48l0.2,0.2c0.3,0,0.5,0,0.5,0.2
					s0.2,0.3,0.2,0.5c0.2,0,0.3,0,0.3,0s0.2,0,0.3,0.2v0.2c0,0.2,0,0.2,0.2,0.2l0,0h0.5l0.2,0.2v0.3l0.2,0.2h0.2l0.2-0.2
					c0,0,0-0.2,0.2-0.2v-0.3l-0.2-0.2h-0.3c0,0,0-0.2,0-0.3l0.2-0.2l-0.2-0.2v-0.2h0.6c0-0.2,0-0.2,0-0.3c0-0.2,0-0.2,0-0.3
					c0,0-0.2,0-0.2-0.2c0,0-0.2,0-0.2-0.2v-0.2h0.2l0.2,0.2c0,0,0.2,0,0.2,0.2v0.2h0.2h0.5l0,0v-0.5l-0.2-0.2H39l-0.2-0.2v-0.3
					c0.2-0.2,0.5-0.3,0.5-0.5V46L39,45.7l-0.2-0.3v-0.3c0.2-0.2,0.3-0.3,0.3-0.3v-0.3l0.2-0.2c0,0,0.2,0,0.2-0.2h0.3l0.2-0.2
					l-0.2-0.2c0-0.2,0.2-0.3,0.3-0.3c0.2-0.2,0.3-0.2,0.3-0.3v-0.3h0.5l0.2,0.2v-0.2v-0.6c-0.2,0-0.3,0-0.5,0c0,0,0,0,0-0.2
					c0,0,0,0,0-0.2v-0.2c0,0,0-0.2,0.2-0.2h0.2l0.2-0.2c0,0,0,0,0.2-0.2v-0.3l0.2-0.3h0.5l0.2-0.2v-0.3l0.2-0.2h0.2l0.2-0.2h0.2
					l0.2-0.3l0.2-0.2h0.3l0.3,0.2v0.2c0,0,0.2,0.2,0.2,0c0.2,0,0.2,0,0.2,0h0.3l0,0h0.2l0.2,0.2v0.3v-0.2h-0.3L43.9,40v-0.3l0,0h0.5
					l0.2-0.2h0.2v0.2v0.2c0,0.2,0,0.2,0,0.2l0,0H45l0.2-0.2h0.5v-0.2c-0.2,0-0.3,0-0.5-0.2c-0.2,0-0.2,0-0.3-0.2v-0.2
					c0.2,0,0.2-0.2,0.3-0.2c0.2,0.2,0.3,0.2,0.6,0.2l0.2,0.2h0.3c0,0.2,0.2,0.2,0.2,0.3c0,0.2,0.2,0.2,0.2,0.3h0.3
					c0-0.2,0.2-0.2,0.2-0.3h0.3l0.3,0.3h0.2c0,0,0.2,0,0.2,0.2h0.5V40l-0.2-0.2v-0.2h0.2c0.2,0,0.2,0,0.2,0v0.2v0.5l-0.2,0.2
					l-0.2,0.2c0,0.2,0.2,0.2,0.2,0.3s0.2,0.2,0.2,0.2v0.6h-0.5c0,0,0,0.2,0,0.3s0,0.2,0,0.3l0.2,0.2h0.3l0.2,0.2l0,0
					c0,0.2,0,0.2-0.2,0.2v0.2h-0.3l-0.2,0.3v0.3c0.2,0.2,0.2,0.2,0.3,0.3c0,0-0.2,0-0.3,0c0-0.2-0.2-0.2-0.2-0.3l0,0h-0.5
					c0,0.2,0,0.3,0,0.6c0.2,0,0.2,0,0.3,0c0.2,0,0.2,0,0.3,0c0,0.2,0,0.2,0,0.3c0,0.2,0,0.2,0,0.3h0.2c0,0,0.2,0,0.2,0.2
					c0.2,0,0.3,0.2,0.3,0.3l0,0v0.3c-0.2,0-0.2,0-0.3,0c-0.2,0-0.2,0-0.3,0v0.2v0.2l0.2,0.2h0.3v-0.3c0,0,0,0,0.2,0c0,0,0,0,0.2,0
					L49,46l-0.3,0.3v0.8h-0.2l-0.2-0.2h-0.2l0,0v0.5c0.2,0.2,0.2,0.2,0.3,0.3v0.2l0.2,0.2c0,0-0.2,0.2-0.2,0.3l-0.2,0.2v0.2l0.2,0.2
					v0.2l0.3,0.2H49v-0.2h0.2v0.2L49,49.2v0.6l0.2,0.2c0,0,0,0.2,0.2,0.2h-0.2c0,0,0,0-0.2,0l-0.6-0.3V50v0.5l0.2,0.2l0.2-0.2
					l0.2,0.2v0.3l0.2,0.2l0.3,0.3h0.2v0.3c-0.2,0.2-0.3,0.3-0.3,0.5v0.3H49h-0.6l-0.2-0.2V52l-0.2-0.2h-0.2h-0.2l0,0v0.5l0.2,0.2
					h0.3v0.2c0,0,0,0.2,0.2,0.2v0.3l0.2,0.2h0.2c0,0.2,0.2,0.2,0.3,0.3v0.2l0.3,0.3v0.2L49,54.3v0.2l-0.2,0.2v0.3l0.2,0.2v0.5h-0.2
					c0-0.2,0-0.2-0.2-0.3h-0.3l-0.2,0.2v0.2l0.2,0.2h0.3l0,0v0.2c0,0.2,0.2,0.2,0.2,0.5c0,0.2,0.2,0.3,0.3,0.3l0.2,0.3l0,0l-0.2,0.3
					H49l-0.2,0.2c0,0,0,0.2-0.2,0.2v0.3l0.2,0.2v0.3v0.2l-0.2,0.2c0,0.2,0.2,0.3,0.2,0.5c0.2,0.2,0.2,0.3,0.3,0.5v0.2
					c0,0.2-0.2,0.2-0.2,0.2L48.8,60v0.3c0.2,0.2,0.2,0.2,0.2,0.3c0,0.2,0.2,0.2,0.3,0.3c0,0-0.2,0.2-0.3,0.3h-0.2l-0.2,0.3
					c0,0.2,0.2,0.3,0.2,0.3s0.2,0.2,0.3,0.3l0,0l0,0v0.2L49,62.4l-0.2,0.2c0,0.2,0,0.2-0.2,0.2v0.2l0.2,0.2c0,0.2,0.2,0.2,0.2,0.2
					l-0.2,0.2l-0.2,0.2V64l0.2,0.2l-0.2,0.2l0.2,0.2l0,0h-0.9l-0.2,0.2l0,0V64l-0.2-0.2L47.5,64h-0.2l-0.2,0.2h-0.6
					c0-0.2-0.2-0.2-0.2-0.3h-0.2L46.1,64l0,0l0,0c0,0.2,0,0.3,0.2,0.5l-0.2,0.2h-0.2h-0.2l-0.2,0.2h-0.3l-0.2,0.2h-0.3v-0.2h-0.2
					l-0.2-0.2c-0.2,0-0.2,0-0.3,0.2c-0.2,0-0.2,0.2-0.2,0.3l-0.2,0.2h-0.5V65l-0.2-0.2H43L42.8,65c0,0-0.2,0-0.2,0.2h-0.3L42.2,65
					v-0.2l0.2-0.2v-0.2l0.2-0.2v-0.3c-0.2,0-0.2,0-0.2-0.2c0,0,0-0.2-0.2-0.2v-0.5l0.2-0.2l0.2-0.2c0-0.2,0-0.2,0-0.3s0-0.2,0-0.3
					l0,0h-0.3l-0.2-0.2v-0.5l0.2-0.2h0.3l0,0V61l0.2-0.2h0.2H43l0,0l0,0v-0.5l-0.2-0.2l-0.2,0.2h-0.2h-0.2l0,0V60l-0.2-0.2v-0.2
					c0-0.2-0.2-0.2-0.2-0.2s-0.2,0-0.2-0.2s0.2-0.2,0.2-0.3c0-0.2,0.2-0.3,0.2-0.3v-0.3c0-0.2,0.2-0.2,0.3-0.3
					c0.2,0,0.3-0.2,0.3-0.3l-0.2-0.2h-0.3l-0.2-0.3c0-0.2,0-0.3-0.2-0.3h-0.2l-0.3-0.3v-0.2v-0.2l0,0h0.5l0.2,0.2v0.3
					c0.2,0.2,0.3,0.2,0.6,0.2l0,0v-0.5l-0.2-0.2h-0.5c0,0,0-0.2-0.2-0.2v-0.2l0.2-0.2l-0.2-0.2h-0.3l-0.2-0.2v-0.3l0.2-0.2
					c0,0,0,0,0.2-0.2h0.2v0.3l0.2,0.2v0.3l0,0h0.5l0,0v-0.6c0,0-0.2-0.2-0.3,0c-0.2,0-0.3,0-0.3,0v-0.3l-0.2-0.2v-0.3
					c-0.2,0-0.3,0-0.3-0.2c-0.2-0.2-0.2-0.3-0.2-0.3v-0.2l0,0h0.5l0.2,0.2v0.3l0.2,0.2h0.3c0,0.2,0,0.2,0.2,0.2v0.3
					c0.2,0,0.3,0,0.5,0l0.2,0.2h0.2v0.6l0.2,0.2h0.5c0,0.2,0,0.2,0,0.3c0,0.2,0,0.2,0,0.3v0.2c0,0,0,0,0,0.2h0.6
					c0.2,0.2,0.3,0.3,0.5,0.5h0.2l0.2-0.2v-0.2c-0.2,0-0.2-0.2-0.2-0.3c0-0.2,0-0.2-0.2-0.3H45l-0.2-0.2v-0.5l-0.2-0.2l-0.2,0.2
					c-0.2,0-0.2,0-0.2,0.2c0-0.2-0.2-0.3-0.2-0.3s0-0.2,0-0.3h-0.6v-0.3h-0.2c0-0.2,0-0.2,0-0.3c0,0-0.2,0-0.3,0L43,54.4
					c0,0-0.2,0-0.2-0.2V54l-0.3-0.2h-0.3v-0.2v-0.5l-0.2-0.2h-0.3l-0.2-0.2c0-0.2,0-0.3-0.2-0.6H41l-0.2-0.2v-0.5l0,0h0.6V52l0,0
					c0,0,0,0.2,0.2,0.2h0.2l0.2,0.2h0.2h0.2l-0.2-0.2v-0.3l-0.2-0.2h-0.2l-0.2-0.2h-0.2v-0.5l0,0h-0.6v-0.2c0-0.2,0-0.2,0-0.2
					l-0.2-0.3h-0.5l0,0v0.5l0,0c0.2,0,0.2,0,0.3,0.2h0.2l0.2,0.2v0.5c-0.2,0-0.3,0.2-0.3,0.2c-0.2,0-0.2,0.2-0.3,0.2v0.2l-0.2,0.2
					h-0.5v-0.2l-0.2-0.3h-0.3L39,51.7h-0.2v-0.3l-0.3-0.3h-0.2l-0.2-0.2v-0.5l-0.2-0.2l-0.2,0.2h-0.3l-0.2,0.2v0.3
					c0.2,0.2,0.2,0.2,0.3,0.2c0.2,0,0.2,0,0.2,0h0.2c0,0,0.2,0.2,0.2,0.3l0.2,0.2l0.2,0.2h0.2V52c0.2,0.2,0.2,0.2,0.2,0.3
					c0,0.2,0.2,0.2,0.5,0.2l0,0v0.5l-0.2,0.2h-0.5l-0.2-0.3v-0.2l-0.2-0.2h-0.5v-0.3l-0.2-0.3l0,0h-0.3L37.3,52v0.5l0.3,0.2l1.1,0.6
					c0,0.2,0,0.3,0,0.3c0,0.2,0,0.2,0.2,0.3c0.2,0,0.3,0,0.6,0.2v0.3l-0.2,0.2h-0.5v-0.3L38.7,54v-0.2l0,0h-0.5l-0.2-0.2v-0.3
					c0,0-0.2-0.2-0.3-0.2v-0.2h-0.2l-0.2-0.3v-0.3l-0.3-0.2h-0.3v0.2v0.3l0.3,0.3h0.3c0,0.2,0,0.2,0,0.3l0.2,0.2v0.2
					c0.2,0,0.2,0.2,0.3,0c0.2,0,0.2,0,0.3,0v0.2V54l0.2,0.2v0.2h0.2H39l0,0v0.3c0.2,0,0.2,0.2,0.2,0.2v0.2c0.3,0,0.5,0,0.6,0.2v0.2
					l0.2,0.2v0.3l0,0h0.5v0.2v0.3c0,0,0,0.2-0.2,0.2c-0.2,0-0.2,0-0.2,0.2h-0.2l-0.2,0.3l-0.2,0.2v0.2l-0.2,0.2h-0.3L39,57.4v0.2
					l-0.2,0.3L38.7,58l-0.2-0.2h-0.2c0,0,0,0.2,0,0.3l0.2,0.2c0,0,0.2,0,0.2,0.2v0.3l0.2,0.2h-0.3c-0.2-0.2-0.2-0.2-0.3-0.2L38.1,59
					v0.2l0.2,0.2c0,0-0.2,0.2-0.3,0.3l-0.2-0.2c0,0-0.2,0-0.2-0.2c0,0-0.2,0-0.2-0.2S37.3,59,37.3,59c-0.2,0-0.2,0.2-0.2,0.3
					L37,59.5h-0.2c0,0,0,0-0.2,0h-0.2v-0.6c0.2-0.2,0.2-0.2,0.2-0.3l-0.2-0.2c-0.2,0-0.2,0-0.2,0s0,0.2-0.2,0.2h-0.2v-0.5
					c0.2,0,0.3-0.2,0.3-0.3l-0.3-0.3h-0.3l-0.2,0.2h-0.3v-0.2l0.2-0.2v-0.2c0-0.2-0.2-0.2-0.2-0.3c0,0,0-0.2-0.2-0.2H35l-0.2-0.2
					c0,0,0,0-0.2-0.2v-0.2L34.4,56h-0.2l-0.2-0.2H34c-0.2-0.2-0.2-0.3-0.2-0.5h-0.2l-0.2-0.2v-0.5l0.3-0.3l0,0l0.2-0.3
					c-0.2,0-0.2-0.2-0.3-0.2s-0.2,0-0.3,0c0,0,0-0.2,0-0.3h0.2v-0.3h0.3l0.2-0.2v-0.2c0-0.2-0.2-0.2-0.5-0.3c0,0,0,0.2,0,0.3
					l-0.2,0.2H33c-0.2-0.2-0.2-0.2-0.3-0.2C32.7,53.1,32.6,52.9,32.6,52.9h-0.3l-0.2-0.2L32.6,52.9v-0.3c-0.2-0.2-0.2-0.2-0.2-0.2
					s0-0.2-0.3-0.2v0.2c0,0.2,0,0.3,0.2,0.5H32.6L32.6,52.9z M25.8,52L25.8,52C25.7,52,25.7,52,25.8,52c-0.2,0-0.2,0-0.3,0l0.3-0.2
					V52z M26.4,43.6h-0.6l0,0V44c0,0,0,0,0,0.2c0,0,0,0,0,0.2h0.5l0,0L26.4,43.6L26.4,43.6l0.2-0.2h0.2l0.2-0.2v-0.3
					c0,0-0.2,0-0.2-0.2h-0.2l-0.2-0.2h-0.2l0.2,0.2v0.3l-0.2,0.2l0.2,0.2V43.6z M26,44.9v0.5l0.2,0.2h0.2c0-0.2,0.2-0.2,0.2-0.3
					l-0.2-0.2L26,44.9L26,44.9z M26.1,48.2h0.3v-0.5c-0.2-0.2-0.2-0.2-0.3-0.2H26c0,0,0,0-0.2,0v0.3L26.1,48.2z M26.4,53.1
					L26.4,53.1C26.3,53.1,26.3,53.1,26.4,53.1h-0.3L26,53.2v0.5l0,0h0.5l0.2-0.3C26.4,53.2,26.4,53.2,26.4,53.1z M26,59h0.3
					c0,0,0.2-0.2,0.3-0.3v-0.2c-0.2,0-0.2,0-0.5,0l0,0l0,0L26,59L26,59z M26.4,46.6c-0.2-0.2-0.2-0.2-0.3-0.2L26,46.6c0,0,0,0,0,0.2
					l0.2,0.2l0,0L26.4,46.6z M26.3,54.4C26.1,54.4,26.1,54.6,26.3,54.4c-0.2,0.2-0.2,0.3-0.3,0.3l0.2,0.2c0,0,0.2,0,0.2-0.2
					C26.3,54.8,26.3,54.8,26.3,54.4L26.3,54.4L26.3,54.4z M26,55.8V56v0.2c0,0,0,0,0,0.2h0.2c0,0,0,0,0.2,0c0,0,0,0,0.2,0v-0.2
					L26.3,56H26V55.8z M26.1,62.6L26,62.7l0.2,0.2h0.2l0,0C26.3,62.7,26.3,62.7,26.1,62.6z M26.3,41.3L26.3,41.3L26.3,41.3l-0.2,0.2
					L26.3,41.3z M26.6,47.5L26.6,47.5l0.3-0.2c0,0,0.2,0,0.2-0.2v-0.2v-0.2c0,0,0,0,0-0.2h-0.5l-0.2,0.2L26.6,47.5L26.6,47.5z
					 M26.6,48.6L26.6,48.6c0,0.2,0,0.2,0,0.2s0,0,0,0.2h0.3l0.2-0.2v-0.2l-0.3-0.2L26.6,48.6z M27.8,49.5v-0.3l-0.2-0.2
					c-0.2,0-0.2-0.2-0.3-0.2l-0.2,0.2c0,0,0,0-0.2,0.2v0.5c-0.2,0.2-0.5,0.2-0.6,0l0,0v0.5l0.2,0.2h0.3v0.2c0,0.2,0,0.2,0,0.3
					c0,0.2,0,0.2,0,0.3h0.2l0.3-0.3l-0.2-0.2l-0.2-0.2c0-0.2-0.2-0.2-0.3-0.3v-0.3l0.2-0.2L27.8,49.5L27.8,49.5z M27.7,52.3l0.2-0.2
					c0-0.2-0.2-0.2-0.2-0.2c-0.2,0-0.2,0-0.3-0.2v-0.8l-0.2-0.2h-0.5l0,0v0.3c0.2,0.2,0.2,0.2,0.2,0.2s0.2,0.2,0.2,0.3h0.2
					c0,0,0,0.2,0.2,0.2c0.2,0,0,0.2,0,0.2v0.2L27.7,52.3L27.7,52.3z M27.2,58.3V58l-0.2-0.2h-0.3L26.6,58v0.2c0,0,0,0,0,0.2
					c0,0,0,0,0,0.2h0.6L27.2,58.3L27.2,58.3z M26.7,60.6l-0.2,0.2V61h0.2l0.2-0.2L26.7,60.6z M26.9,55.2c-0.2,0.2-0.2,0.2-0.2,0.3
					l0.2,0.2c0.2,0,0.2-0.2,0.3-0.3C27.1,55.4,26.9,55.2,26.9,55.2z M27.1,56.4c-0.2,0-0.3,0-0.3,0v0.3l0.3,0.2l0.2-0.2
					c0,0,0-0.2,0.2-0.2L27.1,56.4z M26.9,54.1V54l0,0l0,0h-0.2l-0.2,0.2H26.9L26.9,54.1z M26.7,41.9v0.3h0.2l0.2-0.2L26.7,41.9
					L26.7,41.9z M27.1,62.1c0-0.2,0-0.3-0.2-0.3L26.7,62v0.2L27.1,62.1L27.1,62.1z M26.9,45.9L26.9,45.9L26.9,45.9L26.9,45.9
					L26.9,45.9z M26.7,59.4L26.7,59.4h0.3H26.7L26.7,59.4z M26.9,63.2v0.2v0.2h0.2l0.2-0.2v-0.2H26.9z M32,41.4l0.2,0.3L32,41.9V42
					l0.2,0.2l0.2-0.2c0,0,0,0,0.2,0s0,0,0-0.2c0,0,0-0.2,0-0.3C32.4,41.6,32.3,41.4,32,41.4L32,41.4L32,41.4l-0.2-0.3
					c0-0.2,0-0.3,0-0.5h-0.2h-0.3c0,0.2-0.2,0.3-0.2,0.3c0,0.2,0,0.2-0.2,0.3h-0.2l-0.2-0.2h-0.2l-0.2-0.3v-0.2l-0.2-0.2h-0.2
					L30,40.3c-0.2,0-0.2,0-0.3,0c0-0.2,0-0.2-0.2-0.2c-0.2,0-0.2,0-0.3-0.2v0.2h-0.3c0,0.2-0.2,0.3-0.3,0.5h-0.3L28,40.3
					c0-0.2,0-0.3,0-0.3h-0.5l-0.2,0.2v0.3l-0.2,0.2h-0.2l-0.2,0.2c0,0,0,0-0.2,0.2v0.2c0.2,0.2,0.3,0.3,0.6,0.3v0.5V42h-0.2
					l-0.2,0.2c0,0-0.2,0-0.2,0.2v0.2c0.2,0.2,0.3,0.2,0.5,0.3l0.3-0.3v-0.3h0.2l0.2,0.2l0.3-0.2v0.6v0.2H28l-0.2,0.2v0.3
					c0.2,0,0.2,0,0.2,0.2h0.2c0.2,0.2,0.3,0.3,0.3,0.5l0.2,0.2h0.2c0-0.2,0-0.2,0.2-0.2c0,0,0-0.2,0.2-0.2l-0.2-0.2
					c-0.2,0-0.2,0-0.3,0c-0.2,0-0.2,0-0.2-0.2v-0.3v-0.2l0.2-0.2h0.6v0.5l0.2,0.2c0.2,0,0.3,0,0.5,0.2v-0.5l0,0h-0.3l-0.2-0.2h-0.2
					v-0.6L29,42.3c-0.2,0-0.3,0-0.5,0v-0.5l0.3-0.2l0.3,0.2v0.3c0.2,0.2,0.2,0.2,0.2,0.2s0.2,0,0.3,0v0.2H30l0.2,0.3h0.2
					c0.2-0.2,0.2-0.3,0.2-0.3v-0.2H30v-0.5l0,0l0,0h0.5l0,0c0,0.2,0.2,0.3,0.2,0.3h0.3l0.2,0.2c0,0,0.2,0,0.2,0.2v-0.6L31,41.7v-0.2
					l0.2-0.2H32L32,41.4z M27.5,53.1C27.5,53.2,27.4,53.2,27.5,53.1c-0.2,0.2-0.2,0.3-0.3,0.3c0,0,0,0.2,0.2,0.2l0.2,0.2h0.2
					l0.2-0.2v-0.2v-0.2c0,0,0,0,0-0.2l-0.2-0.2h-0.2V53.1z M27.7,56.3l0.2-0.2V56l-0.2-0.2h-0.2L27.4,56v0.2L27.7,56.3L27.7,56.3z
					 M27.7,57.1c-0.2,0-0.3,0-0.3,0v0.5l0.2,0.2h0.2l0.2-0.2v-0.3L27.7,57.1z M27.2,58.7l0.3,0.3l0.2-0.2c0,0,0-0.2,0.2-0.2
					l-0.2-0.2h-0.2h-0.2l0,0L27.2,58.7L27.2,58.7z M27.4,62.9L27.2,63h0.2V62.9L27.4,62.9z M27.8,46.6L27.8,46.6c-0.2,0-0.2,0-0.3,0
					c0,0-0.2,0-0.2,0.2l0.2,0.2L27.8,46.6z M27.8,48C27.7,48,27.7,47.8,27.8,48c-0.2-0.2-0.2-0.2-0.3-0.2L27.4,48
					C27.5,48,27.5,48.2,27.8,48L27.8,48z M27.4,54.8l0.3,0.2l0.2-0.2l-0.3-0.3h-0.2V54.8z M27.8,60.3V60l-0.2-0.2h-0.2h-0.2V60
					l0.2,0.2L27.8,60.3L27.8,60.3z M27.4,61.5l0.2,0.2l0,0l0.3-0.2v-0.3h-0.2C27.5,61.2,27.5,61.3,27.4,61.5
					C27.5,61.3,27.5,61.3,27.4,61.5z M27.5,45.2L27.5,45.2L27.5,45.2L27.5,45.2C27.5,45.1,27.5,45.2,27.5,45.2z M28,41.4v-0.3
					l0.2-0.2h0.3l0.2-0.2l0,0v0.5l-0.2,0.2h-0.2C28.1,41.4,28.1,41.4,28,41.4L28,41.4z M28,49.8L28,49.8c0.2,0.2,0.2,0.3,0.2,0.3
					h0.2l0.2-0.2l-0.2-0.2L28,49.8L28,49.8z M28.4,53.8l-0.3-0.2L27.8,54l0.2,0.2c0,0,0.2,0,0.2,0.2L28.4,53.8L28.4,53.8z
					 M28.1,56.9L28.1,56.9l0.3-0.2v-0.2v-0.2c0,0,0,0,0-0.2h-0.3L28,56.4v0.2L28.1,56.9z M28,60.6c0,0.2,0,0.2,0,0.3h0.3l0.2-0.2
					c0,0,0,0,0-0.2l-0.2-0.2H28V60.6z M28,62.1C28,62.1,28,62.3,28,62.1c0.2,0.2,0.3,0.2,0.3,0.3l0.2-0.2c0-0.2,0-0.2,0.2-0.2
					L28.4,62H28l0,0L28,62.1L28,62.1z M28.1,63.3C28.1,63.3,28.1,63.5,28.1,63.3c-0.2,0.2-0.2,0.2-0.3,0.2v0.3h0.5l0,0l0,0v-0.5
					H28.1z M28.4,46.2v-0.3l-0.2-0.2l0,0l-0.2,0.2V46L28.4,46.2L28.4,46.2L28.4,46.2z M28.1,47.1v0.2v0.2h0.2l0.2-0.2L28.1,47.1
					L28.1,47.1z M28.4,52.8v-0.2l-0.2-0.2l0,0l-0.2,0.2v0.2l0.2,0.2L28.4,52.8z M28.3,58.1l0.2-0.2v-0.3h-0.2l-0.2,0.2l0,0
					L28.3,58.1z M28.3,59.7l0.3-0.3l-0.2-0.2h-0.2l-0.2,0.2C28.1,59.5,28.1,59.7,28.3,59.7z M28.4,48.8v-0.2l-0.2-0.2l-0.2,0.2v0.2
					c0,0,0,0,0,0.2s0,0,0,0.2h0.3V48.8z M28.1,51.4L28.1,51.4L28.1,51.4L28.1,51.4L28.1,51.4z M28.1,44.5v0.3
					C28.3,44.6,28.3,44.6,28.1,44.5z M28.3,55.4L28.3,55.4L28.3,55.4L28.3,55.4L28.3,55.4z M28.6,49.1l0.2,0.2c0,0.2,0,0.2,0.2,0.2
					h0.3v-0.2c0-0.2,0-0.3,0-0.3H29h-0.2L28.6,49.1L28.6,49.1z M29.4,52.3v0.5l0.2,0.2l0,0l0.2-0.2c0,0,0,0,0.2-0.2l0,0
					c0-0.2,0-0.2-0.2-0.2C29.7,52.5,29.5,52.5,29.4,52.3L29.4,52.3L29.4,52.3L29.2,52c0-0.2,0-0.3,0-0.3h-0.3l-0.2,0.2v0.3l0.2,0.2
					L29.4,52.3L29.4,52.3z M28.6,57.2v0.2c0,0,0,0.2,0.2,0.2h0.2l0.2-0.2v-0.2l-0.2-0.2L28.6,57.2z M28.7,47.8c0,0,0,0.2,0.2,0.2
					l0.2,0.2c0.2-0.2,0.2-0.2,0.2-0.3L29,47.7L28.7,47.8z M28.7,46.6l0.2,0.2H29c0,0,0.2,0,0.2,0.2l0.2-0.3c0,0-0.2-0.2-0.2-0.3
					h-0.3L28.7,46.6L28.7,46.6z M29,53.5l0.2-0.2v-0.2L29,53.1h-0.2c0,0,0,0-0.2,0c0,0,0,0-0.2,0v0.2L29,53.5z M28.9,56.3L28.9,56.3
					l0.3-0.3L29,55.8h-0.2L28.7,56L28.9,56.3L28.9,56.3z M28.7,61.3l0.2,0.2H29v-0.2H28.7L28.7,61.3L28.7,61.3z M29,45.2l-0.2-0.2
					l-0.2,0.2l0.2,0.2L29,45.2z M29,50.8L29,50.8L29,50.8L29,50.8L29,50.8z M28.7,54.4v0.2v0.2h0.2c0,0,0,0,0.2,0c0,0,0,0,0.2,0
					v-0.2c0,0,0,0,0-0.2c0,0,0,0,0-0.2h-0.5L28.7,54.4L28.7,54.4z M29,60.1L28.9,60h-0.2l0,0L29,60.1L29,60.1z M29,62.9v-0.2h-0.2
					L29,62.9L29,62.9z M29,58.7L29,58.7L29,58.7L29,58.7C28.9,58.7,29,58.7,29,58.7z M29.4,46.9c0,0.2,0,0.3-0.2,0.5l0.2,0.3l0,0
					l0,0h0.2c0,0,0.2,0,0.2-0.2l0.2-0.2c0-0.2,0-0.2,0-0.3l0,0L29.4,46.9L29.4,46.9z M29.7,60.9v-0.2l-0.2-0.2h-0.3L29,60.9l0.2,0.2
					L29.7,60.9L29.7,60.9z M29.4,63.6L29.4,63.6c0.3-0.2,0.3-0.2,0.3-0.3l-0.2-0.2l-0.2,0.2V63.6z M29.7,49.7l-0.2,0.2L29.4,50
					l0.2,0.2h0.2l0.2-0.2C29.8,49.8,29.7,49.7,29.7,49.7z M29.5,51.1L29.5,51.1l-0.2,0.5h0.5l0,0v-0.3l-0.2-0.2H29.5z M29.7,54.3
					L30,54v-0.2h-0.3L29.5,54l0,0C29.5,54.1,29.5,54.1,29.7,54.3C29.5,54.1,29.7,54.1,29.7,54.3z M29.8,55.4v-0.2
					c0-0.2-0.2-0.2-0.3-0.2l-0.2,0.2v0.2v0.2c0,0,0,0,0,0.2h0.2L29.8,55.4z M30,56.7C29.8,56.6,29.8,56.6,30,56.7
					c-0.2-0.2-0.2-0.2-0.3-0.2l-0.2,0.2l-0.2,0.2l0.2,0.2L30,56.7z M29.4,58.1c0,0.2,0.2,0.2,0.2,0.2l0.2-0.2c0,0,0-0.2-0.2-0.2
					c-0.2,0-0.2,0-0.2-0.2V58.1z M29.5,44.5L29.5,44.5l0.2,0.3l0.2-0.2L29.5,44.5L29.5,44.5z M29.5,46.2L29.5,46.2l0.3-0.2H30v-0.3
					l0.2-0.3h0.3l0.2-0.2v-0.2l-0.2-0.2c-0.2,0-0.2,0.2-0.3,0.2C30,45.2,30,45.4,30,45.4h-0.3l-0.2,0.2V46.2z M29.7,48.3l-0.2,0.3
					l0,0l0,0l0,0C29.7,48.5,29.7,48.5,29.7,48.3z M29.7,62.1L29.7,62.1L29.7,62.1L29.7,62.1z M30,46.6l0.2,0.3h0.5l0,0v-0.5
					l-0.3-0.2h-0.2L30,46.5L30,46.6L30,46.6z M30.6,57.7v0.5l0.2,0.2h0.2l0.2-0.2l-0.2-0.3h-0.2L30.6,57.7c-0.2-0.3-0.2-0.6-0.2-0.6
					H30c0,0,0,0.2-0.2,0.2v0.2c0,0.2,0,0.2,0.2,0.2c0.2,0,0.2,0,0.2,0.2L30.6,57.7L30.6,57.7z M30,49.4l0.2,0.2l0,0l0.2-0.2
					c0,0,0,0,0.2-0.2l-0.2-0.2h-0.2L30,49.4z M30.4,50.5h-0.3l0,0v0.3l0.2,0.2h0.3l0.2,0.2l0,0v-0.5L30.4,50.5z M30.1,44l0.3,0.3
					h0.3v-0.2c0-0.2-0.2-0.2-0.2-0.3c0-0.2-0.2-0.2-0.3-0.2l-0.2,0.2V44z M30.1,52l0.2,0.2l0.2-0.2l-0.2-0.2L30.1,52z M30.4,53.4
					C30.4,53.2,30.4,53.2,30.4,53.4C30.4,53.2,30.4,53.2,30.4,53.4l-0.3-0.2L30,53.5l0.2,0.2l0,0C30.4,53.5,30.4,53.4,30.4,53.4z
					 M30.1,54.6c0,0.2,0.2,0.2,0.3,0.2l0.2-0.2v-0.2l-0.3-0.2L30.1,54.6z M30.6,56C30.6,56,30.4,56,30.6,56
					c-0.2-0.2-0.3-0.2-0.3-0.3l-0.2,0.2V56l0.2,0.2h0.2l0.2,0.2h0.2L30.6,56L30.6,56z M30.1,58.7c0.2,0.2,0.2,0.2,0.3,0.3h0.2v-0.3
					l-0.2-0.2h-0.2C30.1,58.6,30.1,58.6,30.1,58.7z M30.3,59.8c-0.2,0.2-0.2,0.2-0.2,0.3l0.3,0.3h0.2V60L30.3,59.8z M30.1,61.5
					l0.2,0.2l0.2-0.2l-0.2-0.3H30L30.1,61.5L30.1,61.5z M30.4,64.6h-0.3C30.1,64.6,30.3,64.6,30.4,64.6z M30.1,47.8l0.2,0.3h0.2
					l0.2-0.2l-0.2-0.3L30.1,47.8C30.3,47.8,30.3,47.8,30.1,47.8L30.1,47.8L30.1,47.8z M30.1,62.9l0.2,0.2l0.2-0.2l-0.2-0.3h-0.2
					V62.9z M30.7,46.9C30.7,46.9,30.6,47.1,30.7,46.9c0,0.2,0,0.2-0.2,0.3l0,0l0,0c0.2,0.2,0.2,0.3,0.2,0.5h0.2l0.2-0.2
					c0,0,0.2,0,0.2-0.2s0-0.3,0-0.3L30.7,46.9L30.7,46.9z M30.9,56.9l0.2,0.2h0.2v-0.3L31,56.6h-0.3l-0.2,0.2v0.2v0.2h0.3V56.9z
					 M31,40.8L31,40.8C31.2,40.8,31.2,40.8,31,40.8c0.2,0,0.2,0,0.3,0v-0.2l-0.2-0.2h-0.3l-0.2,0.2v0.2c0,0,0,0,0,0.2c0,0,0,0,0,0.2
					H31V40.8z M31.2,46C31,45.9,31,45.9,31.2,46c-0.2-0.2-0.2-0.3-0.3-0.3l-0.2,0.2c0,0,0,0-0.2,0.2v0.2l0.3,0.2l0.2-0.2h0.2V46z
					 M31,48.9l0.2-0.2v-0.2c0,0-0.2,0-0.2-0.2l-0.2-0.2c-0.2,0.2-0.2,0.2-0.3,0.2v0.2l0.3,0.2H31V48.9z M30.6,51.1v0.3
					c0.2,0.2,0.2,0.2,0.2,0.2h0.2l0.2-0.2h0.2v-0.2L31,51.1L30.6,51.1L30.6,51.1z M31,52.9l0.2-0.2v-0.2c0,0,0,0,0-0.2
					c0,0,0,0,0-0.2h-0.5l-0.2,0.2v0.2h0.2C30.9,52.9,30.9,52.9,31,52.9z M31.2,59.4L31,59.2h-0.2L30.7,59h-0.2v0.6l0.2,0.2h0.2
					c0,0,0.2,0,0.2-0.2L31.2,59.4z M30.7,60.7c0,0.2,0.2,0.2,0.3,0.2l0.3-0.3l-0.2-0.2c0,0,0,0-0.2-0.2h-0.2L30.7,60.7z M30.9,44.5
					L30.9,44.5c0,0.2-0.2,0.2-0.2,0.3v0.2h0.2H31v-0.3l0.2-0.2H30.9C31,44.3,31,44.3,30.9,44.5z M31,50.1l0.2-0.2v-0.2h-0.3L30.7,50
					L31,50.1L31,50.1L31,50.1z M31.2,54.1V54l-0.3-0.2L30.7,54v0.2l0.3,0.2L31.2,54.1z M30.7,55.4c0.2,0.2,0.2,0.2,0.3,0.2l0.2-0.2
					v-0.3L31,54.9l-0.2,0.2L30.7,55.4L30.7,55.4z M31,43.1L31,43.1v0.2V43.1z M31.2,63.2L31.2,63.2L31.2,63.2L31.2,63.2L31.2,63.2
					L31.2,63.2z M31.2,46.6l0.2,0.3l0.2-0.2h0.3l0.2-0.2v-0.3h-0.6L31.2,46.6z M31.3,43.9c0.2,0,0.2,0,0.2,0.2l0.2,0.2l0.2-0.3v-0.2
					l-0.2-0.2c0,0-0.2,0-0.2-0.2h-0.2V43.9z M31.5,45.5c0.2,0,0.2,0,0.5,0v-0.3c-0.2-0.2-0.2-0.3-0.3-0.3c-0.2,0.2-0.2,0.2-0.3,0.2
					L31.5,45.5L31.5,45.5z M31.7,57.5L31.7,57.5l0.3-0.2v-0.2c0,0,0,0,0-0.2c0,0,0,0,0-0.2h-0.3l-0.3,0.2L31.7,57.5z M31.3,62.9V63
					l0.2,0.2l0.2-0.2v-0.2H31.3z M31.7,50.9l0.3-0.3l-0.2-0.2c0,0,0,0-0.2-0.2l-0.2,0.2c0,0,0,0-0.2,0.2L31.7,50.9L31.7,50.9z
					 M31.5,42.6L31.5,42.6L31.5,42.6L31.5,42.6L31.5,42.6L31.5,42.6z M31.7,47.7l-0.2,0.2v0.3l0,0l0.2,0.2l0.2-0.2
					c0,0,0-0.2,0.2-0.2L31.7,47.7z M31.7,49.4l0.2-0.2l-0.2-0.2h-0.2l-0.2,0.2v0.2H31.7z M31.5,52.1l0.3,0.2l0.2-0.2V52l-0.3-0.2
					L31.5,52V52.1z M31.7,54.6l-0.2,0.2h0.2V54.6L31.7,54.6z M31.5,58.7L31.5,58.7L31.5,58.7L31.5,58.7L31.5,58.7z M31.7,61.3
					l-0.2,0.2l0,0c0,0,0,0.2,0.2,0.2v0.2l0.3-0.2v-0.2c0,0,0,0,0-0.2c0,0,0,0,0-0.2h-0.3V61.3z M32.1,46.3h0.5c0,0,0.2,0.2,0.2,0.3
					v0.2l0.2,0.2h0.3l0.2-0.2v-0.3l-0.2-0.2h-0.3c0,0-0.2-0.2-0.2-0.3v-0.2l-0.2-0.2h-0.5L32,45.9V46C32,46,32,46,32.1,46.3z
					 M32.6,44.3L32.6,44.3h-0.3L32,44.6v0.2l0.2,0.2h0.5L32.6,44.3L32.6,44.3z M32.1,47.5c0.2,0,0.3,0,0.3,0v-0.3l-0.2-0.2h-0.2
					c0,0,0,0-0.2,0c0,0,0,0-0.2,0v0.3L32.1,47.5z M32.4,48.5h-0.3L32,48.6l0.2,0.2c0,0,0,0.2,0.2,0.2l0.2-0.2V48.5z M32.1,51.4
					l0.2,0.2l0.2-0.2l-0.2-0.2L32.1,51.4L32.1,51.4z M32.6,43.1h-0.3l-0.2,0.2v0.2l0.2,0.2h0.2L32.6,43.1L32.6,43.1z M32.3,50
					L32.3,50l0.2,0.3L32.3,50L32.3,50v-0.2V50z M32.7,44l0.2,0.2c0.2,0,0.3,0,0.3,0l0.2-0.2v-0.2h-0.2c0,0,0,0-0.2-0.2l-0.3-0.2l0,0
					V44z M32.7,45.1v0.2l0.2,0.2h0.3l0.2-0.2l0,0l-0.2-0.3L32.7,45.1L32.7,45.1z M32.7,47.8V48l0.3,0.2l0.2-0.2v-0.2L33,47.7h-0.2
					L32.7,47.8z M33,49.1C33,49.1,32.9,49.1,33,49.1c-0.2,0.2-0.2,0.2-0.3,0.2l0.3,0.3h0.2v-0.2L33,49.1z M32.9,51.8L32.9,51.8
					l0.2,0.3h0.2v-0.3H32.9z M33,50.9l0.2-0.2L33,50.6h-0.2v0.2L33,50.9z M33.5,42.5l-0.2-0.3h-0.2c0,0,0,0-0.2,0c0,0,0,0-0.2,0l0,0
					l0.2,0.2h0.2C33.3,42.6,33.3,42.6,33.5,42.5C33.3,42.5,33.5,42.5,33.5,42.5z M33.3,47.2c0,0.2,0.2,0.2,0.2,0.2
					c0.2,0,0.2,0,0.2,0.2h0.2v-0.5l-0.2-0.2h-0.2C33.5,47.1,33.5,47.1,33.3,47.2C33.5,47.2,33.3,47.2,33.3,47.2z M34,48.5l-0.2-0.2
					h-0.5v0.3l0.2,0.2c0,0,0,0,0.2,0.2h0.2l0.2-0.2L34,48.5L34,48.5z M33.3,50L33.3,50l0.3,0.2l0.2-0.2l-0.2-0.3h-0.3h-0.2L33.3,50
					L33.3,50z M33.5,51.4l0.2,0.2h0.2l0.2-0.2l-0.2-0.2L33.5,51.4L33.5,51.4z M33.6,52.9L33.6,52.9C33.8,52.9,33.8,52.9,33.6,52.9
					c0.2,0,0.2,0,0.3,0v-0.3l-0.2-0.2h-0.2c0,0,0,0-0.2,0c0,0,0,0-0.2,0L33.6,52.9L33.6,52.9z M33.5,45.9
					C33.5,45.9,33.6,46,33.5,45.9c0.2,0.2,0.2,0.2,0.2,0.3l0.2-0.2l0.2,0.2v-0.3v-0.2c0,0,0,0,0-0.2C33.8,45.7,33.6,45.7,33.5,45.9z
					 M34.3,46.6l-0.2-0.2c0,0,0-0.2-0.2-0.2v0.2L34.3,46.6L34.3,46.6z M34.6,47.8c0-0.2-0.2-0.2-0.2-0.2c-0.2,0-0.2,0-0.2-0.2l0,0
					h-0.2V48v0.2h0.3C34.4,48.2,34.4,48,34.6,47.8C34.6,48,34.6,48,34.6,47.8z M34.7,49.5c0-0.2-0.2-0.2-0.2-0.3
					c0-0.2-0.2-0.2-0.2-0.3h-0.2h-0.2v0.3l0.3,0.3H34.7l0.2,0.3V50l0.2,0.2h0.3l0.2-0.2v-0.2c0,0,0,0,0-0.2c0,0,0,0,0-0.2L34.7,49.5
					L34.7,49.5z M34.3,50.5l-0.2,0.2v0.2v0.2h0.2l0.2-0.2v-0.2L34.3,50.5z M34.6,51.7c-0.2,0-0.3,0.2-0.3,0.3l0.2,0.2l0.2-0.2V51.7z
					 M34.7,51.4L34.7,51.4c0,0.2,0,0.2,0,0.2s0,0,0,0.2c0.2,0,0.2,0,0.2,0H35l0,0l0,0v-0.3L34.7,51.4c0.2-0.2,0-0.2,0-0.3
					C34.9,51.1,34.9,51.2,34.7,51.4z M35,48.8L35,48.8c0.2-0.2,0.2-0.2,0.2-0.3L35,48.3c-0.2,0-0.2,0.2-0.2,0.3L35,48.8z M34.9,55.4
					L34.9,55.4l0.3-0.2L35,55.1h-0.2V55.4z M35,47.1L35,47.1l-0.2,0.3L35,47.1L35,47.1z M35.6,49.5C35.6,49.4,35.8,49.4,35.6,49.5
					c0.2-0.2,0.2-0.2,0.3-0.2v-0.3c-0.2,0-0.2,0-0.3,0v0.2V49.5L35.6,49.5c-0.2,0-0.2,0-0.2,0.2s0,0,0,0.2h0.2V49.5z M36.6,53.1
					v-0.6l-0.2-0.2h-0.5l-0.2-0.2c0,0,0-0.2,0-0.3c0-0.2,0-0.2,0-0.3h-0.5h-0.2V52v0.2h0.2l0.2,0.2h0.2c0.2,0.2,0.2,0.5,0.2,0.6h0.3
					L36.6,53.1z M35.8,56L35.8,56l-0.3-0.2l-0.2,0.3l0.2,0.2c0,0,0,0,0.2,0C35.6,56.3,35.6,56.1,35.8,56
					C35.8,56.1,35.8,56.1,35.8,56z M36.6,48.8v-0.2l0.2-0.2v-0.2l0,0h-0.5l-0.2-0.2v-0.3l-0.2-0.2h-0.2l0,0h-0.2V48l0.2,0.2
					c0,0,0,0,0.2,0.2c0.2,0,0.2,0,0.3,0c0,0.2,0,0.3,0,0.3s0.2,0,0.2,0.2s0,0.2,0,0.2L36.6,48.8L36.6,48.8
					C36.4,48.9,36.6,48.8,36.6,48.8z M35.5,54.6L35.5,54.6l0.3,0.3v-0.2L35.5,54.6L35.5,54.6z M35.5,50.5
					C35.6,50.6,35.6,50.6,35.5,50.5c0,0.2,0,0.2,0.2,0.3h0.2c0,0,0,0,0.2,0c0,0,0,0,0.2,0v-0.2L35.5,50.5L35.5,50.5z M35.8,53.5
					l0.2-0.2c-0.2-0.2-0.2-0.2-0.3-0.2l0,0l0,0L35.8,53.5L35.8,53.5L35.8,53.5z M35.9,58L35.9,58L35.9,58C35.8,58,35.8,58,35.9,58z
					 M36.6,51.7C36.6,51.7,36.6,51.5,36.6,51.7c0-0.2,0-0.2,0-0.2v-0.2v-0.2c0,0,0,0,0-0.2h-0.5v0.2v0.2v0.2v0.2H36.6z M36.6,55.2
					L36.6,55.2c-0.2-0.2-0.3-0.2-0.3-0.3h-0.2v0.3c0.2,0.2,0.2,0.2,0.2,0.3c0,0,0.2,0.2,0.3,0.2c0,0,0,0,0.2,0c0,0,0,0,0.2,0v-0.5
					H36.6z M36.4,56.4l-0.3,0.3l0.2,0.2c0,0,0,0,0.2,0.2h0.2l0.2-0.2C36.6,56.7,36.6,56.6,36.4,56.4z M36.3,49.7v0.2c0,0,0,0,0,0.2
					c0,0,0,0,0,0.2l0,0l0.2-0.2v-0.2C36.4,49.8,36.4,49.8,36.3,49.7c0.2,0,0.2,0,0.2-0.2L36.3,49.7L36.3,49.7z M36.4,53.8l-0.2,0.3
					l0.2,0.2c0,0,0.2-0.2,0.2-0.3L36.4,53.8z M36.7,51.8c0,0.2,0,0.2,0.2,0.3h0.3h0.2c0,0,0,0,0.2,0v-0.5H37L36.7,51.8z M36.9,49.2
					l0.2,0.2l0.3-0.3v-0.2h-0.2c0,0,0,0-0.2,0h-0.2V49.2z M37.3,50.6C37.2,50.6,37.2,50.6,37.3,50.6c-0.2-0.2-0.2-0.2-0.2-0.3
					l-0.3,0.2v0.2l0.2,0.2l0,0L37.3,50.6z M37.3,53.1h-0.5l0,0v0.3c0,0,0.2,0.2,0.2,0c0.2,0,0.2,0,0.2,0v-0.3H37.3z M37.2,56
					L37,55.8c-0.2,0-0.2,0.2-0.2,0.3l0.2,0.2C37,56.1,37,56.1,37.2,56C37.2,56.1,37.2,56.1,37.2,56z M37,57.5
					C37.2,57.5,37.2,57.5,37,57.5c0.2-0.2,0.2-0.2,0.3-0.2l-0.2-0.2h-0.3l-0.2,0.2L37,57.5z M37,54.4L37,54.4l0.2,0.3l0.2-0.2
					L37,54.4z M37.5,54.1l0.2,0.2h0.2l0.2-0.2c0,0,0,0,0.2-0.2l-0.2-0.2v-0.2l-0.5-0.2l0.2,0.2L37.5,54.1L37.5,54.1z M37.8,56.9
					l0.2-0.2l-0.2-0.2l-0.2,0.2L37.8,56.9C37.5,56.9,37.6,56.9,37.8,56.9z M37.8,51.1l-0.3,0.3v0.2l0.2,0.2l0.3-0.2v-0.2
					C37.9,51.2,37.8,51.1,37.8,51.1z M37.6,58.1l0.2-0.2v-0.2l-0.2-0.2l-0.2,0.2L37.6,58.1L37.6,58.1z M37.6,55.4
					C37.6,55.5,37.6,55.5,37.6,55.4c0.2,0.2,0.2,0.2,0.2,0.2h0.2L37.6,55.4l0.2-0.2L37.6,55.4L37.6,55.4z M38.1,48.3L38.1,48.3
					C37.9,48.3,37.9,48.3,38.1,48.3h-0.3V48h0.3V48.3L38.1,48.3L38.1,48.3z M38.1,57.4l0.2,0.2h0.3c0-0.2,0.2-0.2,0.2-0.3l-0.2-0.2
					h-0.3l0,0L38.1,57.4L38.1,57.4z M38.7,55.8h-0.3L38.1,56v0.3h0.2l0.2,0.2l0.3-0.2V55.8z M38.2,54.4v0.3c0,0,0.2,0.2,0.3,0.2l0,0
					l0.2-0.2v-0.3h-0.2H38.2z M39.3,48.6L39.3,48.6l-0.2-0.3h-0.3l-0.2,0.2v0.5l0.2,0.2l0.2-0.2h0.2L39.3,48.6z M38.9,50.3
					c0.2,0,0.2-0.2,0.3-0.2s0.2-0.2,0.2-0.2c-0.2-0.2-0.2-0.2-0.3-0.2l-0.3,0.3L38.9,50.3C38.7,50.1,38.7,50.1,38.9,50.3
					C38.9,50.1,38.9,50.3,38.9,50.3z M38.7,55.7h0.6l0,0v-0.3c0,0,0,0,0-0.2c0,0,0,0,0-0.2h-0.5l0,0L38.7,55.7L38.7,55.7z
					 M39.3,57.1c0-0.2,0-0.2,0-0.3l-0.2-0.2c0,0-0.2,0-0.2-0.2l-0.2,0.2v0.2l0.2,0.2L39.3,57.1L39.3,57.1z M39.5,55.7L39.5,55.7
					C39.5,55.8,39.5,55.8,39.5,55.7c0,0.3,0,0.5,0.3,0.6c0.2,0,0.2-0.2,0.3-0.5l-0.2-0.2L39.5,55.7L39.5,55.7z M39.9,46.6l-0.2-0.2
					l-0.3,0.2v0.2l0.2,0.2h0.2h0.2V46.6z M39.6,47.5L39.6,47.5L39.5,48l0.2,0.2l0.2-0.2c0,0,0.2,0,0.2-0.2v-0.3H39.6z M39.5,49.2
					l0.2,0.2l0.2,0.2l0.2-0.2c0,0,0,0,0.2-0.2l-0.2-0.2c0,0-0.2,0-0.2-0.2L39.5,49.2z M39.8,50.5C39.6,50.5,39.6,50.5,39.8,50.5
					c-0.2,0.2-0.2,0.2-0.2,0.3l0.2,0.2l0,0l0.2,0.2l0,0l0.2-0.2l-0.2-0.2L39.8,50.5L39.8,50.5z M39.8,45.1l-0.2,0.2v0.2l0,0l0.2-0.2
					V45.1z M40.7,55.1h-0.3l-0.3-0.2v-0.5c0.2,0,0.3,0,0.5,0.2v0.2L40.7,55.1L40.7,55.1L40.7,55.1z M40.6,47.4v-0.2c0,0,0,0,0-0.2
					s0,0,0-0.2h-0.5v0.2c0,0.2,0.2,0.2,0.3,0.3L40.6,47.4z M40.1,49.8L40.1,49.8l0.2,0.5h0.3v-0.5l-0.2-0.2L40.1,49.8
					C40.2,49.7,40.2,49.8,40.1,49.8z M40.1,51.7L40.1,51.7h0.3h0.2l0.2-0.2v-0.6h-0.3c0,0,0,0-0.2,0c0,0,0,0-0.2,0V51.7z M40.6,53.5
					h-0.3l0,0v-0.3l0.2-0.2h0.3l0.2-0.2l0,0L40.6,53.5L40.6,53.5z M40.6,45.9c-0.2-0.2-0.2-0.2-0.2-0.2l-0.2,0.2
					c0,0.2,0.2,0.2,0.3,0.2V45.9z M40.7,44.6l-0.2-0.2l0,0l-0.2,0.2v0.2h0.2L40.7,44.6z M40.7,48.8v-0.3h-0.3v0.3H40.7L40.7,48.8
					l0.2,0.6l0,0h0.3l0.2-0.2v-0.2l-0.2-0.2H41L40.7,48.8z M41.3,45.5L41.3,45.5c0.2-0.2,0.2-0.2,0.2-0.3c0-0.2,0-0.2,0-0.3h-0.3
					l-0.3,0.2v0.2c0.2,0,0.2,0,0.2,0.2S41.2,45.5,41.3,45.5z M40.9,52.6L40.9,52.6l0.6-0.2l0,0v0.5l0,0l0,0h-0.2c0,0,0-0.2-0.2-0.2
					H41v-0.2L40.9,52.6L40.9,52.6z M40.9,53.7h0.5V54l-0.2,0.2h-0.3l-0.2,0.2l-0.2-0.2L40.9,53.7L40.9,53.7z M41.2,46.5h-0.3v0.2
					l0.2,0.2h0.2l0.2-0.2l0,0L41.2,46.5z M41.3,47.8c-0.2-0.2-0.2-0.2-0.3-0.2l-0.2,0.2l0,0l0.3,0.3h0.2V47.8z M41.3,44.2v-0.3h-0.2
					C41,43.9,41,44,41,44.2l0.2,0.2h0.2V44.2z M42.1,42.2L42.1,42.2v-0.5l-0.2-0.2c-0.2,0-0.3,0-0.5,0.2V42c0,0,0,0,0,0.2
					c0,0,0,0,0,0.2h0.6V42.2z M42.1,42.8h-0.6l0,0v0.5v0.2h0.5v0.2h0.2V42.8z M41.6,44.3v0.5h0.5l0,0v-0.2v-0.2c0,0,0,0,0-0.2
					l-0.2-0.2h-0.2C41.6,44.2,41.6,44.2,41.6,44.3C41.6,44.2,41.5,44.2,41.6,44.3L41.6,44.3z M41.5,45.5
					C41.5,45.5,41.5,45.7,41.5,45.5c0,0.2,0,0.2,0,0.2v0.2l0.2,0.2c0,0,0,0,0.2,0.2l0,0l0.2,0.2h0.2v-0.6L41.5,45.5L41.5,45.5z
					 M42.1,47.5v-0.3v-0.2c0,0,0,0,0-0.2l-0.2-0.2h-0.5v0.5v0.2c0,0,0,0,0,0.2H42.1z M42.1,48.6c0-0.2,0-0.3,0-0.3h-0.5h-0.2v0.5
					l0.2,0.2h0.2L42.1,48.6z M42.1,50.3V50v-0.2v-0.2l-0.2-0.2h-0.5V50c0,0,0,0,0,0.2c0,0,0,0,0,0.2H42.1z M42.1,53.4
					c0,0.2,0,0.2-0.2,0.3h-0.6v-0.6c0,0,0,0,0.2,0c0,0,0,0,0.2,0c0.2,0,0.2,0,0.2,0.2C41.9,53.4,41.9,53.4,42.1,53.4z M42.7,41.4
					c0-0.2,0-0.2,0-0.3c0-0.2,0-0.2,0-0.3h-0.5l0,0v0.5l0.2,0.2L42.7,41.4l0.2,0.2v0.3C43,42,43,42,43.2,42l0.2,0.2l0.2-0.2v-0.6
					v-0.2H43L42.7,41.4z M42.1,42.2v0.6l0,0l0,0h0.2h0.2h0.2h0.2v-0.3C42.5,42.3,42.4,42.2,42.1,42.2z M42.5,44.2l0.3-0.3l0,0
					l-0.2-0.2l-0.3-0.2l-0.2,0.2l0.2,0.2L42.5,44.2C42.2,44,42.4,44,42.5,44.2C42.4,44,42.4,44,42.5,44.2z M42.7,44.9h-0.6l0,0v0.5
					l0.2,0.2h0.5l0,0V44.9z M42.5,46.9L42.5,46.9C42.7,46.9,42.7,46.9,42.5,46.9c0.2,0,0.2,0,0.3,0v-0.5v-0.2h-0.3l-0.2-0.2h-0.2
					v0.5l0,0L42.5,46.9L42.5,46.9z M44.8,48.9v-0.5l-0.2-0.2h-0.3l-0.3-0.2v-0.3l-0.2-0.2h-0.3l-0.2-0.2h-0.2V48l0.3,0.2
					c0.2,0,0.3,0,0.3,0v0.6h-0.3h-0.2c0,0,0,0-0.2,0v-0.2c0-0.2,0-0.2,0-0.2l-0.2-0.2h-0.6v-0.6l0,0h-0.5l0,0l0,0v0.6l0,0h0.6
					l0.2,0.2c0,0.2,0,0.2,0,0.3c0,0.2,0,0.2,0,0.2h0.6c0,0.2,0,0.3,0.2,0.5c0,0.2-0.2,0.2-0.2,0.2c-0.2,0-0.2,0-0.3,0.2v0.2L43,50
					l0.2,0.2h0.2v0.5c0,0,0.2,0.2,0.3,0.2s0.3,0.2,0.3,0l0.2-0.2v-0.3l0,0h-0.3l-0.2-0.2v-0.6c0.2,0,0.2,0,0.2-0.2c0,0,0.2,0,0.3,0
					l0,0v-0.6L44.8,48.9c0,0,0,0,0,0.2s0,0.3,0,0.3h0.5l0,0c0,0.2,0,0.3,0,0.3s0,0.2,0.2,0.3h0.2h0.2l0.2-0.2c0,0,0-0.2,0.2-0.3
					l-0.2-0.2c-0.2,0-0.2,0-0.3,0c-0.2,0-0.2,0-0.3,0v-0.2v-0.2v-0.2H45L44.8,48.9L44.8,48.9z M42.1,50.5v0.5l0.2,0.2h0.2l0,0l0,0
					v-0.3l-0.2-0.2h-0.2V50.5z M42.2,48.9C42.2,49.1,42.2,49.1,42.2,48.9c0,0.2,0,0.2,0,0.2v0.2c0.2,0,0.3,0.2,0.5,0.2
					c0-0.2,0-0.3,0-0.5c0,0,0,0,0-0.2c0,0,0,0,0-0.2h-0.5V48.9z M43.5,44.6C43.3,44.5,43.3,44.5,43.5,44.6c-0.2-0.2-0.2-0.2-0.2-0.3
					l0,0h-0.2c0,0-0.2,0-0.2,0.2v0.2v0.2h0.3l0.2,0.2h0.2L43.5,44.6L43.5,44.6z M43.2,40.8c0-0.2-0.2-0.2-0.3-0.3h-0.2v0.2l0.2,0.3
					L43.2,40.8L43.2,40.8z M43.5,46L43.5,46l-0.2-0.3c-0.2,0-0.2,0-0.2-0.2H43h-0.2v0.6L43.5,46v0.3V46z M43.2,51.4
					c0-0.2,0-0.3-0.2-0.3h-0.3l0,0v0.2l0.2,0.3L43.2,51.4z M43,52.5L43,52.5L43,52.5L43,52.5l0.2,0.3c0.2,0,0.3,0,0.3,0L43,52.5
					L43,52.5z M43.5,62l-0.2-0.2h-0.2c-0.2,0-0.2,0-0.2,0v0.6h0.5c0,0,0,0,0.2,0c0,0,0,0,0.2,0V62L43.5,62L43.5,62z M43,46.9
					l-0.2,0.2v0.2l0.2,0.2c0.2,0,0.3,0.2,0.3,0.2v-0.3L43,46.9L43,46.9L43,46.9z M43,43.4h0.3v-0.3l-0.2-0.2L43,43.1V43.4L43,43.4z
					 M43.3,63.5c-0.2-0.2-0.3-0.2-0.5-0.3v0.5H43L43.3,63.5z M45.8,46.2l0.3,0.2l0.2-0.2c0,0,0-0.2,0.2-0.2h0.2v-0.2
					c0,0,0.2-0.2,0.2-0.3c0.2-0.2,0.2-0.2,0.2-0.3l0,0l0,0l-0.2-0.2v-0.3h-0.2l-0.2,0.2c-0.2,0-0.2-0.2-0.2-0.3c-0.2,0-0.3,0-0.3,0
					s-0.2-0.2-0.3-0.3V44l0,0l0,0l0.2,0.2h0.3c0,0.2,0,0.2,0.2,0.2v0.2l0.2,0.2h0.2c0,0,0.2-0.2,0.3-0.3V44l-0.2-0.2l0.2-0.3l0,0
					l0.2-0.2v-0.3l0.2-0.2v-0.2L47,42.6l-0.2,0.2h-0.5c0,0.2,0,0.3,0,0.3s0,0.2-0.2,0.3c-0.2-0.2-0.3-0.2-0.5-0.3l-0.2,0.2l-0.2-0.2
					v-0.2l0.2-0.3h0.3l0.2,0.2v-0.6L45.9,42h-0.5l-0.2-0.3v-0.3h-0.5l-0.2,0.2c0,0.2,0,0.2,0,0.3c0,0.2,0,0.2,0,0.3l-0.2,0.2h-0.3
					l-0.2,0.2c0,0.2,0,0.2,0,0.2v0.2h0.5c0,0.2,0,0.2,0,0.3c0,0,0,0.2,0,0.3l-0.2,0.2h-0.5v-0.5v-0.2h-0.3l-0.2-0.2l-0.2,0.2v0.3
					l0.2,0.3c0.2,0,0.2,0,0.2,0h0.2l0.2,0.3V44h0.3l0.2,0.3l-0.2,0.2v0.2l0.2-0.2h0.3c0,0.2,0.2,0.2,0.2,0.3c0.2,0.2,0.2,0.2,0.3,0
					l0.2,0.2c0,0,0,0.2,0.2,0.2c0,0.2,0.2,0.3,0.3,0.3l0.2,0.2v0.3L45.8,46.2c0-0.2,0,0-0.2,0v0.2l-0.2,0.2L45.8,46.2z M43.5,40.8
					v0.2l-0.2,0.2v0.2l0.2,0.2h0.5l0,0v-0.3l-0.2-0.2h-0.2L43.5,40.8L43.5,40.8z M44.1,51.8l-0.2-0.2l-0.3-0.2l-0.2,0.3V52
					c0.2,0.2,0.2,0.2,0.2,0.3c0.2,0,0.3,0,0.3,0v0.2c0.2,0.2,0.3,0.3,0.5,0.5h0.2c0,0,0,0,0.2,0c0,0,0,0,0.2,0v-0.3l0.2-0.2
					l-0.2-0.2c-0.2,0-0.3-0.2-0.5-0.2C44.1,52.1,44.1,52,44.1,51.8z M44.1,44.2v-0.5v-0.2h-0.5v-0.2l0,0v0.5h0.2l0.2,0.2l0.2-0.2
					l0,0L44.1,44.2L44.1,44.2z M43.5,45.1c0,0.2,0,0.2,0,0.3h0.5l0.2,0.2l0,0l0,0v-0.3c0,0,0,0,0-0.2c0,0,0,0,0-0.2h-0.3L43.5,45.1z
					 M44.1,46.6v-0.2l-0.3-0.2h-0.2v0.3v0.2c0,0,0,0,0,0.2L44.1,46.6L44.1,46.6z M43.8,53.7l0.2-0.2l0.2-0.3v-0.2l-0.3-0.2h-0.2
					c0,0.2,0,0.2,0,0.2s0,0.2-0.2,0.2L43.8,53.7z M44.5,56.9L44.5,56.9l0.2-0.5c-0.2,0-0.2,0-0.3-0.2c-0.2,0-0.2-0.2-0.3-0.2v-0.5
					l-0.2-0.2l-0.2,0.2h-0.2v0.5v0.2c0.2,0,0.3,0,0.5,0.2c0.2,0,0.2,0.2,0.2,0.3C44.2,56.9,44.4,56.9,44.5,56.9
					C44.4,56.9,44.4,56.9,44.5,56.9z M43.9,57.5v-0.3c-0.2-0.2-0.3-0.2-0.5-0.2c0,0,0,0,0,0.2c0,0,0,0,0,0.2v0.2c0,0,0,0,0,0.2
					s0,0,0,0.2h0.3L43.9,57.5z M43.5,61.7h0.5l0.2-0.2v-0.2l-0.2-0.2h-0.5l0,0V61.7z M43.6,62.4L43.6,62.4c0,0.2,0,0.2,0,0.3
					c0,0,0,0.2,0,0.3l0.2,0.2h0.5v0.2l0,0v-0.6l0,0h-0.6V62.4z M43.5,60.3h0.3l0.3-0.3v-0.2c0,0,0,0,0-0.2c0,0,0,0,0-0.2
					c-0.2,0-0.5,0.2-0.5,0.3L43.5,60.3L43.5,60.3z M44.1,60.7v0.2h0.5l0,0l0,0c0-0.2,0-0.2-0.2-0.2l-0.2-0.2L44.1,60.7z M44.7,62.4
					V62l-0.2-0.2h-0.2c-0.2,0-0.2,0.2-0.3,0.3l0.2,0.3L44.7,62.4L44.7,62.4z M44.4,44.2l-0.3,0.2v0.6l0,0l0,0h0.2c0,0,0.2,0,0.2-0.2
					v-0.2l0.2-0.2L44.4,44.2L44.4,44.2L44.4,44.2z M44.5,46.2l0.3,0.2v0.3l0.2,0.2c0.2,0,0.3,0,0.5,0v-0.5l-0.2-0.2c0,0,0,0-0.2,0
					l-0.5-0.3v-0.2c0,0-0.2,0-0.2-0.2c0,0,0,0-0.2-0.2c-0.2,0-0.3,0-0.3,0v0.3l0.2,0.2h0.3V46.2z M44.4,50.3c0.2,0,0.2,0,0.3,0V50
					l0.2-0.2c0,0,0,0,0.2-0.2l-0.2-0.2c-0.2,0-0.3,0-0.5,0V50C44.2,50.1,44.2,50.1,44.4,50.3L44.4,50.3z M44.7,51.4
					c0-0.2,0-0.3,0-0.3h-0.3h-0.2c0,0,0,0-0.2,0v0.5l0.2,0.2c0.2,0,0.2,0,0.2,0s0.2,0,0.2,0.2s0,0.2,0.2,0.2v0.2v0.2h0.2l0.2-0.2
					l0.2-0.2v-0.2l-0.3-0.2c-0.2,0-0.3,0-0.3,0L44.7,51.4L44.7,51.4z M46.2,55.5v-0.5c-0.2,0-0.2-0.2-0.2-0.2s0-0.2-0.2-0.2
					l-0.2,0.2l-0.2-0.2v-0.2l-0.2-0.2h-0.3L45,54.3c0-0.2,0-0.5,0-0.5h-0.5v0.6c0.2,0,0.3,0,0.5,0l0.2,0.2v0.5h0.3l0.2,0.2
					c0,0,0.2,0,0.2,0.2v0.5c0,0,0.2,0,0.2,0.2h0.2l0.2,0.2l0.2,0.2v0.2l0.2,0.2c0,0,0.2,0,0.2,0.2h0.2c0,0,0,0,0.2,0c0,0,0,0,0.2,0
					v-0.5c-0.2,0-0.2,0-0.2-0.2C46.5,55.7,46.4,55.7,46.2,55.5L46.2,55.5z M44.5,59.2c-0.2,0-0.3,0.2-0.3,0.3l0.2,0.2h0.2l0.2-0.2
					L44.5,59.2L44.5,59.2z M44.5,47.5L44.5,47.5l0.2-0.5l-0.2-0.2h-0.2l-0.2,0.2v0.2L44.5,47.5z M44.2,58v0.2c0,0,0,0,0,0.2
					c0,0,0,0,0,0.2h0.2l0.2-0.3V58L44.2,58L44.2,58z M44.4,63.6C44.5,63.6,44.5,63.6,44.4,63.6c0.2-0.2,0.2-0.2,0.2-0.3l-0.2-0.2
					l-0.2,0.2L44.4,63.6C44.4,63.5,44.4,63.6,44.4,63.6z M44.7,45.2C44.8,45.2,44.8,45.2,44.7,45.2c0.2,0.2,0.2,0.2,0.2,0.2h0.3
					l0.2-0.2v-0.2l-0.2-0.2c0,0,0,0-0.2-0.2h-0.2c0,0,0,0-0.2,0c-0.2,0,0,0-0.2,0C44.8,45.1,44.8,45.1,44.7,45.2z M45.5,47.8
					C45.3,47.8,45.3,47.8,45.5,47.8c-0.2-0.2-0.3-0.2-0.3-0.3c-0.2,0.2-0.2,0.2-0.3,0.3V48l0.2,0.2h0.3l0,0L45.5,47.8L45.5,47.8z
					 M45.5,50.6c0-0.2,0-0.2,0-0.3h-0.3L45,50.5v0.2l-0.2,0.2l0.2,0.2h0.2C45.3,50.8,45.3,50.8,45.5,50.6
					C45.3,50.8,45.5,50.8,45.5,50.6z M45.5,54v0.3c0.2,0,0.3,0.2,0.5,0.3c0.2,0.2,0.3,0.3,0.3,0.3h0.3l0.2,0.2v-0.6
					c-0.3-0.2-0.5-0.2-0.6-0.3V54l-0.2-0.2c0,0,0,0,0-0.2l-0.3-0.2h-0.3v-0.5l-0.2-0.2h-0.3l-0.2-0.2v0.6c0.2,0,0.2,0,0.3,0
					c0.2,0,0.2,0,0.3,0L45.5,54z M45,57.7l0.2-0.2l0.2-0.2v-0.2l-0.2-0.2c0,0-0.2,0-0.2,0.2h-0.2v0.3L45,57.7z M45.2,63.2L45.2,63.2
					l0.2-0.5l-0.2-0.2H45l-0.2-0.2h-0.2v0.5V63L45.2,63.2L45.2,63.2z M45.5,42l-0.2,0.2h-0.2L45,42c0,0-0.2,0-0.2-0.2l0.2-0.3h0.3
					l0.2,0.2V42z M45.5,59v0.3l0.3,0.3h0.2v-0.3h-0.2C45.6,59.2,45.6,59,45.5,59l-0.2-0.2v-0.2c0,0-0.2,0-0.2-0.2L45,58.4
					c0,0-0.2,0.2-0.2,0.3c0.2,0.2,0.2,0.2,0.3,0.3L45.5,59L45.5,59z M45,61.5L45,61.5h0.3v-0.2l0,0l0,0L45,61.5z M45,42.8h0.3
					c0,0.2,0,0.3,0,0.3h-0.2L45,42.8L45,42.8L45,42.8z M45.3,64.1L45.3,64.1L45.3,64.1L45.3,64.1L45.3,64.1L45.3,64.1z M46.1,51.7
					c0-0.3,0-0.5,0-0.6h-0.5l-0.2,0.3l0.2,0.3H46.1V52l-0.2,0.2v0.3h-0.3l-0.2,0.2v0.3l0.3,0.3c0.2,0,0.3,0,0.5,0v-0.3l-0.2-0.2
					v-0.3l0,0h0.3l0.2-0.2C46.5,51.8,46.4,51.7,46.1,51.7z M46.1,40.8v-0.2l-0.2-0.2h-0.2l-0.3,0.2v0.2l0,0H46.1z M46.1,46.6v0.3
					l-0.2,0.2h-0.3l-0.2,0.3l0.3,0.3h0.2l0.2,0.2l0,0v-0.6c0.2,0,0.2-0.2,0.2-0.2s0.2,0,0.2-0.2l0,0l0.3-0.2v-0.2v-0.2h-0.2
					l-0.2,0.2L46.1,46.6L46.1,46.6z M45.5,48.5L45.5,48.5c0,0.2,0,0.2,0,0.2s0,0,0,0.2c0.2,0,0.3,0,0.5,0.2l0.2-0.2v-0.3l-0.2-0.2
					h-0.3L45.5,48.5z M45.9,63l-0.2,0.2L45.6,63h-0.2v0.3l0.2,0.2h0.2c0,0,0,0,0.2,0c0,0,0,0,0.2,0L45.9,63L45.9,63z M46.2,58.4v0.2
					c0,0,0,0.2,0.2,0.2l0.2,0.2c0,0,0.2,0,0.2,0.2h0.2v-0.3l-0.2-0.2C46.4,58.4,46.2,58.4,46.2,58.4v-0.2l-0.2-0.2V58l-0.2-0.2h-0.3
					L45.5,58v0.2l0.2,0.2h0.2l0.2,0.2H46.2z M45.8,60.7l0.2,0.2l0.2-0.2l-0.2-0.2h-0.2V60.7z M46.1,62.1L46.1,62.1l-0.5,0.2v0.2h0.3
					L46.1,62.1L46.1,62.1z M46.4,41.4h0.3l0.2,0.2v0.3c0,0,0,0,0.2,0c0,0,0,0,0.2,0h0.3c0,0,0,0,0.2,0c0,0,0,0,0.2,0v-0.5v-0.2h-0.5
					l-0.2-0.2v-0.3l0,0c-0.2,0-0.3,0-0.5-0.2h-0.2v0.5L46.4,41.4z M46.2,48.2h0.3l0.3-0.3c-0.2-0.2-0.3-0.3-0.5-0.3l-0.2,0.2
					L46.2,48.2L46.2,48.2z M46.2,53.5l0.8,0.8h0.3V54l-0.2-0.2h-0.3c0-0.2,0-0.2-0.2-0.3c0-0.2,0-0.2-0.2-0.3h-0.3L46.2,53.5
					L46.2,53.5L46.2,53.5z M46.4,57.2L46.4,57.2c-0.2,0.2-0.2,0.2-0.3,0.2v0.2l0.2,0.3c0.2,0,0.2,0,0.2,0s0.2,0,0.2-0.2L46.4,57.2
					C46.7,57.2,46.5,57.2,46.4,57.2C46.5,57.2,46.5,57.2,46.4,57.2z M46.5,62.7L46.5,62.7l-0.3-0.2l0,0V63h0.2L46.5,62.7L46.5,62.7
					L46.5,62.7z M46.2,49.2c0,0.2,0,0.2,0,0.3h0.3l0,0c0,0,0.2-0.2,0.3-0.2l-0.2-0.2l-0.2-0.2L46.2,49.2z M46.2,50.5v0.2
					c0,0.2,0.2,0.2,0.3,0.2l0.3-0.3v-0.2v-0.2c0,0,0,0,0-0.2c-0.2,0-0.2,0.2-0.2,0.2C46.4,50.5,46.4,50.5,46.2,50.5z M46.2,60.3
					l0.2,0.2h0.2l0.2-0.3L46.5,60c0,0-0.2,0-0.2-0.2L46.2,60.3L46.2,60.3z M46.4,61.3L46.4,61.3L46.4,61.3L46.4,61.3L46.4,61.3
					L46.4,61.3z M47,44.6L47,44.6c0.3-0.2,0.3-0.2,0.3-0.3l-0.2-0.2H47h-0.2l-0.2,0.2C46.8,44.5,46.8,44.5,47,44.6L47,44.6z
					 M47.5,46.2v-0.5v-0.2h-0.3L47,45.7V46l0,0h0.5L47.5,46.2L47.5,46.2z M47.1,48.3l-0.3,0.2v0.2l0.2,0.2c0.2,0,0.3,0,0.3,0
					l0.2,0.2v0.5l0,0l0,0h0.5l0,0l0,0c0-0.2,0-0.2,0-0.2s0-0.2-0.2-0.2c-0.2,0-0.2,0-0.2-0.2s-0.2,0-0.2,0l-0.2-0.2v-0.3l0,0h-0.2
					L47.1,48.3L47.1,48.3z M47.6,50.5v0.3c0.2,0,0.2,0.2,0.3,0.2h0.3v-0.2c0-0.2,0-0.5,0-0.5L47.6,50.5c0-0.3,0-0.3-0.2-0.5
					c0-0.2,0-0.3,0-0.3c-0.2,0-0.2,0-0.5,0l-0.2,0.2v0.3l0.2,0.2c0,0,0,0.2,0.2,0.2L47.6,50.5L47.6,50.5z M48.1,52.9h-0.5
					c0-0.2,0-0.2-0.2-0.3c0,0,0-0.2,0-0.3l-0.2-0.2h-0.2c0,0.2-0.2,0.2-0.2,0.3v0.2c0,0,0,0,0,0.2c0,0,0,0,0,0.2h0.5l0.2,0.2v0.5
					h0.3l0.2-0.2c0,0,0,0,0.2-0.2v-0.2L48.1,52.9z M46.8,55.1v0.5c0.2,0.2,0.3,0.2,0.5,0.2c0,0,0,0,0.2,0c0,0,0,0,0.2,0v-0.3
					l-0.2-0.2v-0.2h-0.2h-0.2H46.8z M46.8,56.6c0.2,0.2,0.3,0.3,0.5,0.5l0.3-0.2l-0.2-0.5l-0.3-0.2C47,56.4,47,56.6,46.8,56.6
					C47,56.6,46.8,56.6,46.8,56.6z M47.5,51.2C47.5,51.2,47.3,51.1,47.5,51.2c-0.2,0-0.2,0-0.3-0.2H47l-0.2,0.3l0.2,0.2v0.2l0.3,0.2
					h0.2V51.2z M47.1,63.3l-0.3,0.2l0.2,0.3h0.2h0.2c0,0,0,0,0.2,0v-0.2L47.1,63.3z M47.3,40.5l-0.2-0.2H47v0.2l-0.2,0.2v0.3H47
					c0,0,0,0,0.2,0c0,0,0,0,0.2,0V40.5z M47.1,47.4l0.3,0.2l0,0l0,0v-0.5l-0.2-0.2c-0.2,0-0.2,0.2-0.3,0.3L47.1,47.4z M47.6,57.7
					L47.6,57.7l-0.2-0.2l-0.2,0.2L47.1,58l0.3,0.3l0,0l0.2,0.2c0-0.2,0.2-0.3,0.2-0.3C47.6,58,47.6,57.8,47.6,57.7L47.6,57.7
					l0.3-0.2l0.3-0.2v-0.2l-0.2-0.3l-0.3,0.2L47.6,57.7L47.6,57.7z M47.1,59.2L47.1,59.2C47,59.4,47,59.5,47,59.5l0.2,0.2l0.2-0.2
					c0.2,0,0.2-0.2,0.2-0.2s0,0,0-0.2c0,0,0,0,0-0.2h-0.3V59.2z M47.5,43.4v-0.2c0,0,0,0,0-0.2c0,0,0,0,0-0.2l-0.2,0.2h-0.2l0,0l0,0
					L47.5,43.4L47.5,43.4z M47.3,60.7L47.3,60.7L47.3,60.7l-0.2,0.2L47.3,60.7L47.3,60.7z M47.9,54.9C47.9,54.9,48.1,54.9,47.9,54.9
					c0.2-0.2,0.2-0.2,0.2-0.3l0,0c0,0-0.2,0-0.2-0.2l-0.2-0.2l-0.2,0.2l-0.2-0.2l-0.2,0.2l0.2,0.3h0.5L47.9,54.9L47.9,54.9z
					 M47.6,40.8C47.6,40.9,47.6,40.9,47.6,40.8c0,0.2,0,0.2,0,0.2v0.2v0.2c0,0,0,0,0,0.2h0.2c0.2,0,0.2,0,0.2,0h0.2v-0.3
					C47.9,40.9,47.8,40.8,47.6,40.8z M48.1,46.8c-0.2-0.2-0.3-0.3-0.5-0.3h-0.2v0.2v0.2l0.2,0.2h0.2h0.2v-0.2L48.1,46.8L48.1,46.8z
					 M47.9,48.3C47.9,48.2,48.1,48.2,47.9,48.3c0.2-0.2,0.2-0.2,0.2-0.3v-0.3h-0.2h-0.2h-0.3l0,0v0.5l0.2,0.2L47.9,48.3L47.9,48.3z
					 M48.1,42.8c0-0.2,0-0.2,0-0.3c0-0.2,0-0.2,0-0.3l0,0h-0.2L47.8,42h-0.2l0,0v0.5l0.2,0.2L48.1,42.8L48.1,42.8z M47.8,58.4
					l-0.2,0.3V59c0,0,0,0,0.2,0c0,0,0,0,0.2,0h0.2c0,0,0.2,0,0.2-0.2v-0.5l0,0L47.8,58.4L47.8,58.4z M47.6,45.2l0.2,0.2l0.2-0.2
					v-0.2l-0.2-0.2C47.8,44.9,47.6,45.1,47.6,45.2z M47.8,56.3l0.2-0.2l0.2-0.2v-0.2h-0.3L47.6,56L47.8,56.3L47.8,56.3z M47.9,61.3
					L47.9,61.3v0.2h0.2L47.9,61.3L47.9,61.3z M48.5,58.3l0.3-0.2V58l-0.3-0.2c0,0,0,0.2-0.2,0.2l-0.2,0.2L48.5,58.3z M48.5,63.3
					L48.5,63.3v0.3h0.2l0.2-0.2v-0.2L48.5,63.3L48.5,63.3z M48.5,54h0.3v-0.3h-0.2L48.5,54L48.5,54z M48.5,59.4v0.3l0,0l0,0l0.3-0.2
					L48.5,59.4L48.5,59.4z M48.7,60.7L48.7,60.7l-0.2-0.2L48.7,60.7L48.7,60.7z M48.8,51.4L48.8,51.4L48.8,51.4L48.8,51.4z
					 M48.7,62.1C48.8,62.1,48.8,62.1,48.7,62.1L48.7,62.1L48.7,62.1z"/>
				<path class="st3" d="M59.1,39.9v-0.3l0.2-0.2h0.3c0.2,0,0.2,0.2,0.2,0.2c0,0.2,0.2,0.2,0.2,0.3h0.5c0-0.2,0-0.2,0-0.3h0.2H61
					c0,0.2,0,0.2,0.2,0.2l0.2,0.2c0,0,0.2,0,0.2,0.2h0.2c0,0,0,0.2,0,0.3l-0.2,0.2h-0.3c0-0.2,0-0.2-0.2-0.2v-0.2
					c-0.2,0-0.3,0.2-0.3,0.2s-0.2,0.2-0.2,0.3l0.2,0.2c0.2,0,0.2,0,0.2,0s0.2,0,0.2,0.2s0.2,0.3,0.3,0.6h0.3l0.5-0.5v-0.3h0.2
					l0.2-0.2c0-0.2,0.2-0.2,0.2-0.3l-0.2-0.2h-0.5c-0.2-0.2-0.3-0.5-0.5-0.8v-0.2c0,0,0.2,0,0.3,0l0.2,0.2h0.3l0.2-0.2h0.3l0.2-0.2
					l0.2,0.2l0,0l-0.2,0.2l0,0v0.5h0.2l0.2,0.2l0.2-0.2v-0.2l0.3-0.2h0.3v0.2c0,0,0,0.2,0.2,0.2V40c0.2,0,0.3,0,0.6,0v0.6
					c0,0-0.2,0.2-0.2,0c-0.2,0-0.2,0-0.2,0s-0.2,0.2-0.2,0.3c0,0.2,0,0.2,0,0.3h0.3l0.2,0.2c0,0,0.2,0,0.2,0.2s0,0.2,0,0.3
					c0,0.2,0,0.2,0,0.3h0.3l0.2-0.2c0,0,0,0,0.2-0.2v-0.3v-0.2h-0.5l-0.2-0.2l0.2-0.2v-0.5c0,0,0.2,0,0.3,0s0.2,0,0.3,0v-0.3
					l0.2-0.2c0.2,0,0.2,0,0.2-0.2l0.2,0.3c0,0.2-0.2,0.2-0.2,0.2c-0.2,0-0.2,0-0.3,0.2v0.5c0,0,0.2,0.2,0.3,0c0.2,0,0.3,0,0.3,0v0.3
					l0.2,0.3h0.3h0.2v-0.5h-0.2h-0.3l-0.2-0.2v-0.5l0.2-0.2h0.2c0.2,0.2,0.2,0.3,0.3,0.3l0,0l0.5,0.3v0.2l0.2,0.2v0.3
					c0,0.2,0.2,0.2,0.2,0.2c0.2,0,0.2,0.2,0.2,0.2l-0.2,0.2l-0.2,0.2v0.3c0,0.2,0.2,0.2,0.2,0.3c0.2,0.2,0.3,0.2,0.3,0.3v0.2
					l0.2,0.2c0,0,0,0.2,0.2,0.2h0.3l0.2,0.2v0.6c0.2,0,0.2,0,0.2,0.2l0.2,0.2v0.3c-0.2,0.2-0.3,0.3-0.5,0.3c-0.2,0-0.2,0.2-0.2,0.5
					L68.2,46l0.2,0.2c0.2,0,0.2,0,0.3-0.2h0.2h0.2c0.2,0.2,0.2,0.3,0.2,0.5l-0.3,0.3h-0.3c-0.2,0-0.2-0.2-0.3-0.2
					c-0.2,0-0.2-0.2-0.2-0.3h-0.2c0,0-0.2,0-0.2,0.2c-0.2,0.2-0.3,0.2-0.5,0.2l-0.3-0.3v-0.2h-0.3l-0.2,0.2v0.3l-0.2,0.2h-0.5
					l-0.2-0.2v-0.3l0.2-0.2h0.5c0-0.2,0-0.2,0-0.3c0-0.2,0-0.2,0-0.3l-0.2-0.2H66c-0.2,0-0.2,0-0.2,0c0,0.2-0.2,0.2-0.2,0.3h-0.3
					l-0.2,0.2c0-0.2-0.2-0.3-0.2-0.3l-0.2-0.2c0,0-0.2,0.2-0.3,0.3v0.2L64.5,46h-0.3L64,45.9l-0.2-0.2l-0.3-0.2h-0.2v0.2l0.2,0.2
					l0.2,0.2l0.2,0.2v0.5c0,0,0,0,0.2,0c0,0,0,0,0.2,0c0.2,0,0.3-0.2,0.5-0.3s0.2-0.3,0.3-0.3c0.2,0,0.2,0.2,0.3,0.2s0.2,0,0.3,0
					l0.2,0.2h0.2l0.2,0.2l-0.2,0.3h0.3v0.3L66,47.2h-0.3l-0.2,0.2l-0.2,0.2h-0.5l-0.2-0.2v-0.2l-0.3-0.3h-0.2l-0.2-0.2
					c0,0,0,0-0.2,0l-0.2-0.2v-0.5c-0.2,0-0.2,0.2-0.3,0.2v0.2c-0.2,0.2-0.2,0.2-0.3,0.3l-0.2-0.2c-0.2,0-0.2,0-0.2-0.2
					s-0.2-0.2-0.2-0.2v0.2l-0.2,0.2l-0.2-0.2h-0.2c-0.2-0.2-0.2-0.3-0.3-0.5l0.2-0.2h0.2l0.2,0.2l0.2-0.2v-0.2
					c-0.2-0.3-0.3-0.3-0.6-0.3c0,0.2,0,0.2,0,0.2v0.2c-0.2,0-0.2,0-0.3,0v-0.2c0-0.2,0-0.2,0-0.2s0.2-0.2,0.3-0.3v-0.3l-0.3-0.2
					l-0.2,0.2h-0.3l-0.2-0.2v-0.2l0.2-0.2l0.2-0.2v-0.3h-0.2h-0.5v-0.3l-0.2-0.2c0,0,0-0.2-0.2-0.2H60v0.5c0.2,0,0.2,0,0.3,0
					l0.2,0.2h0.3v0.3l0.2,0.2v0.2l-0.2,0.2l0.2,0.2l0,0h-0.6l-0.2-0.2l0.2-0.2l-0.2-0.2H60c-0.2-0.2-0.2-0.3-0.3-0.3h-0.2l-0.2-0.2
					v-0.2l-0.3-0.3L59,43.6l-0.2,0.2l0.2,0.2h0.2c0.2,0,0.2,0.2,0.3,0.3h0.2v0.2h0.2v0.2l0.2,0.2h0.3C60,44.8,60,44.9,60,44.9
					s0,0.2-0.3,0.3h-0.5c-0.2,0.3-0.3,0.6-0.6,0.9v0.2c0,0,0,0.2-0.2,0.2l0.2,0.2l0.2,0.2v0.5c-0.2,0-0.3,0.2-0.3,0.2v0.5
					c0.2,0,0.2,0.2,0.3,0.2h0.3l0.2,0.2c0,0,0-0.2,0-0.3l-0.2-0.2v-0.3L59,47.2h0.2c0.2,0,0.2,0.2,0.3,0.2c0.2,0,0.2,0.2,0.3,0.2
					v0.2c0,0.2,0,0.3-0.2,0.3c-0.2,0-0.2,0-0.2,0.2h-0.2v0.2l0.2,0.2l0.2-0.2c0.2,0,0.2,0,0.2-0.2H60V48h0.2h0.2v0.3l0.2,0.2v0.2
					h0.2c0.2,0,0.2,0,0.3,0c0,0,0.2,0,0.3,0.2v0.3c0,0,0.2,0,0.2,0.2c0,0,0.2,0,0.2,0.2h0.2l0.2-0.2v-0.2l0.2-0.2h0.5v0.2v0.2
					c0.2,0.2,0.2,0.2,0.3,0.2c0,0,0.2,0,0.3,0l0.2-0.2l-0.2-0.2v-0.3h0.2h0.2l0.2,0.2c0,0,0.2,0,0.2,0.2s0.2,0.3,0.2,0.3H64l0.2,0.2
					h0.2l0.2-0.2v-0.2h0.2h0.2h0.2l0.3,0.3v0.2c0.2,0.2,0.3,0.2,0.5,0.2l0.2,0.2c0.2,0.3,0.5,0.5,0.8,0.5l0.3,0.5h0.5v0.2l0.2,0.2
					l-0.2,0.2v0.2h0.2l0.2-0.2h0.2l0.2-0.2h0.2v0.2L68,51.5v0.2l-0.2,0.2v0.3l0,0h0.5l0.2-0.2l0.3,0.3l-0.2,0.2v0.5l0.2,0.2h0.3
					l0.2,0.2v0.5l0.2,0.2V54h0.2c0,0,0.2,0,0.2,0.2v0.3l-0.2,0.2h-0.2c0,0,0,0.2,0,0.3l0.2,0.2h0.2l0.2-0.2h0.3l0.2-0.2v0.2
					l-0.2,0.2v0.3L70,55.5v0.3c-0.2,0.2-0.2,0.2-0.3,0.3c-0.2,0-0.3,0.2-0.3,0.3v0.2h0.3l0.3,0.2v0.2c0,0,0.2,0.2,0.2,0.3
					s0,0.2,0,0.3l0.2,0.2h0.2l0.2,0.2v0.3l-0.2,0.3v0.2l0.2,0.2V59l-0.3,0.2c0,0,0,0.2-0.2,0.2H70c0,0-0.2,0.2,0,0.3
					c0,0.2,0,0.2,0,0.2c-0.2,0.2-0.5,0.3-0.6,0.5v0.2c-0.2,0.2-0.2,0.2-0.3,0.2s-0.2,0.2-0.3,0.2v0.6l0.2,0.2l0,0l-0.2,0.2l-0.2-0.2
					l-0.2,0.2c0-0.2-0.2-0.2-0.2-0.2H68l-0.2,0.2l0.3,0.3h0.3l0.2,0.3v0.3c0,0-0.2,0-0.3,0l-0.2-0.2h-0.3c-0.2,0-0.2,0.2-0.2,0.3
					h-0.2c0,0-0.2,0-0.2,0.2h-0.2L67.1,63v0.3l-0.2,0.3h-0.3v-0.2l-0.2,0.2l-0.2-0.2v-0.3L66,62.9L65.9,63c0,0,0,0-0.2,0.2l0.2,0.3
					h0.3c0,0.2,0,0.2,0,0.3c0,0.2,0,0.2,0,0.3h-0.3l-0.2,0.2h-0.5c0,0.2-0.2,0.3-0.3,0.3h-0.3v-0.2c-0.2,0-0.2,0-0.2-0.2h-0.2
					l-0.2,0.2c0,0,0,0-0.2,0.2v0.2l-0.2,0.2h-0.6l-0.2-0.2l-0.2,0.2h0.2l-0.2,0.3c-0.2-0.2-0.3-0.2-0.3-0.3h-0.5l-0.3-0.3
					c-0.2,0-0.2,0-0.2,0.2c0,0,0,0.2-0.2,0.2v0.3l0,0h-0.2c-0.2,0-0.2,0-0.2-0.2c0,0,0-0.2-0.2-0.2H61l-0.2-0.2
					c-0.2,0-0.2,0-0.2,0.2S60.5,65,60.5,65H60l-0.2-0.2h-0.2l-0.2-0.2c-0.2,0-0.3,0.2-0.3,0.3h-0.5l-0.2-0.2l-0.2-0.2H58l-0.2-0.2
					h-0.2l-0.2-0.2h-0.2h0.2v0.2h-1.2L56,65l-0.2-0.2c0-0.2-0.2-0.2-0.2-0.2h-0.5L54.5,64c0-0.2,0-0.2,0-0.3v-0.2l-0.2-0.2
					c-0.2,0-0.2-0.2-0.3-0.2v-0.5h0.2l0.2-0.2l-0.2-0.2c0,0,0,0-0.2-0.2c-0.2,0-0.2,0-0.3,0.2l-0.2,0.2l-0.2-0.3l0.2-0.2L53.4,62
					l0,0l-0.2-0.3l-0.2,0.2h-0.5l-0.2-0.2V61l-0.2,0.2h-0.3L51.7,61c0,0-0.2-0.2-0.2-0.3c-0.2-0.2-0.2-0.2-0.3-0.2l-0.2-0.2v-0.3
					c0.2-0.2,0.2-0.3,0.5-0.5c0.3-0.2,0.3-0.3,0.5-0.3l0.2-0.2c0,0,0-0.2,0.2-0.2v-0.2c0.2,0,0.2,0,0.3,0s0.2,0,0.3,0V59l0.3,0.2
					c0-0.2,0.2-0.2,0.3-0.2c0.2,0,0.2-0.2,0.3-0.2h0.3c0.2,0,0.2-0.2,0.2-0.2c0-0.2,0-0.2,0.2-0.3H55c0.2,0,0.2,0.2,0.2,0.2l0.2,0.2
					l0.2-0.3l-0.2-0.2c0-0.2,0-0.3,0-0.5c0.2,0,0.3,0.2,0.3,0.2s0.2,0,0.5,0c0.2,0,0.2-0.2,0.2-0.3c0-0.2,0.2-0.2,0.2-0.2h0.3
					c0.2,0.2,0.2,0.2,0.3,0.2l0.2-0.2h0.2l0.2-0.2h0.3c0.2,0,0.2,0.2,0.3,0.3c0.2,0.2,0.3,0.3,0.3,0.3h0.5c0.2,0.2,0.2,0.2,0.2,0.3
					l0.2,0.2l0.2-0.2h0.2l0.2-0.2h0.2c0,0.2,0.2,0.3,0.2,0.3H60c0,0,0,0.2,0.2,0.2h0.2l0.2,0.2c0,0,0,0,0.2,0.2V59l0.2,0.2H61h0.3
					c0.2,0,0.2-0.2,0.2-0.2s0-0.2,0.2-0.3l0.2-0.2H62v-0.2c0,0,0,0,0.2-0.2v-0.2l-0.3-0.3h-0.2c0-0.2-0.2-0.2-0.2-0.3v-0.3l0.2-0.2
					H62v-0.2l-0.2-0.2c0,0,0,0,0-0.2h-0.2l-0.2-0.2h-0.3l-0.2,0.2H61l0.2-0.2v-0.3l0.2-0.2l-0.2-0.3h-0.3l-0.3-0.2
					c0-0.2-0.2-0.3-0.2-0.5H60l-0.2,0.2h-0.2l-0.2,0.2h-0.2l-0.2-0.2l-0.2-0.2c-0.2,0-0.2,0.2-0.3,0.2c-0.2,0-0.2,0.2-0.3,0.2H58
					c0-0.2-0.2-0.2-0.2-0.2c-0.2,0-0.2-0.2-0.2-0.2c-0.2,0.2-0.3,0.3-0.5,0.3H57l0,0v-0.6h0.2h0.2l0,0l0,0v-0.6c0,0-0.2,0-0.3,0
					l-0.2,0.2l-0.2,0.2h-0.3c-0.2-0.2-0.2-0.2-0.3-0.3C55.9,54,55.7,54,55.6,54l-0.3-0.3v-0.2l-0.2-0.2H55l-0.2-0.2
					c0,0-0.2,0-0.2-0.2v-0.3l-0.2-0.2H54v0.3l-0.2,0.2h-0.3l0.2-0.3H54v-0.2v-0.2l-0.2-0.2h-0.3l-0.2-0.2c0,0,0,0-0.2-0.2v-0.2
					l-0.2-0.2v-0.2c-0.2-0.2-0.2-0.2-0.3-0.2c0-0.2,0-0.3,0-0.3c0-0.2,0-0.2,0-0.3l0.2-0.2h0.2h0.2v-0.2V50H53h-0.2v0.3
					c0,0,0,0-0.2,0c0,0,0,0-0.2,0s-0.2,0-0.3-0.2c0-0.2,0.2-0.2,0.2-0.2c0.2,0,0.2-0.2,0.2-0.2c0-0.2,0-0.3-0.2-0.5
					s-0.3-0.2-0.3-0.3v-0.5l0.2-0.2h0.3l0.3,0.3l0.2-0.2v-0.2l-0.2-0.2h-0.2v-0.2V48l-0.2,0.2c-0.2,0-0.3-0.2-0.3-0.3v-0.2
					c0,0,0-0.2,0.2-0.2h0.2l0.2-0.2l0.2,0.2V48c0,0,0.2,0,0.3,0l0.2-0.3v-0.3c0,0-0.2,0-0.3,0c-0.2,0-0.2,0-0.3,0
					c-0.2-0.2-0.2-0.3-0.2-0.5l-0.2-0.2l-0.2-0.2c-0.2-0.2-0.2-0.2-0.2-0.3c0-0.2,0-0.2,0-0.3l0.2-0.2c0,0,0.2,0,0.3-0.2v-0.2
					l0.2-0.2v-0.3h0.2l0.2,0.2h0.3l0.3-0.2v-0.2c0.2,0,0.2-0.2,0.3-0.3h0.3l0.2-0.2v-0.6c0,0-0.2,0-0.2-0.2c0,0-0.2,0-0.2-0.2
					l-0.2-0.3v-0.2c0,0,0,0,0-0.2l0.2-0.2c0.2,0,0.2-0.2,0.3-0.5l-0.2-0.2v-0.3l0,0l0.2,0.2h0.3v-0.2l-0.2-0.2v-0.5l0.2-0.2
					c0,0,0.2,0,0.2-0.2h0.3c0-0.2,0-0.3,0.2-0.5l0.3-0.2c0.2,0,0.2,0.2,0.2,0.2c0,0.2,0,0.2,0.2,0.2h0.3c0,0,0.2,0,0.2-0.2
					s0-0.2,0.2-0.2l-0.2-0.2H56l0,0v-0.3l0.2-0.2h0.3l0.2,0.2c0,0,0,0,0.2,0.2h0.3l0.2-0.2v-0.3c-0.2,0-0.2-0.2-0.3-0.2v-0.2
					c0,0,0,0,0-0.2c0,0,0,0,0-0.2c0,0.2,0.2,0.2,0.3,0.3h0.6L58,39v-0.3l0.2-0.2h0.5c0,0.2,0.2,0.3,0.2,0.3c0.2,0.2,0.2,0.3,0.3,0.3
					l0,0v0.6l0,0h0.5l0.2-0.2v-0.2c0,0,0-0.2-0.2-0.2s-0.2,0-0.2-0.2h-0.3L59.1,39.9L59.1,39.9z M52.1,59.5l-0.3-0.2l-0.2,0.2
					c0,0,0.2,0.2,0.3,0.3h0.2V59.5z M53,45.9L53,45.9c0.2,0.2,0.2,0.2,0.2,0.3h0.2v-0.3l-0.2-0.2L53,45.9L53,45.9z M54.2,46.8
					L54.2,46.8l-0.3,0.2l0,0l-0.2,0.2v0.3c0.2,0,0.2,0,0.3,0s0.2,0,0.3,0L54.2,46.8L54.2,46.8z M54.4,50v-0.6l0,0h-0.2l-0.5,0.5V50
					L54.4,50L54.4,50z M53.9,60.3l-0.2,0.2v0.2h0.2c0,0,0,0,0.2,0s0,0,0.2,0v-0.2L53.9,60.3z M54.4,50.8c0,0-0.2,0-0.2-0.2h-0.2l0,0
					l0,0v0.2l0.2,0.2c0,0,0,0.2,0.2,0.2h0.2C54.4,51.1,54.4,50.9,54.4,50.8z M54.1,59.4C54.1,59.4,54.1,59.2,54.1,59.4
					c0-0.2,0.2-0.3,0.2-0.3l0,0l0,0h-0.2V59.4L54.1,59.4c-0.2,0-0.2,0-0.2,0.2c0,0,0,0,0,0.2h0.2V59.4z M54.2,48l-0.3,0.2
					c0,0.2,0.2,0.2,0.2,0.3c0,0.2,0.2,0.2,0.2,0.2h0.2l0,0v-0.5L54.2,48z M55,43.9L55,43.9c0-0.2,0-0.3,0-0.3v-0.2v-0.2h-0.5l0,0
					v0.3l0.2,0.2H55L55,43.9L55,43.9z M54.7,44.6L54.7,44.6C54.5,44.6,54.5,44.6,54.7,44.6c-0.2,0-0.2,0-0.3,0v0.5l0.3,0.2H55l0,0
					l-0.2-0.2v-0.3L54.7,44.6L54.7,44.6L54.7,44.6z M54.5,47.4L54.5,47.4L54.5,47.4L54.5,47.4c0,0,0,0.2,0,0.3l0.3,0.2
					c0.2,0,0.2-0.2,0.2-0.3L54.5,47.4L54.5,47.4z M55,48.8h-0.5v0.2v0.2l0,0l0,0h0.2l0.3-0.2L55,48.8L55,48.8z M54.5,50
					C54.5,50,54.4,50,54.5,50C54.4,50.1,54.4,50.1,54.5,50v0.3c0,0,0,0,0,0.2c0,0,0,0,0,0.2c0.2,0,0.2,0,0.3,0c0,0,0,0,0.2,0
					l0.2-0.2V50l-0.3-0.2h-0.3V50z M54.5,46.5h0.3c0.2,0,0.2-0.2,0.3-0.3L55,46c-0.2,0-0.2,0.2-0.3,0.2
					C54.5,46.2,54.5,46.2,54.5,46.5L54.5,46.5z M54.7,52c0.2,0,0.2-0.2,0.3-0.5v-0.2h-0.3l-0.2,0.2v0.2C54.5,51.8,54.7,51.8,54.7,52
					z M54.8,59.8c-0.2-0.2-0.2-0.2-0.2-0.3h-0.2v0.2v0.2L54.8,59.8L54.8,59.8z M54.5,61.2l0.2,0.2c0.2,0,0.2,0,0.2-0.2L54.7,61
					L54.5,61.2z M54.7,62.3L54.7,62.3c-0.2,0.2-0.2,0.2-0.3,0.2l0.2,0.2l0.2-0.2V62.3z M55,58.6L55,58.6c0-0.2,0-0.2,0-0.2
					s0,0,0-0.2h-0.2c0,0,0,0-0.2,0c-0.2,0,0,0-0.2,0v0.2L55,58.6L55,58.6z M55.1,42.6v0.6h0.3l0.2,0.2h0.2c0,0,0,0,0.2,0
					c0,0,0,0,0.2,0v-0.2c-0.2,0-0.2-0.2-0.2-0.2S55.3,42.6,55.1,42.6L55.1,42.6z M55.4,44.5l0.3-0.3V44c0,0,0,0,0-0.2c0,0,0,0,0-0.2
					h-0.3l-0.2,0.2L55.1,44l0.2,0.2h0.2V44.5z M55.7,45.9v0.5l0.2,0.2h0.3l0.2-0.2v-0.2L56.2,46H56L55.7,45.9v-0.2l-0.2-0.2v-0.2
					l0,0h-0.5H55l0.2,0.2v0.3C55.3,45.9,55.4,45.9,55.7,45.9z M55.9,47.4L55.9,47.4l-0.2-0.5l-0.2-0.2v-0.2l-0.2-0.2h-0.3L55,46.8
					c0.2,0.2,0.2,0.2,0.2,0.3h0.2l0.2,0.2L55.9,47.4L55.9,47.4v0.3c0,0.2,0.2,0.2,0.3,0.2l0.2-0.2v-0.2l-0.2-0.2L55.9,47.4
					L55.9,47.4z M55.3,48.6c0.2,0,0.3-0.2,0.3-0.3l-0.3-0.2l-0.2,0.2c0,0,0,0-0.2,0.2L55.3,48.6z M55.4,49.8l0.2-0.2v-0.2l-0.2-0.2
					h-0.3v0.5l0,0L55.4,49.8L55.4,49.8z M55.6,50.8h-0.5l0,0v0.3l0.2,0.2c0.2,0,0.2-0.2,0.3-0.2L55.6,50.8L55.6,50.8z M55.4,52.8
					L55.4,52.8l0.2-0.5h-0.3l-0.2,0.2v0.3H55.4C55.1,52.6,55.3,52.8,55.4,52.8L55.4,52.8z M55.1,63c0.2,0.2,0.3,0.3,0.3,0.3l0.3-0.3
					v-0.2c0,0,0,0,0-0.2s0,0,0-0.2c-0.2,0-0.2,0-0.2,0h-0.2l0,0l0,0V63L55.1,63L55.1,63z M55.4,41.6l-0.2-0.2l-0.2,0.2H55.4
					C55.3,41.6,55.3,41.6,55.4,41.6C55.3,41.6,55.3,41.6,55.4,41.6z M55.6,60.4L55.6,60.4c0-0.2,0-0.2,0-0.2s0,0,0-0.2h-0.2
					l-0.3,0.2v0.2l0.3,0.3L55.6,60.4z M55.4,61.7l-0.2,0.2l0.2,0.3h0.3v-0.3L55.4,61.7z M55.4,58.9L55.3,59l0.2,0.2
					C55.4,59.2,55.6,59,55.4,58.9L55.4,58.9z M56.2,45.1L56.2,45.1L56,44.8h-0.2h-0.2c0,0,0,0-0.2,0v0.2c0,0.2,0,0.2,0,0.2h0.2
					C56,45.2,56,45.1,56.2,45.1L56.2,45.1z M55.9,42L55.9,42L55.9,42v0.3l0.2,0.2c0,0,0,0,0.2,0.2l0.2-0.2v-0.2c0,0-0.2,0-0.2-0.2
					C56,42,55.9,42,55.9,42z M56.2,53.1c-0.2-0.2-0.2-0.2-0.3-0.2l0,0l-0.2,0.2v0.2c0,0,0,0,0,0.2c0,0,0,0,0,0.2h0.2c0,0,0,0,0.2,0
					c0.2,0,0,0,0.2,0V53.1z M56,43.9l0.2-0.3L56,43.2h-0.2c0,0,0,0-0.2,0c0,0,0,0-0.2,0v0.5L56,43.9L56,43.9z M56.4,49.1
					c-0.2-0.2-0.2-0.2-0.3-0.2l-0.2,0.2c0,0.2,0.2,0.2,0.3,0.2L56.4,49.1z M56.4,50.5L56,50.1l-0.2,0.2v0.2L56.4,50.5L56.4,50.5z
					 M56,51.8c0.2,0,0.3,0,0.3-0.2c0,0,0-0.2-0.2-0.2c-0.2,0-0.2,0-0.2,0l-0.2,0.2L56,51.8z M56,58.1l-0.2,0.3H56V58.1z M55.9,59.8
					L55.9,59.8L56,60L55.9,59.8L55.9,59.8z M56.2,62.3L56.2,62.3L56.2,62.3L56,62.4l0.2,0.2C56,62.4,56.2,62.4,56.2,62.3z M57,41.7
					v-0.2l-0.2-0.2c-0.2,0-0.2,0.2-0.2,0.2l-0.2,0.2l0.2,0.2L57,41.7L57,41.7z M57,45.7L57,45.7c0-0.2,0-0.2,0-0.2s0,0,0-0.2h-0.2
					l-0.2,0.2c0,0-0.2,0-0.2,0.2l0.2,0.2L57,45.7L57,45.7z M56.8,51.1l0.2-0.2l-0.2-0.2l-0.3,0.2L56.8,51.1L56.8,51.1L56.8,51.1z
					 M57,42.9c-0.2-0.2-0.2-0.2-0.3-0.2l-0.2,0.2l0.2,0.2L57,42.9L57,42.9z M57,46.9l-0.2-0.3h-0.2l-0.2,0.2v0.2l0.2,0.2h0.2
					L57,46.9z M57,48.2L56.8,48l-0.2,0.2v0.3l0.2,0.2l0.2-0.2V48.2z M57,63.2L56.8,63c0,0,0-0.2-0.2-0.2L56.5,63v0.2l0.2,0.2
					L57,63.2L57,63.2z M56.8,44l-0.2,0.2c0,0.2,0.2,0.2,0.3,0.2v0.2v-0.2c0,0,0,0,0-0.2S57,44,56.8,44C56.8,44.2,56.8,44,56.8,44z
					 M57,49.7v-0.3h-0.3l-0.2,0.2v0.2l0.2,0.2l0,0L57,49.7z M56.8,52.5l0.2-0.2l-0.2-0.2h-0.2c0,0,0,0-0.2,0c0,0,0,0-0.2,0v0.2
					c0,0,0,0,0,0.2c0,0,0,0,0,0.2h0.5L56.8,52.5L56.8,52.5z M56.7,53.7L56.7,53.7L56.7,53.7l0.2-0.2L56.7,53.7z M57,61.8l-0.2-0.2
					l-0.2,0.2H57L57,61.8z M57.3,61.2L57.3,61.2c0.2,0.2,0.3,0.3,0.3,0.3h0.2V61l-0.3-0.2c0-0.2-0.2-0.2-0.3-0.3v0.2l0.2,0.2V61.2
					L57.3,61.2L57.3,61.2z M58.5,58.1c0,0.2,0,0.2,0,0.3c0,0,0,0.2,0.2,0.2h0.2l0.2-0.2l-0.2-0.2L58.5,58.1L58.5,58.1L58.5,58.1
					L58.3,58v-0.2v-0.2c-0.2,0.2-0.2,0.2-0.3,0.3c-0.2,0.2-0.2,0.2-0.2,0.3h-0.5h-0.2c0,0-0.2,0-0.2,0.2l0.2,0.2v0.2h0.3l0.2-0.2
					c0,0,0,0,0.2-0.2v-0.3c0.2,0,0.2,0,0.3,0S58.3,58.1,58.5,58.1z M57.6,45.1v-0.2c-0.2-0.2-0.3-0.2-0.5-0.3l0,0l0.2,0.2v0.3
					l0.2,0.2C57.4,45.1,57.4,45.1,57.6,45.1C57.4,45.1,57.6,45.1,57.6,45.1z M57.6,50.3l-0.2-0.2l-0.3,0.2v0.2l0.3,0.3h0.2l0.2-0.2
					L57.6,50.3L57.6,50.3z M57.1,53.2L57.1,53.2h0.3l0.2-0.2v-0.5h-0.3l-0.2,0.2V53.2z M57.4,60L57.4,60c0.2-0.2,0.2-0.2,0.2-0.3
					l-0.2-0.2c-0.2,0-0.3,0.2-0.3,0.3V60H57.4z M57.4,41.1c0,0,0.2,0,0.2-0.2c0,0,0.2,0,0.2-0.2l-0.2-0.2h-0.2l-0.2,0.2L57.4,41.1z
					 M57.4,43.2c-0.2,0-0.3,0.2-0.3,0.3l0.2,0.2h0.2l0.2-0.2L57.4,43.2z M57.7,46.6v-0.3c-0.2-0.2-0.2-0.2-0.3-0.2l-0.2,0.2v0.2
					C57.3,46.5,57.4,46.5,57.7,46.6z M57.3,47.7c0.2,0.2,0.2,0.2,0.3,0.2l0.2-0.2l0,0c-0.2-0.2-0.2-0.2-0.3-0.2L57.3,47.7L57.3,47.7
					z M57.6,48.9L57.6,48.9C57.4,48.9,57.4,48.9,57.6,48.9h-0.3l-0.2,0.2c0,0.2,0.2,0.2,0.3,0.2L57.6,48.9L57.6,48.9z M57.6,51.8
					L57.6,51.8L57.6,51.8L57.6,51.8v-0.2l-0.2-0.2h-0.3v0.3h0.2C57.4,51.8,57.6,51.8,57.6,51.8z M57.3,63.8l0.2,0.2h0.2l0,0
					L57.3,63.8L57.3,63.8z M57.3,42.3L57.3,42.3L57.3,42.3l0.2-0.2L57.3,42V42.3z M57.4,62.3l-0.2,0.2l0.2,0.2l0.2-0.2L57.4,62.3z
					 M57.7,44.2l0.2,0.3H58l0.2-0.2v-0.2L58,44h-0.2L57.7,44.2z M58.2,46c0-0.2,0-0.2,0.2-0.2v-0.5l0,0c-0.3,0.2-0.5,0.2-0.5,0.3
					v0.2L58.2,46z M57.7,46.6v0.3l0.3,0.3h0.3v-0.5c-0.2-0.2-0.2-0.2-0.3-0.2L57.7,46.6L57.7,46.6z M58.2,48.6l0.2-0.2v-0.2
					l-0.2-0.2h-0.3l-0.2,0.2l0,0l0.2,0.2C57.9,48.5,57.9,48.5,58.2,48.6L58.2,48.6z M57.9,52L57.9,52v0.6c0,0,0.2,0,0.3,0
					s0.3,0,0.3,0v-0.3l0.2-0.3h0.2c0.2,0,0.2,0,0.2,0s0.2,0,0.2,0.2l0.2,0.2v0.3h0.3l0.3-0.3V52c-0.2-0.2-0.3-0.2-0.5-0.2l-0.2-0.2
					v-0.2L59,51.4c-0.2,0.2-0.2,0.2-0.3,0.3c0,0.2-0.2,0.2-0.3,0.3L57.9,52L57.9,52z M57.9,53.5v0.3V54h0.3l0.2-0.2v-0.3l0,0H57.9z
					 M58.3,61.5h-0.6V62l0.2,0.2H58l0.2-0.2c0,0,0,0,0.2-0.2L58.3,61.5L58.3,61.5z M58,49.8L58,49.8C58.2,49.8,58.2,49.8,58,49.8
					C58.2,49.8,58.2,49.8,58,49.8l0.2-0.2L58,49.5l-0.2,0.2L58,49.8z M58.2,43.1L58.2,43.1v-0.2V43.1L58.2,43.1z M58,51.2
					c0.2,0,0.2-0.2,0.3-0.2l-0.2-0.2H58V51.2z M58.2,63.3l0.2-0.2L58.2,63H58L58.2,63.3L58.2,63.3L58.2,63.3z M58,40.2L58,40.2
					L58,40.2V40V40.2L58,40.2z M58.5,41.9l-0.2-0.2L58.5,41.9L58.5,41.9L58.5,41.9z M58.7,44.6c-0.2,0.2-0.3,0.3-0.3,0.3l0.2,0.2
					l0.2,0.2l0,0l0.2-0.3l0,0C58.8,44.8,58.7,44.6,58.7,44.6z M58.8,49.2l0.3-0.3v-0.2h-0.3l-0.2-0.2h-0.2l0,0l0,0v0.2
					C58.5,49.1,58.7,49.2,58.8,49.2z M58.5,53.2l0.2,0.2l0.3-0.2v-0.3l-0.2-0.2h-0.2l-0.2-0.2V53.2z M58.5,61.5h0.3l0.2-0.2v-0.2
					L58.8,61h-0.2l-0.2,0.2V61.5z M59,60.1C59.1,60.1,59.1,60.3,59,60.1c0.2,0.2,0.2,0.2,0.2,0.3v0.2l0.2,0.3l0.2-0.2
					c0,0,0-0.2,0.2-0.2c-0.2-0.2-0.2-0.2-0.3-0.3c-0.2-0.2-0.2-0.2-0.3-0.3v-0.2l-0.2-0.2h-0.3v0.5C58.7,60.1,58.8,60.1,59,60.1z
					 M58.7,42.2L58.7,42.2l0.2,0.2L58.7,42.2L58.7,42.2z M58.7,54.1v0.3h0.2c0.2,0,0.2,0,0.2-0.2v-0.2L58.7,54.1L58.7,54.1z
					 M58.7,62.4v0.2v0.2V62.4L58.7,62.4L58.7,62.4z M58.7,40.6v0.2l0.2,0.2l0.2-0.2c0-0.2,0-0.2,0-0.3L58.7,40.6L58.7,40.6z
					 M59,50.3l-0.2-0.2h-0.2v0.2c0,0,0,0,0,0.2c0,0,0,0,0,0.2L59,50.3L59,50.3z M59.1,54h0.6l0,0v-0.2l-0.2-0.2l-0.2-0.2l-0.3,0.3
					L59.1,54L59.1,54z M59.1,61.8l0.2,0.2h0.2l0.2-0.3l-0.2-0.2h-0.2L59.1,61.8z M59.4,42.8l-0.2,0.2l0.3,0.2l0.2-0.2
					C59.6,42.8,59.4,42.8,59.4,42.8z M59.3,50.9l0.2,0.2l0.2-0.2v-0.2L59.3,50.9L59.3,50.9z M59.4,63L59.4,63l-0.2,0.2l0.2,0.2l0,0
					l0.2-0.2L59.4,63z M59.4,64.1L59.3,64L59.4,64.1L59.4,64.1L59.4,64.1z M59.6,49.5L59.6,49.5C59.4,49.5,59.4,49.5,59.6,49.5
					c-0.2,0-0.2,0-0.3,0.2l0.2,0.3l0.2-0.2V49.5z M59.4,41.7l0.3-0.2v-0.2h-0.2l-0.2,0.2V41.7z M59.6,58.3v0.2
					c0.2,0.2,0.2,0.2,0.3,0.2H60c0,0,0.2,0,0.2-0.2v-0.2l-0.3-0.2L59.6,58.3L59.6,58.3z M60.3,49.2v-0.5l0,0c-0.2,0-0.2,0-0.3,0.2
					c-0.2,0-0.2,0.2-0.2,0.2v0.2l0,0c0.2,0,0.2,0.2,0.3,0.2L60.3,49.2z M60.3,51.5L60.3,51.5c-0.2,0-0.3,0-0.3-0.2l-0.3,0.3V52h0.5
					l0.2-0.2L60.3,51.5L60.3,51.5z M60,61.3l0.2-0.2L60,61l-0.3,0.2L60,61.3z M60,53.2c0.2,0,0.2-0.2,0.2-0.2v-0.2l0,0l0,0l-0.3,0.2
					L60,53.2z M60.3,40.9v-0.3h-0.2H60v0.2l-0.2,0.2l0.2,0.2h0.2L60.3,40.9z M60.2,62.6L60.2,62.6L60.2,62.6l0.2-0.3l-0.2-0.2
					C60,62.3,60,62.3,60,62.4C60,62.6,60,62.6,60.2,62.6z M60,42L60,42v0.2h0.2L60,42L60,42z M60.2,50.1L60.2,50.1l-0.3,0.2v0.2
					c0,0,0,0,0,0.2c0,0,0,0,0,0.2H60L60.2,50.1L60.2,50.1z M60.2,54.1L60,54.3l0.2,0.2l0.2-0.2C60.3,54.3,60.3,54.3,60.2,54.1
					L60.2,54.1z M60,59.8L60,59.8h0.3v-0.2c-0.2-0.2-0.2-0.2-0.3-0.2l-0.2,0.2L60,59.8L60,59.8z M61.1,62c0-0.2-0.2-0.2-0.2-0.3
					c-0.2,0-0.2-0.2-0.3-0.2h-0.2V62l0.2,0.2H61L61.1,62z M60.8,41.4l-0.2,0.2l0,0l0,0h0.2H61L60.8,41.4L60.8,41.4z M61.1,49.8v-0.3
					L61,49.4h-0.2l0,0l0,0v0.3L61.1,49.8L61.1,49.8z M60.6,52.3L60.6,52.3v0.2l0.3-0.2v-0.2h-0.3V52.3z M61,53.7l-0.2-0.2
					c-0.2,0-0.2,0.2-0.3,0.3l0.2,0.2L61,53.7z M61,63.3L61,63.3V63h-0.2l-0.2,0.2L61,63.3L61,63.3L61,63.3z M60.6,42.8l0.2,0.2h0.3
					v-0.2C61,42.8,60.8,42.8,60.6,42.8L60.6,42.8z M60.8,50.9l-0.2,0.2l0.2,0.2l0.2-0.2L60.8,50.9z M60.8,58.9L60.6,59v0.2l0,0l0,0
					L61,59L60.8,58.9z M60.6,60.4L60.6,60.4L60.6,60.4C60.8,60.4,60.8,60.4,60.6,60.4z M61.4,43.9l0.2-0.2v-0.2c0,0,0,0,0-0.2
					s0,0,0-0.2l0,0l0,0l-0.2,0.2c0,0-0.2,0-0.2,0.2L61.4,43.9L61.4,43.9L61.4,43.9z M61.6,52.9l-0.3,0.2l0.2,0.2h0.2c0,0,0,0,0.2,0
					c0,0,0,0,0.2,0v-0.2C61.6,53.1,61.6,53.1,61.6,52.9L61.6,52.9L61.6,52.9L61.6,52.9z M61.7,42h-0.3l-0.2,0.2v0.2c0,0,0,0,0,0.2
					s0,0,0,0.2h0.2h0.2l0.2-0.2c0,0,0-0.2-0.2-0.2C61.7,42.2,61.7,42,61.7,42z M61.3,50.5L61.3,50.5l0.5,0.2v-0.3c0,0-0.2,0-0.2-0.2
					h-0.2c0,0,0,0-0.2,0s0,0-0.2,0L61.3,50.5L61.3,50.5z M61.6,51.5c-0.2,0-0.2,0-0.3,0.2l0.2,0.2h0.2V51.5z M61.3,54.4l0.2,0.2
					l0.2-0.2C61.6,54.4,61.4,54.3,61.3,54.4L61.3,54.4z M61.4,60l0.2-0.2l-0.2-0.2l-0.2,0.2L61.4,60L61.4,60z M61.6,61L61.6,61v0.2
					V61z M61.6,62.6L61.6,62.6L61.6,62.6L61.6,62.6C61.4,62.6,61.6,62.6,61.6,62.6z M62.3,63l-0.2-0.2l-0.3,0.3v0.2c0,0,0,0,0,0.2
					c0,0,0,0,0,0.2h0.3l0.2-0.2V63z M63.1,43.1c-0.2,0.2-0.2,0.2-0.3,0.3c-0.2,0-0.2,0.2-0.3,0.3v0.2h0.2l0.2-0.2c0,0,0.2,0,0.2-0.2
					v-0.2c0.2-0.2,0.3-0.2,0.6-0.3l0.2-0.2v-0.5h-0.2h-0.2h-0.2c0,0,0,0-0.2,0V42h0.2c0,0,0.2,0,0.2-0.2l0.3,0.2v0.2l0.2,0.2v0.3
					l0,0h0.5l0,0v-0.5L64.2,42h-0.5l-0.2-0.3v-0.3l-0.2-0.2h-0.5l-0.2-0.2v-0.5l-0.2-0.2c-0.2,0-0.3,0.2-0.3,0.2
					c-0.2,0.2-0.2,0.2-0.3,0.3h-0.2l-0.2,0.2v0.2c0,0,0,0.2-0.2,0.2c0,0.2,0,0.3,0,0.3s0.2,0,0.2,0.2h0.2H62v0.3l0.2,0.2h0.6v0.8
					L63.1,43.1L63.1,43.1z M62.5,42.6H62v0.5l0.2,0.2c0.2-0.2,0.2-0.2,0.3-0.2L62.5,42.6L62.5,42.6z M62.3,50.8H62l-0.2,0.2v0.2
					l0.2,0.2l0,0l0.2-0.2L62.3,50.8L62.3,50.8z M62,59.2l0.2-0.2L62,58.9C62,59,61.9,59,62,59.2L62,59.2z M62.2,60.4L62.2,60.4
					L62.2,60.4L62.2,60.4z M62.2,62l0.2-0.2l-0.2-0.2L62,61.8L62.2,62z M62.2,52.3L62.2,52.3v0.3V52.3L62.2,52.3z M62,53.5l0.2,0.3
					l0.2-0.2v-0.2L62,53.5L62,53.5z M62.2,44.3L62.2,44.3L62.2,44.3v-0.2V44.3L62.2,44.3z M63.1,41.3l0.2,0.3v0.2l-0.2,0.2
					c0,0,0,0-0.2,0.2h-0.3l0,0v-0.3l0.2-0.2c0,0,0.2,0,0.2-0.2h0.2V41.3z M62.6,50.3l-0.2,0.2l0.2,0.2h0.2l0.2,0.2h0.2v-0.3
					c-0.2,0-0.2,0-0.2,0L62.6,50.3z M63.1,45.1c-0.2,0-0.2-0.2-0.2-0.2v-0.2l-0.2-0.2l-0.2,0.2c0,0,0,0-0.2,0.2
					C62.6,45.1,62.8,45.1,63.1,45.1L63.1,45.1z M62.6,51.5v0.2h0.3v-0.2l-0.2-0.2L62.6,51.5z M62.8,57.1L62.8,57.1v0.2V57.1z
					 M62.6,63.6V64V63.6L62.6,63.6L62.6,63.6L62.6,63.6z M62.8,46.5L62.8,46.5l0.3-0.2V46h-0.2l-0.2,0.2V46.5z M62.9,54.4L62.9,54.4
					L62.9,54.4L62.9,54.4z M62.6,60L62.6,60l0.3-0.2l-0.2-0.2h-0.2V60z M62.8,60.9c0,0.2,0,0.2-0.2,0.3h0.2
					C62.9,61,62.8,61,62.8,60.9z M62.9,62.6L62.9,62.6l-0.2-0.2L62.9,62.6L62.9,62.6z M63.7,40.5l0.2-0.3v-0.3l-0.2-0.2h-0.2h-0.2
					c0,0,0,0-0.2,0v0.2L63.1,40v0.2h0.2l0.2,0.2L63.7,40.5L63.7,40.5z M63.7,44.2L63.6,44l-0.3,0.2v0.2c0,0.2,0.2,0.2,0.3,0.2
					L63.7,44.2z M63.7,51.1l-0.3-0.3l-0.2,0.2v0.2l0.2,0.2L63.7,51.1z M63.4,53.5c-0.2,0.2-0.2,0.2-0.2,0.2l0.2,0.2l0.2-0.2
					C63.6,53.7,63.6,53.7,63.4,53.5z M63.6,60.6l0.2-0.2l-0.2-0.2l0,0l-0.2,0.2L63.6,60.6z M63.6,52.3L63.6,52.3L63.6,52.3
					L63.6,52.3z M63.6,59.4L63.6,59.4c0-0.2,0-0.2,0-0.2s0,0,0-0.2l-0.2,0.2L63.6,59.4z M63.6,61.7L63.6,61.7L63.4,62L63.6,61.7
					L63.6,61.7z M63.7,50v-0.2l-0.2-0.3h-0.2v0.2v0.2L63.7,50L63.7,50z M63.6,55.1L63.6,55.1L63.6,55.1L63.6,55.1L63.6,55.1z
					 M64.2,52c0.2-0.2,0.2-0.3,0.2-0.3l-0.2-0.2H64l-0.2,0.2v0.2L64.2,52L64.2,52L64.2,52z M63.9,50.3C63.9,50.5,64,50.5,63.9,50.3
					c0.2,0.2,0.3,0.2,0.3,0.2l0.2-0.2v-0.2L64.2,50l0,0C64,50.1,64,50.1,63.9,50.3C64,50.3,63.9,50.3,63.9,50.3z M64.3,59.8
					l-0.2-0.2L64,59.8c0,0.2,0.2,0.2,0.3,0.2V59.8z M64.3,43.6l-0.2-0.2L64,43.6l0.2,0.2C64.2,43.7,64.2,43.7,64.3,43.6
					C64.2,43.7,64.3,43.6,64.3,43.6z M64.5,44.8L64.5,44.8l-0.3-0.2L64,44.8v0.2l0.2,0.2h0.2l0.2-0.2V44.8z M64.3,58.4
					C64.2,58.4,64.2,58.3,64.3,58.4c-0.2-0.2-0.2-0.2-0.2-0.3L64,58.3v0.2l0.2,0.2L64.3,58.4z M64.2,62.7l0.2-0.3l0,0
					c-0.2-0.2-0.2-0.2-0.3-0.2l-0.2,0.2v0.2L64.2,62.7z M64.2,52.9C64,53.1,64,53.1,64,53.1h0.2l0,0l0,0V52.9z M64.2,54.3L64.2,54.3
					L64,54.4c0,0,0,0,0,0.2c0,0,0,0,0,0.2h0.2V54.3z M64.3,55.7L64.3,55.7L64.3,55.7L64.3,55.7L64.3,55.7z M64.2,57.2v-0.2L64,56.9
					l-0.2,0.2L64.2,57.2z M64,61.3l0.2-0.2L64,61v0.2V61.3z M64.6,47.2h0.3l0.2,0.2l0.3-0.2v-0.2h-0.2l-0.2-0.2v-0.2l-0.2-0.2
					l-0.2,0.2l-0.2,0.2v0.2V47.2z M65.1,51.1l-0.2-0.2c0,0-0.2,0-0.2-0.2l-0.2,0.2l-0.2,0.2l0.2,0.2c0.2,0,0.2,0,0.5,0L65.1,51.1
					L65.1,51.1z M64.8,43.1c0,0,0.2,0,0.2-0.2s0.2-0.2,0.2-0.2l-0.2-0.2h-0.3v0.2c0,0,0,0-0.2,0.2L64.8,43.1z M64.9,52.1
					c-0.2,0-0.2,0.2-0.3,0.2v0.2l0.2,0.2h0.3l0.2-0.2v-0.2L64.9,52.1z M64.9,57.8l-0.2-0.2l-0.2,0.2c0,0,0.2,0,0.2,0.2
					C64.8,57.8,64.8,58,64.9,57.8L64.9,57.8z M64.9,44.5l0.2-0.2l-0.2-0.2c-0.2,0-0.2,0.2-0.3,0.2v0.3L64.9,44.5L64.9,44.5z
					 M64.6,59l0.2,0.2l0,0l0.2-0.2c0-0.2-0.2-0.2-0.3-0.2V59z M64.8,61.7L64.8,61.7c-0.2,0.2-0.2,0.2-0.2,0.3l0.2,0.2
					c0.2-0.2,0.2-0.2,0.3-0.3L64.8,61.7z M64.8,53.8l0.2-0.2l-0.3-0.2l-0.2,0.2L64.8,53.8z M64.9,60.6L64.9,60.6c0-0.2,0-0.2,0-0.2
					s0,0,0-0.2h-0.2l-0.2,0.2L64.9,60.6L64.9,60.6z M64.9,56.4L64.9,56.4l-0.3-0.2v0.2v0.2h0.2L64.9,56.4z M64.9,55.1v-0.2
					C64.8,54.9,64.8,55.1,64.9,55.1C64.8,55.1,64.8,55.1,64.9,55.1L64.9,55.1z M64.9,63.2L64.9,63.2L64.9,63.2L64.9,63.2L64.9,63.2
					L64.9,63.2z M65.2,50v0.2l0.3,0.3h0.3l0.2-0.2c0,0,0,0,0.2-0.2C66,50,65.9,50,65.7,49.8c-0.2-0.2-0.2-0.2-0.3-0.3h-0.2L65.2,50
					L65.2,50z M65.2,51.4v0.3l0.2,0.3h0.2l0.2-0.2c0-0.2,0-0.2-0.2-0.3L65.2,51.4L65.2,51.4z M65.4,41.9L65.2,42v0.2l0.2,0.2
					l0.2-0.2V42C65.6,42,65.6,42,65.4,41.9z M65.4,45.1L65.4,45.1c0.2,0,0.2-0.2,0.2-0.2s0,0,0.2-0.2l-0.2-0.2c0,0,0,0-0.2,0V45.1
					L65.4,45.1z M65.4,56.9l-0.2,0.2c0.2,0.2,0.2,0.2,0.3,0.2l0.2-0.2L65.4,56.9z M65.6,59.5C65.6,59.7,65.4,59.7,65.6,59.5
					c-0.2,0.2-0.2,0.3-0.3,0.3l0.2,0.2c0,0,0,0,0.2,0l0.2-0.2L65.6,59.5L65.6,59.5z M65.2,61.2l0.3,0.2l0.2-0.2V61l-0.2-0.2L65.4,61
					C65.4,61,65.4,61.2,65.2,61.2z M65.6,43.4L65.6,43.4l-0.3,0.2l0.2,0.2l0.2-0.2V43.4z M65.6,52.9l-0.2,0.2l0.2,0.2V52.9
					L65.6,52.9z M65.6,54.6v-0.2l-0.2-0.2l-0.2,0.2L65.6,54.6z M65.4,55.8L65.4,55.8C65.6,55.8,65.6,55.8,65.4,55.8
					C65.6,55.8,65.6,55.8,65.4,55.8l0.2-0.2l0,0l0,0h-0.2V55.8z M65.4,58.3L65.4,58.3c0,0.2,0,0.2,0,0.2s0,0,0,0.2l0.2-0.2
					L65.4,58.3L65.4,58.3z M65.9,51.1L65.9,51.1c0,0.2,0,0.2,0,0.2s0,0,0,0.2h0.3c0,0,0,0,0.2,0h0.2v-0.3c0,0,0,0,0-0.2s0,0,0-0.2
					L65.9,51.1L65.9,51.1z M65.9,53.7C66,53.8,66,53.8,65.9,53.7c0.2,0.2,0.2,0.2,0.3,0.2l0.3-0.3l-0.2-0.2l-0.2-0.2L65.9,53.7z
					 M65.9,60.4C66,60.6,66,60.6,65.9,60.4c0.2,0.2,0.2,0.2,0.2,0.3l0.3-0.2v-0.2l-0.2-0.2H66L65.9,60.4z M66.2,43.1l0.2-0.2
					l-0.2-0.2c-0.2,0-0.2,0.2-0.3,0.3L66.2,43.1z M66.6,59.5v0.3l0.2,0.2h0.2l0.2-0.2v-0.3l-0.2-0.2h-0.3v-0.2L66.5,59v-0.2h-0.3
					L66,59l0.3,0.3h0.2L66.6,59.5L66.6,59.5z M66,61.8L66,61.8l0.3,0.2l0.2-0.2c0-0.2,0-0.2-0.2-0.2L66,61.8z M66.2,44.2L66.2,44.2
					v0.2h0.2L66.2,44.2L66.2,44.2z M66.3,54.9H66v0.2l0,0l0,0h0.2L66.3,54.9L66.3,54.9z M66.2,56.4L66.2,56.4L66.2,56.4L66.2,56.4
					C66.2,56.3,66.2,56.4,66.2,56.4z M66.2,58c0.2,0,0.2,0,0.3-0.2l-0.2-0.2h-0.2V58z M66.6,52L66.6,52h0.5l0.2-0.2v-0.5h-0.3
					l-0.2-0.2h-0.2c0,0,0,0-0.2,0c0,0,0,0-0.2,0V52L66.6,52L66.6,52z M66.6,58.4L66.6,58.4c0,0.2,0,0.2,0,0.2s0,0,0,0.2h0.2l0.2-0.2
					l0.2-0.2v-0.3h-0.2C66.8,58.1,66.6,58.1,66.6,58.4L66.6,58.4z M66.6,43.6l0.2,0.2h0.2v-0.3L66.6,43.6
					C66.8,43.4,66.8,43.4,66.6,43.6C66.6,43.4,66.6,43.4,66.6,43.6z M66.8,42.5l0.3-0.2l0.2-0.2c0-0.2-0.2-0.2-0.2-0.2
					s-0.2,0-0.2-0.2l-0.2,0.3V42.5z M66.6,54.4l0.2,0.2l0.2-0.2v-0.2l-0.2-0.2l-0.2,0.2V54.4z M66.9,56.9
					C66.8,56.9,66.8,56.9,66.9,56.9c-0.2,0.2-0.2,0.3-0.3,0.3l0.2,0.2h0.2V56.9L66.9,56.9z M66.8,61.3v-0.2l0,0l0,0h-0.2L66.8,61.3
					L66.8,61.3L66.8,61.3z M67.1,44.6L67.1,44.6L67.1,44.6l-0.3-0.2l-0.2,0.2v0.3l0.2,0.2l0.2-0.2C66.9,44.9,66.9,44.8,67.1,44.6
					C67.1,44.8,67.1,44.8,67.1,44.6z M67.1,53.1l-0.2-0.2c-0.2,0-0.2,0.2-0.2,0.2l0,0l0.2,0.2L67.1,53.1z M66.9,56
					c0.2-0.2,0.2-0.2,0.2-0.3l-0.3-0.2h-0.2l-0.2,0.2V56H66.9z M67.9,44.6v-0.3l-0.2-0.2c0-0.2,0-0.2,0-0.3h-0.2c0,0,0,0.2-0.2,0.2
					l-0.2,0.2l0,0h0.2v0.2L67.9,44.6L67.9,44.6v0.5l-0.2,0.2v0.2c-0.2,0-0.2,0-0.3,0c-0.2,0-0.2,0-0.3,0v0.5l0.2,0.2
					c0.2-0.2,0.3-0.3,0.3-0.6h0.6l0.2-0.2v-0.5l0,0h-0.2L68,44.6L67.9,44.6L67.9,44.6z M67.2,52.3l0.3,0.3h0.2l0.2-0.2v-0.2
					c-0.2-0.2-0.2-0.2-0.2-0.3h-0.2C67.4,52.1,67.4,52.1,67.2,52.3C67.2,52.1,67.2,52.3,67.2,52.3z M67.2,60.3l0.2,0.3
					c0.2,0,0.3-0.2,0.3-0.3l-0.2-0.2C67.6,60.1,67.4,60.1,67.2,60.3L67.2,60.3z M67.6,53.5l-0.2,0.2l0.2,0.3l0.2,0.2l0.2-0.2
					l0.2-0.2l-0.2-0.2L67.6,53.5L67.6,53.5z M67.2,55.1l0.2,0.2c0.2,0,0.2,0,0.2-0.2c-0.2-0.2-0.2-0.2-0.3-0.2V55.1z M67.4,57.8
					L67.4,57.8l0.3,0.2v-0.2l0,0l0,0H67.4L67.4,57.8z M67.7,56.3L67.7,56.3L67.7,56.3L67.7,56.3l-0.2,0.2L67.7,56.3L67.7,56.3z
					 M67.6,59v0.2V59L67.6,59z M68.2,53.2L68.2,53.2l0.2-0.3c-0.2-0.2-0.3-0.2-0.3-0.2c0,0.2,0,0.2,0,0.3C68,53.2,68,53.2,68.2,53.2
					L68.2,53.2L68.2,53.2L68.2,53.2z M68.3,55.5L68.3,55.5L68,55.7V56l0.2,0.2c0.2,0,0.2,0,0.2-0.2c0,0,0-0.2,0.2-0.2L68.3,55.5z
					 M68.5,57.1l-0.2-0.2h-0.2L68,57.1l0,0l0.2,0.2c0,0,0,0,0.2,0.2C68.3,57.2,68.3,57.2,68.5,57.1C68.5,57.2,68.5,57.1,68.5,57.1z
					 M68.5,60l-0.2-0.3h-0.2L68,60c0.2,0.2,0.2,0.2,0.3,0.2L68.5,60L68.5,60z M68.2,54.3L68.2,54.3L68.2,54.3L68.2,54.3z M68.2,58.3
					v0.3h0.2L68.2,58.3L68.2,58.3z M68.2,46.8L68.2,46.8L68.2,46.8L68.2,46.8L68.2,46.8z M69.1,56.1h-0.3l-0.2,0.2v0.3h0.2l0.2,0.2
					h0.2V56.1L69.1,56.1L69.1,56.1z M68.6,59C68.6,59.2,68.8,59.2,68.6,59c0.2,0,0.2,0,0.3,0.2V59C68.8,59,68.6,59,68.6,59z
					 M69.7,57.2l-0.2-0.2h-0.2v0.2H69.7C69.5,57.4,69.7,57.4,69.7,57.2C69.7,57.4,69.7,57.4,69.7,57.2L69.7,57.2z"/>
			</g>
		</g>
	</g>
	<g id="Caminho_44">
		<path class="st0" d="M2141.3-457.9l-87.1-50.9v-103.3l87.1-51.8l88.9,51.8v103.3L2141.3-457.9z M2058.1-511.1l83.2,48.6l84.9-48.6
			v-98.7l-84.9-49.5l-83.2,49.5V-511.1z"/>
	</g>
</g>
</svg>
