<?xml version="1.0" encoding="utf-8"?>
<!-- Generator: Adobe Illustrator 28.3.0, SVG Export Plug-In . SVG Version: 6.00 Build 0)  -->
<svg version="1.1" id="Camada_1" xmlns="http://www.w3.org/2000/svg" xmlns:xlink="http://www.w3.org/1999/xlink" x="0px" y="0px"
	 viewBox="0 0 90 90" style="enable-background:new 0 0 90 90;" xml:space="preserve">
<style type="text/css">
	.st0{fill:#FFA700;}
	.st1{fill:none;}
	.st2{fill:#FDA729;}
	.st3{fill:#324174;}
</style>
<g id="Grupo_4135" transform="translate(-199 -231)">
	<g id="Grupo_4134" transform="translate(2098.972 219.365)">
		<g id="Grupo_2610" transform="translate(-1876 34)">
			<g id="Polígono_14">
				<path class="st0" d="M41,31.4c0,2.2-1.2,4.1-3,5.2l-14.5,8.3c-1.8,1.1-4.1,1.1-6,0L3,36.6c-1.9-1.1-3-3.1-3-5.2V14.9
					c0-2.2,1.2-4.1,3-5.2l14.5-8.3c1.8-1.1,4.1-1.1,6,0L38,9.7c1.9,1.1,3,3.1,3,5.2V31.4z"/>
			</g>
			<g id="Polígono_18">
				<path class="st0" d="M37,29.5c0,2.1-1.1,4.1-2.9,5.2l-10.5,6.2c-1.9,1.1-4.2,1.1-6.1,0L7,34.6c-1.8-1.1-3-3-3-5.2V16.8
					c0-2.1,1.1-4.1,2.9-5.2l10.5-6.2c1.9-1.1,4.2-1.1,6.1,0L34,11.6c1.8,1.1,3,3,3,5.2V29.5z"/>
			</g>
			<g id="Polígono_19" transform="translate(39.028 2.635) rotate(90)">
				<g>
					<path class="st1" d="M27.3,0c2.2,0,4.1,1.2,5.2,3l6.8,12c1,1.8,1,4.1,0,5.9l-6.8,12c-1.1,1.9-3.1,3-5.2,3H13.7
						c-2.2,0-4.1-1.2-5.2-3L1.7,21c-1-1.8-1-4.1,0-5.9L8.5,3c1.1-1.9,3.1-3,5.2-3H27.3z"/>
				</g>
				<g>
					<path class="st2" d="M13.7,1c-1.8,0-3.5,1-4.3,2.5l-6.8,12c-0.9,1.5-0.9,3.4,0,4.9l6.8,12c0.9,1.6,2.6,2.5,4.3,2.5h13.5
						c1.8,0,3.5-1,4.3-2.5l6.8-12c0.9-1.5,0.9-3.4,0-4.9l-6.8-12C30.7,2,29.1,1,27.3,1H13.7 M13.7,0h13.5c2.2,0,4.1,1.2,5.2,3
						l6.8,12c1,1.8,1,4.1,0,5.9l-6.8,12c-1.1,1.9-3.1,3-5.2,3H13.7c-2.2,0-4.1-1.2-5.2-3L1.7,21c-1-1.8-1-4.1,0-5.9L8.5,3
						C9.6,1.2,11.6,0,13.7,0z"/>
				</g>
			</g>
			<g id="Polígono_20" transform="translate(39.028 2.635) rotate(90)">
				<g>
					<path class="st1" d="M27.3,0c2.2,0,4.1,1.2,5.2,3l6.8,12c1,1.8,1,4.1,0,5.9l-6.8,12c-1.1,1.9-3.1,3-5.2,3H13.7
						c-2.2,0-4.1-1.2-5.2-3L1.7,21c-1-1.8-1-4.1,0-5.9L8.5,3c1.1-1.9,3.1-3,5.2-3H27.3z"/>
				</g>
				<g>
					<path class="st2" d="M13.7,3c-1.1,0-2.1,0.6-2.6,1.5l-6.8,12c-0.5,0.9-0.5,2.1,0,3l6.8,12c0.5,0.9,1.5,1.5,2.6,1.5h13.5
						c1.1,0,2.1-0.6,2.6-1.5l6.8-12c0.5-0.9,0.5-2.1,0-3l-6.8-12C29.3,3.6,28.3,3,27.3,3H13.7 M13.7,0h13.5c2.2,0,4.1,1.2,5.2,3
						l6.8,12c1,1.8,1,4.1,0,5.9l-6.8,12c-1.1,1.9-3.1,3-5.2,3H13.7c-2.2,0-4.1-1.2-5.2-3L1.7,21c-1-1.8-1-4.1,0-5.9L8.5,3
						C9.6,1.2,11.6,0,13.7,0z"/>
				</g>
			</g>
		</g>
		<g>
			<path class="st2" d="M-1860.5,61.4h-8.5v-9.6h8.5V61.4z M-1867.5,59.6h5.4v-1.7h-3.9v-4.3h-1.5V59.6L-1867.5,59.6z"/>
			<path class="st2" d="M-1859.7,61.4v-9.6h8.5v9.6H-1859.7z M-1856.6,55.3h0.4v4.3h1.6v-4.3h0.4v4.3h1.5v-6.1h-5.4v6.1h1.6
				L-1856.6,55.3L-1856.6,55.3z"/>
			<path class="st2" d="M-1841.9,61.4h-8.5v-9.6h8.5V61.4z M-1843.5,55.3v-1.7h-5.4v3.9h3.9v0.4h-3.9v1.7h5.4v-3.9h-3.9v-0.4
				H-1843.5z"/>
		</g>
		<g>
			<path class="st3" d="M-1862.2,63h-11.3V50.1h11.3V63z M-1871.4,60.6h7.2v-2.3h-5.1v-5.8h-2V60.6z"/>
			<path class="st3" d="M-1861.1,63V50.1h11.3V63H-1861.1z M-1857,54.8h0.5v5.8h2v-5.8h0.5v5.8h2v-8.2h-7.2v8.2h2V54.8z"/>
			<path class="st3" d="M-1837.6,63h-11.3V50.1h11.3V63z M-1839.6,54.8v-2.3h-7.2v5.2h5.1v0.6h-5.1v2.3h7.2v-5.2h-5.1v-0.6H-1839.6z
				"/>
		</g>
	</g>
</g>
</svg>
