<?xml version="1.0" encoding="utf-8"?>
<!-- Generator: Adobe Illustrator 28.3.0, SVG Export Plug-In . SVG Version: 6.00 Build 0)  -->
<svg version="1.1" id="Camada_1" xmlns="http://www.w3.org/2000/svg" xmlns:xlink="http://www.w3.org/1999/xlink" x="0px" y="0px"
	 viewBox="0 0 156.4 148" style="enable-background:new 0 0 156.4 148;" xml:space="preserve">
<style type="text/css">
	.st0{fill:#6EFEEA;}
	.st1{fill:#FFA700;}
	.st2{fill:none;}
	.st3{fill:#FDA729;}
	.st4{fill:#324174;}
</style>
<g id="Grupo_4118" transform="translate(-247.599 -303)">
	<g id="Polígono_7">
		<path class="st0" d="M380.7,363.9c7.2,4.1,9.8,13.2,5.7,20.4c-1.4,2.4-3.3,4.4-5.7,5.7l-86.3,48.4c-7.2,4.1-16.4,1.5-20.4-5.7
			c-1.3-2.2-1.9-4.8-1.9-7.3v-96.8c0-8.3,6.7-15,15-15c2.6,0,5.1,0.7,7.3,1.9L380.7,363.9z"/>
	</g>
	<g id="Grupo_2615" transform="translate(2125 293)">
		<g id="Grupo_2610" transform="translate(0 0.5)">
			<g id="Polígono_14">
				<path class="st1" d="M-1787,105c0,2.2-1.2,4.2-3.1,5.2l-38.5,21.6c-1.8,1-4.1,1-5.9,0l-38.5-21.6c-1.9-1.1-3.1-3.1-3.1-5.2V62
					c0-2.2,1.2-4.2,3.1-5.2l38.5-21.6c1.8-1,4.1-1,5.9,0l38.5,21.6c1.9,1.1,3.1,3.1,3.1,5.2V105z"/>
			</g>
			<g id="Polígono_18">
				<path class="st1" d="M-1796,100.5c0,2.1-1.1,4.1-3,5.2l-29.5,17c-1.9,1.1-4.1,1.1-6,0l-29.5-17c-1.9-1.1-3-3.1-3-5.2v-34
					c0-2.1,1.1-4.1,3-5.2l29.5-17c1.9-1.1,4.1-1.1,6,0l29.5,17c1.9,1.1,3,3.1,3,5.2V100.5z"/>
			</g>
			<g id="Polígono_19" transform="translate(-1792 38.5) rotate(90)">
				<g>
					<path class="st2" d="M64,0c2.2,0,4.1,1.2,5.2,3l19.1,33.5c1,1.8,1,4.1,0,5.9L69.2,76c-1.1,1.9-3.1,3-5.2,3H26
						c-2.2,0-4.1-1.2-5.2-3L1.7,42.5c-1-1.8-1-4.1,0-5.9L20.8,3c1.1-1.9,3.1-3,5.2-3H64z"/>
				</g>
				<g>
					<path class="st3" d="M26,1c-1.8,0-3.5,1-4.3,2.5L2.6,37c-0.9,1.5-0.9,3.4,0,4.9l19.1,33.5C22.5,77,24.2,78,26,78h38
						c1.8,0,3.5-1,4.3-2.5L87.4,42c0.9-1.5,0.9-3.4,0-4.9l-19-33.6C67.5,2,65.8,1,64,1H26 M26,0h38c2.2,0,4.1,1.2,5.2,3l19.1,33.5
						c1,1.8,1,4.1,0,5.9L69.2,76c-1.1,1.9-3.1,3-5.2,3H26c-2.2,0-4.1-1.2-5.2-3L1.7,42.5c-1-1.8-1-4.1,0-5.9L20.8,3
						C21.8,1.2,23.8,0,26,0z"/>
				</g>
			</g>
			<g id="Polígono_20" transform="translate(-1792 38.5) rotate(90)">
				<g>
					<path class="st2" d="M64,0c2.2,0,4.1,1.2,5.2,3l19.1,33.5c1,1.8,1,4.1,0,5.9L69.2,76c-1.1,1.9-3.1,3-5.2,3H26
						c-2.2,0-4.1-1.2-5.2-3L1.7,42.5c-1-1.8-1-4.1,0-5.9L20.8,3c1.1-1.9,3.1-3,5.2-3H64z"/>
				</g>
				<g>
					<path class="st3" d="M26,3c-1.1,0-2.1,0.6-2.6,1.5L4.3,38c-0.5,0.9-0.5,2.1,0,3l19.1,33.5c0.5,0.9,1.5,1.5,2.6,1.5h38
						c1.1,0,2.1-0.6,2.6-1.5L85.7,41c0.5-0.9,0.5-2.1,0-3L66.6,4.5C66.1,3.6,65.1,3,64,3H26 M26,0h38c2.2,0,4.1,1.2,5.2,3l19.1,33.5
						c1,1.8,1,4.1,0,5.9L69.2,76c-1.1,1.9-3.1,3-5.2,3H26c-2.2,0-4.1-1.2-5.2-3L1.7,42.5c-1-1.8-1-4.1,0-5.9L20.8,3
						C21.8,1.2,23.8,0,26,0z"/>
				</g>
			</g>
		</g>
		<g>
			<path class="st4" d="M-1846.9,98.4h-24.5V70.6h24.5V98.4z M-1866.9,93.4h15.6v-5.1h-11.1V75.6h-4.4V93.4z"/>
			<path class="st4" d="M-1844.7,98.4V70.6h24.5v27.8H-1844.7z M-1835.8,80.7h1.1v12.7h4.4V80.7h1.1v12.7h4.4V75.6h-15.6v17.7h4.4
				V80.7z"/>
			<path class="st4" d="M-1793.5,98.4h-24.5V70.6h24.5V98.4z M-1798,80.7v-5.1h-15.6V87h11.1v1.3h-11.1v5.1h15.6V82h-11.1v-1.3
				H-1798z"/>
		</g>
	</g>
</g>
</svg>
