<?xml version="1.0" encoding="utf-8"?>
<!-- Generator: Adobe Illustrator 28.3.0, SVG Export Plug-In . SVG Version: 6.00 Build 0)  -->
<svg version="1.1" id="Camada_1" xmlns="http://www.w3.org/2000/svg" xmlns:xlink="http://www.w3.org/1999/xlink" x="0px" y="0px"
	 viewBox="0 0 156.4 148" style="enable-background:new 0 0 156.4 148;" xml:space="preserve">
<style type="text/css">
	.st0{fill:#FFA700;}
	.st1{fill:#53FFFF;}
	.st2{fill:#324174;}
</style>
<g id="Grupo_4119" transform="translate(-247.599 -303)">
	<g id="Polígono_7">
		<path class="st0" d="M380.7,363.9c7.2,4.1,9.8,13.2,5.7,20.4c-1.4,2.4-3.3,4.4-5.7,5.7l-86.3,48.4c-7.2,4.1-16.4,1.5-20.4-5.7
			c-1.3-2.2-1.9-4.8-1.9-7.3v-96.8c0-8.3,6.7-15,15-15c2.6,0,5.1,0.7,7.3,1.9L380.7,363.9z"/>
	</g>
	<g id="Grupo_2615" transform="translate(2125 293)">
		<g id="Grupo_2610" transform="translate(0 0.5)">
			<g id="Polígono_14">
				<path class="st1" d="M-1787,105c0,2.2-1.2,4.2-3.1,5.2l-38.5,21.6c-1.8,1-4.1,1-5.9,0l-38.5-21.6c-1.9-1.1-3.1-3.1-3.1-5.2V62
					c0-2.2,1.2-4.2,3.1-5.2l38.5-21.6c1.8-1,4.1-1,5.9,0l38.5,21.6c1.9,1.1,3.1,3.1,3.1,5.2V105z"/>
			</g>
			<g id="Polígono_18">
				<path class="st1" d="M-1796,100.5c0,2.1-1.1,4.1-3,5.2l-29.5,17c-1.9,1.1-4.1,1.1-6,0l-29.5-17c-1.9-1.1-3-3.1-3-5.2v-34
					c0-2.1,1.1-4.1,3-5.2l29.5-17c1.9-1.1,4.1-1.1,6,0l29.5,17c1.9,1.1,3,3.1,3,5.2V100.5z"/>
			</g>
		</g>
		<g>
			<path class="st2" d="M-1846.4,97.4h-24.5V69.6h24.5V97.4z M-1866.4,92.4h15.6v-5.1h-11.1V74.6h-4.4V92.4z"/>
			<path class="st2" d="M-1844.2,97.4V69.6h24.5v27.8H-1844.2z M-1835.3,79.7h1.1v12.7h4.4V79.7h1.1v12.7h4.4V74.6h-15.6v17.7h4.4
				V79.7z"/>
			<path class="st2" d="M-1793,97.4h-24.5V69.6h24.5V97.4z M-1797.5,79.7v-5.1h-15.6V86h11.1v1.3h-11.1v5.1h15.6V81h-11.1v-1.3
				H-1797.5z"/>
		</g>
	</g>
</g>
</svg>
