<svg xmlns="http://www.w3.org/2000/svg" xmlns:xlink="http://www.w3.org/1999/xlink" width="26.54" height="15.711" viewBox="0 0 26.54 15.711">
  <defs>
    <clipPath id="clip-path">
      <rect id="Retângulo_5559" data-name="Retângulo 5559" width="26.54" height="15.711" transform="translate(0 0)" fill="none"/>
    </clipPath>
  </defs>
  <g id="Grupo_9463" data-name="Grupo 9463" transform="translate(0 0)" clip-path="url(#clip-path)">
    <path id="Caminho_19447" data-name="Caminho 19447" d="M4.041,11.467c.049-.49-.171-.908-.743-.908H2.4L2.381,15.71H2.9a.835.835,0,0,0,.875-.721A4.131,4.131,0,0,1,4.2,13.558c.391-.884-.228-1.392-.159-2.091" fill="#6b6860"/>
    <path id="Caminho_19448" data-name="Caminho 19448" d="M6.667,7.443c-.5,0-.6-.56-.6-1.25,0-2.471-.9-3.693-2.087-3.693C2.817,2.5,3.1,5.154,3.1,5.757c0,.691-.759,1.168-1.449,1.168S.729,6.357.618,5.675C-.09,1.306,2.265,0,3.977,0,7.058,0,8.01,3.034,8.01,5.007c0,1.386-.684,2.436-1.343,2.436" fill="#827e74"/>
    <path id="Caminho_19449" data-name="Caminho 19449" d="M2.4,13.135c0,.622-.364,1.127-.813,1.127s-.813-.505-.813-1.127.364-1.127.813-1.127.813.5.813,1.127" fill="#6b6860"/>
    <path id="Caminho_19450" data-name="Caminho 19450" d="M2.382,15.711H2.275a.913.913,0,0,1-.913-.913V11.472a.913.913,0,0,1,.913-.913h.107a.913.913,0,0,1,.912.913V14.8a.913.913,0,0,1-.912.913" fill="#848176"/>
    <path id="Caminho_19451" data-name="Caminho 19451" d="M1.647,2.834A1.647,1.647,0,0,0,0,4.481v.108l.472.236L0,5.062v.894l.472.237L0,6.43v.885l.472.237L0,7.788V8.7l.472.237L0,9.177v.886l.472.236A2.674,2.674,0,0,1,0,10.536v0a1.751,1.751,0,0,0,1.751,1.751H3.294V4.481A1.647,1.647,0,0,0,1.647,2.834" fill="#9e988b"/>
    <path id="Caminho_19452" data-name="Caminho 19452" d="M1.784,4.517a1.781,1.781,0,0,0-1.033.308,1.781,1.781,0,0,0,1.033.308,1.781,1.781,0,0,0,1.033-.308,1.781,1.781,0,0,0-1.033-.308" fill="#6b6860"/>
    <path id="Caminho_19453" data-name="Caminho 19453" d="M1.784,5.885a1.781,1.781,0,0,0-1.033.308A1.781,1.781,0,0,0,1.784,6.5a1.781,1.781,0,0,0,1.033-.308,1.781,1.781,0,0,0-1.033-.308" fill="#6b6860"/>
    <path id="Caminho_19454" data-name="Caminho 19454" d="M1.784,7.244a1.781,1.781,0,0,0-1.033.308,1.781,1.781,0,0,0,1.033.308,1.781,1.781,0,0,0,1.033-.308,1.781,1.781,0,0,0-1.033-.308" fill="#6b6860"/>
    <path id="Caminho_19455" data-name="Caminho 19455" d="M1.784,8.632A1.781,1.781,0,0,0,.751,8.94a1.781,1.781,0,0,0,1.033.308A1.781,1.781,0,0,0,2.817,8.94a1.781,1.781,0,0,0-1.033-.308" fill="#6b6860"/>
    <path id="Caminho_19456" data-name="Caminho 19456" d="M1.784,9.991A1.781,1.781,0,0,0,.751,10.3a1.781,1.781,0,0,0,1.033.308A1.781,1.781,0,0,0,2.817,10.3a1.781,1.781,0,0,0-1.033-.308" fill="#6b6860"/>
    <path id="Caminho_19457" data-name="Caminho 19457" d="M22.5,11.467c-.049-.49.171-.908.743-.908h.893l.024,5.151h-.516a.835.835,0,0,1-.875-.721,4.131,4.131,0,0,0-.428-1.431c-.391-.884.228-1.392.159-2.091" fill="#6b6860"/>
    <path id="Caminho_19458" data-name="Caminho 19458" d="M19.873,7.443c.505,0,.6-.56.6-1.25,0-2.471.9-3.693,2.087-3.693,1.16,0,.881,2.654.881,3.257,0,.691.759,1.168,1.449,1.168s.918-.568,1.029-1.25C26.63,1.306,24.275,0,22.563,0,19.482,0,18.53,3.034,18.53,5.007c0,1.386.684,2.436,1.343,2.436" fill="#827e74"/>
    <path id="Caminho_19459" data-name="Caminho 19459" d="M24.135,13.135c0,.622.364,1.127.813,1.127s.813-.505.813-1.127-.364-1.127-.813-1.127-.813.5-.813,1.127" fill="#6b6860"/>
    <path id="Caminho_19460" data-name="Caminho 19460" d="M24.158,15.711h.106a.913.913,0,0,0,.913-.913V11.472a.913.913,0,0,0-.913-.913h-.106a.913.913,0,0,0-.913.913V14.8a.913.913,0,0,0,.913.913" fill="#848176"/>
    <path id="Caminho_19461" data-name="Caminho 19461" d="M24.892,2.834a1.647,1.647,0,0,1,1.647,1.647v.108l-.472.236.472.237v.894l-.472.237.472.237v.885l-.472.237.472.236V8.7l-.472.237.472.236v.886l-.472.236a2.674,2.674,0,0,0,.472.237v0a1.751,1.751,0,0,1-1.751,1.751H23.245V4.481a1.647,1.647,0,0,1,1.647-1.647" fill="#9e988b"/>
    <path id="Caminho_19462" data-name="Caminho 19462" d="M24.756,4.517a1.778,1.778,0,0,1,1.032.308,1.886,1.886,0,0,1-2.066,0,1.782,1.782,0,0,1,1.034-.308" fill="#6b6860"/>
    <path id="Caminho_19463" data-name="Caminho 19463" d="M24.756,5.885a1.778,1.778,0,0,1,1.032.308,1.886,1.886,0,0,1-2.066,0,1.782,1.782,0,0,1,1.034-.308" fill="#6b6860"/>
    <path id="Caminho_19464" data-name="Caminho 19464" d="M24.756,7.244a1.778,1.778,0,0,1,1.032.308,1.886,1.886,0,0,1-2.066,0,1.782,1.782,0,0,1,1.034-.308" fill="#6b6860"/>
    <path id="Caminho_19465" data-name="Caminho 19465" d="M24.756,8.632a1.778,1.778,0,0,1,1.032.308,1.886,1.886,0,0,1-2.066,0,1.782,1.782,0,0,1,1.034-.308" fill="#6b6860"/>
    <path id="Caminho_19466" data-name="Caminho 19466" d="M24.756,9.991a1.778,1.778,0,0,1,1.032.308,1.886,1.886,0,0,1-2.066,0,1.782,1.782,0,0,1,1.034-.308" fill="#6b6860"/>
  </g>
</svg>
