<svg xmlns="http://www.w3.org/2000/svg" xmlns:xlink="http://www.w3.org/1999/xlink" width="38.477" height="23.562" viewBox="0 0 38.477 23.562">
  <defs>
    <clipPath id="clip-path">
      <rect id="Retângulo_5557" data-name="Retângulo 5557" width="38.477" height="23.562" fill="none"/>
    </clipPath>
  </defs>
  <g id="Grupo_9460" data-name="Grupo 9460" transform="translate(0 0)">
    <g id="Grupo_9459" data-name="Grupo 9459" transform="translate(0 0)" clip-path="url(#clip-path)">
      <path id="Caminho_19414" data-name="Caminho 19414" d="M36.451,1.161C34.787.295,31.407-.654,29.626.62a1.583,1.583,0,0,0-.17,2.44c.008.009.008.023.017.031.649.627,1.823.933,3.956,1.143a41.554,41.554,0,0,1,4.8.86,15.862,15.862,0,0,1,2.04.705c4.168,1.971.857,3.679-2.4,4.663-.01.138-.023.275-.035.413,7.175-.422,7.784-5.527-1.377-9.716m-2.931,1.9c-2.2-.2-3.387-.99-3.387-1.247,1.5-1.157,4.166-.342,5.824.411a19.937,19.937,0,0,1,5.595,3.3A20.91,20.91,0,0,0,33.52,3.061" transform="translate(-4.792 0)" fill="#161615"/>
      <path id="Caminho_19415" data-name="Caminho 19415" d="M2.009,23.583a.316.316,0,0,1-.275.256l-1.179.137a.316.316,0,0,1-.291-.5L.6,23.019l-.266-.05a.317.317,0,0,1-.149-.551l.935-.805a.317.317,0,1,1,.413.48l-.435.375.113.022a.316.316,0,0,1,.2.5l-.2.275.456-.053a.316.316,0,0,1,.351.278.323.323,0,0,1,0,.094" transform="translate(-0.012 -3.563)" fill="#161615"/>
      <path id="Caminho_19416" data-name="Caminho 19416" d="M1.771,22.2a.316.316,0,0,1-.335.17L.265,22.181a.317.317,0,0,1-.142-.563l.448-.345-.242-.121a.317.317,0,0,1,.009-.571l1.12-.517a.317.317,0,0,1,.265.576l-.522.24.1.052a.316.316,0,0,1,.051.534l-.27.209.454.075a.317.317,0,0,1,.26.364.293.293,0,0,1-.029.09" transform="translate(0 -3.315)" fill="#161615"/>
      <path id="Caminho_19417" data-name="Caminho 19417" d="M42.36,16.463a.326.326,0,0,1-.134.162l-1.056.637a.317.317,0,1,1-.327-.542l.492-.3-.108-.041a.317.317,0,0,1-.11-.525l.246-.237L40.9,15.6a.317.317,0,0,1,.033-.633l1.185.063a.317.317,0,0,1,.2.544l-.408.393.254.093a.317.317,0,0,1,.206.267.338.338,0,0,1-.018.139" transform="translate(-6.719 -2.476)" fill="#161615"/>
      <path id="Caminho_19418" data-name="Caminho 19418" d="M42.713,18.4a.323.323,0,0,1-.1.182l-.934.805a.317.317,0,0,1-.414-.48l.436-.376-.114-.021a.317.317,0,0,1-.2-.5l.2-.275-.456.053a.316.316,0,1,1-.073-.628l1.18-.137a.316.316,0,0,1,.291.5l-.335.455.266.049a.318.318,0,0,1,.247.229.311.311,0,0,1,.006.141" transform="translate(-6.748 -2.816)" fill="#161615"/>
      <path id="Caminho_19419" data-name="Caminho 19419" d="M33.708,14.687,1.717,20.48a.3.3,0,0,0-.241.347l.289,1.592a.3.3,0,0,0,.348.241L33.9,16.905c-.081-.731-.164-1.48-.191-2.218" transform="translate(-0.243 -2.43)" fill="#464545"/>
      <path id="Caminho_19420" data-name="Caminho 19420" d="M38.887,17.095l2.161-.391a.3.3,0,0,0,.241-.348L41,14.763a.3.3,0,0,0-.348-.241l-1.352.245c-.11.784-.25,1.561-.415,2.327" transform="translate(-6.435 -2.402)" fill="#464545"/>
      <path id="Caminho_19421" data-name="Caminho 19421" d="M23.633,20.331l14.8-2.439a.3.3,0,0,0,.246-.344l-.265-1.6a.3.3,0,0,0-.345-.247L29.082,17.2Z" transform="translate(-3.911 -2.598)" fill="#464545"/>
      <path id="Caminho_19422" data-name="Caminho 19422" d="M26.367,17.3,1.541,21.416a.3.3,0,0,0-.247.344l.265,1.6A.3.3,0,0,0,1.9,23.6l24.69-4.1c-.108-.709-.18-1.46-.226-2.209" transform="translate(-0.214 -2.862)" fill="#464545"/>
      <path id="Caminho_19423" data-name="Caminho 19423" d="M31.018,21.588l8.866-1.83a.3.3,0,0,0,.232-.354l-.326-1.584a.3.3,0,0,0-.354-.233l-9.72,2.006Z" transform="translate(-4.917 -2.909)" fill="#464545"/>
      <path id="Caminho_19424" data-name="Caminho 19424" d="M26.7,19.612,3.085,24.487a1.108,1.108,0,0,0,.448,2.171l23.63-4.877a13.447,13.447,0,0,1-.458-2.169" transform="translate(-0.364 -3.245)" fill="#464545"/>
      <path id="Caminho_19425" data-name="Caminho 19425" d="M26.262,12.934,1.217,17.8a.3.3,0,0,0-.236.351l.308,1.587a.3.3,0,0,0,.351.236l24.617-4.783c-.019-.81-.014-1.584.005-2.258" transform="translate(-0.161 -2.14)" fill="#464545"/>
      <path id="Caminho_19426" data-name="Caminho 19426" d="M39.19,10.936,31.1,12.484l1.1,1.258-1.441,1.4,8.967-1.727a.794.794,0,0,0,.608-.945l-.2-.922a.8.8,0,0,0-.946-.608" transform="translate(-5.09 -1.806)" fill="#1f9474"/>
      <path id="Caminho_19427" data-name="Caminho 19427" d="M37.835,12.46l-7.172.28s-1.324.262-2.236.416a.361.361,0,0,0-.3.414l.3,1.788a.365.365,0,0,0,.421.3c.882-.148,1.908-.344,1.908-.344Z" transform="translate(-4.654 -2.062)" fill="#1f9474"/>
      <path id="Caminho_19428" data-name="Caminho 19428" d="M7.372,26.805l-3.654.754a1.266,1.266,0,0,1-.512-2.48l3.653-.754a.243.243,0,0,1,.287.189l.414,2a.243.243,0,0,1-.189.287" transform="translate(-0.363 -4.024)" fill="#1f9474"/>
    </g>
  </g>
</svg>
