<?xml version="1.0" encoding="utf-8"?>
<!-- Generator: Adobe Illustrator 28.3.0, SVG Export Plug-In . SVG Version: 6.00 Build 0)  -->
<svg version="1.1" id="Camada_1" xmlns="http://www.w3.org/2000/svg" xmlns:xlink="http://www.w3.org/1999/xlink" x="0px" y="0px"
	 viewBox="0 0 198.4 228.4" style="enable-background:new 0 0 198.4 228.4;" xml:space="preserve">
<style type="text/css">
	.st0{fill:#9B54D4;}
	.st1{fill:#FFA700;}
	.st2{fill:none;}
	.st3{fill:#FDA729;}
	.st4{fill:#324174;}
</style>
<g id="Grupo_4122" transform="translate(-2042.955 675.064)">
	<g id="Caminho_3341">
		<path class="st0" d="M2141.3-457.9l-87.1-50.9v-103.3l87.1-51.8l88.9,51.8v103.3L2141.3-457.9z M2058.1-511.1l83.2,48.6l84.9-48.6
			v-98.7l-84.9-49.5l-83.2,49.5V-511.1z"/>
	</g>
	<g id="Grupo_2923" transform="translate(2083.282 -627.149)">
		<g id="Grupo_2610" transform="translate(0 0)">
			<g id="Polígono_14">
				<path class="st1" d="M118.6,96c0,2.2-1.2,4.2-3.1,5.2L62.2,131c-1.8,1-4,1-5.9,0L3.1,101.2c-1.9-1-3.1-3-3.1-5.2V36.7
					c0-2.2,1.2-4.2,3.1-5.2L56.4,1.6c1.8-1,4-1,5.9,0l53.3,29.8c1.9,1.1,3.1,3.1,3.1,5.2V96H118.6z"/>
			</g>
			<g id="Polígono_18">
				<path class="st1" d="M106.3,90.2c0,2.1-1.1,4.1-3,5.2l-41,23.8c-1.9,1.1-4.2,1.1-6,0l-41-23.8c-1.8-1.1-3-3-3-5.2V42.5
					c0-2.1,1.1-4.1,3-5.2l41-23.8c1.9-1.1,4.2-1.1,6,0l41,23.8c1.8,1.1,3,3.1,3,5.2V90.2z"/>
			</g>
			<g id="Polígono_19" transform="translate(111.81 6.143) rotate(90)">
				<g>
					<path class="st2" d="M86.8,0C89,0,91,1.2,92,3l26.7,46.5c1.1,1.8,1.1,4.1,0,6L92,102c-1.1,1.9-3.1,3-5.2,3H33.6
						c-2.2,0-4.1-1.2-5.2-3L1.7,55.5c-1.1-1.8-1.1-4.1,0-6L28.4,3c1.1-1.9,3.1-3,5.2-3H86.8z"/>
				</g>
				<g>
					<path class="st3" d="M33.6,1c-1.8,0-3.4,1-4.3,2.5L2.6,50c-0.9,1.5-0.9,3.4,0,5l26.7,46.5c0.9,1.6,2.6,2.5,4.3,2.5h53.3
						c1.8,0,3.4-1,4.3-2.5L117.8,55c0.9-1.5,0.9-3.4,0-5L91.2,3.5C90.3,2,88.6,1,86.8,1H33.6 M33.6,0h53.3C89,0,91,1.2,92,3
						l26.7,46.5c1.1,1.8,1.1,4.1,0,6L92,102c-1.1,1.9-3.1,3-5.2,3H33.6c-2.2,0-4.1-1.2-5.2-3L1.7,55.5c-1.1-1.8-1.1-4.1,0-6L28.4,3
						C29.4,1.2,31.4,0,33.6,0z"/>
				</g>
			</g>
			<g id="Polígono_20" transform="translate(111.81 6.143) rotate(90)">
				<g>
					<path class="st2" d="M86.8,0C89,0,91,1.2,92,3l26.7,46.5c1.1,1.8,1.1,4.1,0,6L92,102c-1.1,1.9-3.1,3-5.2,3H33.6
						c-2.2,0-4.1-1.2-5.2-3L1.7,55.5c-1.1-1.8-1.1-4.1,0-6L28.4,3c1.1-1.9,3.1-3,5.2-3H86.8z"/>
				</g>
				<g>
					<path class="st3" d="M33.6,3c-1.1,0-2.1,0.6-2.6,1.5L4.3,51c-0.5,0.9-0.5,2.1,0,3L31,100.5c0.5,0.9,1.5,1.5,2.6,1.5h53.3
						c1.1,0,2.1-0.6,2.6-1.5L116.1,54c0.5-0.9,0.5-2.1,0-3L89.4,4.5C88.9,3.6,87.9,3,86.8,3H33.6 M33.6,0h53.3C89,0,91,1.2,92,3
						l26.7,46.5c1.1,1.8,1.1,4.1,0,6L92,102c-1.1,1.9-3.1,3-5.2,3H33.6c-2.2,0-4.1-1.2-5.2-3L1.7,55.5c-1.1-1.8-1.1-4.1,0-6L28.4,3
						C29.4,1.2,31.4,0,33.6,0z"/>
				</g>
			</g>
		</g>
		<g>
			<path class="st4" d="M38.5,86.4H3.5V46.5h35.1V86.4z M9.8,79.2h22.3v-7.3H16.2V53.8H9.8V79.2z"/>
			<path class="st4" d="M41.7,86.4V46.5h35.1v39.9H41.7z M54.5,61h1.6v18.1h6.4V61h1.6v18.1h6.4V53.8H48.1v25.4h6.4V61z"/>
			<path class="st4" d="M115.1,86.4H80V46.5h35.1V86.4z M108.7,61v-7.3H86.4v16.3h15.9v1.8H86.4v7.3h22.3V62.8H92.8V61H108.7z"/>
		</g>
	</g>
	<g id="Caminho_44">
		<path class="st0" d="M2141.3-457.9l-87.1-50.9v-103.3l87.1-51.8l88.9,51.8v103.3L2141.3-457.9z M2058.1-511.1l83.2,48.6l84.9-48.6
			v-98.7l-84.9-49.5l-83.2,49.5V-511.1z"/>
	</g>
</g>
</svg>
