<svg id="Grupo_9473" data-name="Grupo 9473" xmlns="http://www.w3.org/2000/svg" xmlns:xlink="http://www.w3.org/1999/xlink" width="11.866" height="26.305" viewBox="0 0 11.866 26.305">
  <defs>
    <clipPath id="clip-path">
      <rect id="Retângulo_5566" data-name="Retângulo 5566" width="11.866" height="26.305" fill="none"/>
    </clipPath>
    <clipPath id="clip-path-3">
      <rect id="Retângulo_5564" data-name="Retângulo 5564" width="9.476" height="1.089" fill="none"/>
    </clipPath>
    <clipPath id="clip-path-4">
      <path id="Caminho_19471" data-name="Caminho 19471" d="M10.038,2.7a.607.607,0,0,1-.584.516L1.141,3.17a.606.606,0,0,1-.578-.522c0-.287.549-.518.793-.516l7.9.047c.244,0,.787.238.785.527" transform="translate(-0.563 -2.131)" fill="none"/>
    </clipPath>
    <linearGradient id="linear-gradient" x1="-4.618" y1="2.755" x2="-2.838" y2="2.755" gradientUnits="objectBoundingBox">
      <stop offset="0" stop-color="#fff"/>
      <stop offset="0.491" stop-color="#fff"/>
      <stop offset="0.563" stop-color="#fcfcfc"/>
      <stop offset="0.617" stop-color="#f2f2f2"/>
      <stop offset="0.665" stop-color="#e2e2e2"/>
      <stop offset="0.709" stop-color="#cbcbcb"/>
      <stop offset="0.751" stop-color="#aeaeae"/>
      <stop offset="0.792" stop-color="#8a8a8a"/>
      <stop offset="0.831" stop-color="#5f5f5f"/>
      <stop offset="0.867" stop-color="#2f2f2e"/>
      <stop offset="0.885" stop-color="#161615"/>
      <stop offset="1" stop-color="#161615"/>
    </linearGradient>
  </defs>
  <g id="Grupo_9472" data-name="Grupo 9472" clip-path="url(#clip-path)">
    <g id="Grupo_9471" data-name="Grupo 9471" transform="translate(0 0)">
      <g id="Grupo_9470" data-name="Grupo 9470" clip-path="url(#clip-path)">
        <path id="Caminho_19467" data-name="Caminho 19467" d="M5.635,8.725c0,.082.059.359.135.359a.143.143,0,0,0,.139-.15l.018-3.173a.146.146,0,0,0-.137-.152c-.076,0-.139.277-.139.359Z" transform="translate(5.909 5.882)" fill="#272727"/>
        <path id="Caminho_19468" data-name="Caminho 19468" d="M5.649,6.394c0,.082.059.359.135.359a.143.143,0,0,0,.139-.15L5.942,3.43A.146.146,0,0,0,5.8,3.278c-.076,0-.139.277-.139.359Z" transform="translate(5.924 3.437)" fill="#272727"/>
        <path id="Retângulo_5560" data-name="Retângulo 5560" d="M.961,0h11.5a.96.96,0,0,1,.96.96v9.73a.96.96,0,0,1-.96.96H.961A.961.961,0,0,1,0,10.69V.961A.961.961,0,0,1,.961,0Z" transform="translate(-0.012 17.78) rotate(-89.65)" fill="#35363a"/>
        <path id="Retângulo_5561" data-name="Retângulo 5561" d="M.768,0H11.754a.769.769,0,0,1,.769.769v9a.769.769,0,0,1-.769.769H.769A.769.769,0,0,1,0,9.763V.768A.768.768,0,0,1,.768,0Z" transform="translate(0.55 17.333) rotate(-89.65)" fill="#0a0b0b"/>
        <path id="Retângulo_5562" data-name="Retângulo 5562" d="M.768,0H11.754a.769.769,0,0,1,.769.769v9a.769.769,0,0,1-.769.769H.769A.769.769,0,0,1,0,9.763V.768A.768.768,0,0,1,.768,0Z" transform="translate(0.55 17.333) rotate(-89.65)" fill="none" stroke="#3d3e3e" stroke-miterlimit="10" stroke-width="0.461"/>
        <path id="Caminho_19469" data-name="Caminho 19469" d="M9.116,4.415a1.951,1.951,0,0,1,.795.174,2.583,2.583,0,0,1-1-1.442c-.068-.44-.178-1.483-.266-2.108A.911.911,0,0,0,7.795.246,11.289,11.289,0,0,0,5.41,0V0H5.16A10.96,10.96,0,0,0,2.771.217.909.909,0,0,0,1.909,1c-.1.625-.219,1.666-.293,2.1a2.584,2.584,0,0,1-1.01,1.43A1.968,1.968,0,0,1,1.4,4.368Z" transform="translate(0.635 0)" fill="#35363a"/>
        <path id="Caminho_19470" data-name="Caminho 19470" d="M1.358,8.774A1.936,1.936,0,0,1,.563,8.6a2.59,2.59,0,0,1,1,1.442c.068.44.176,5.581.266,6.205a.911.911,0,0,0,.852.793,11.318,11.318,0,0,0,2.387.244v0h.25v0A11.1,11.1,0,0,0,7.7,17.069a.908.908,0,0,0,.86-.781c.1-.625.217-5.763.291-6.2A2.59,2.59,0,0,1,9.868,8.657a1.978,1.978,0,0,1-.795.164Z" transform="translate(0.59 9.018)" fill="#35363a"/>
        <g id="Grupo_9469" data-name="Grupo 9469" transform="translate(1.153 4.366)" opacity="0.5">
          <g id="Grupo_9468" data-name="Grupo 9468">
            <g id="Grupo_9467" data-name="Grupo 9467" clip-path="url(#clip-path-3)">
              <g id="Grupo_9466" data-name="Grupo 9466" transform="translate(0 -0.001)">
                <g id="Grupo_9465" data-name="Grupo 9465" clip-path="url(#clip-path-4)">
                  <rect id="Retângulo_5563" data-name="Retângulo 5563" width="1.151" height="9.486" transform="matrix(0.006, -1, 1, 0.006, -0.009, 1.092)" fill="url(#linear-gradient)"/>
                </g>
              </g>
            </g>
          </g>
        </g>
        <path id="Caminho_19472" data-name="Caminho 19472" d="M3.113,4.38A1.136,1.136,0,1,1,1.984,3.237,1.135,1.135,0,0,1,3.113,4.38" transform="translate(0.882 3.394)" fill="#2466b0"/>
        <path id="Caminho_19473" data-name="Caminho 19473" d="M6.027,4.4A1.136,1.136,0,1,1,4.9,3.254,1.135,1.135,0,0,1,6.027,4.4" transform="translate(3.938 3.412)" fill="#8fbb5c"/>
        <path id="Caminho_19474" data-name="Caminho 19474" d="M4.588,4.388A1.136,1.136,0,1,1,3.459,3.245,1.137,1.137,0,0,1,4.588,4.388" transform="translate(2.429 3.402)" fill="#e44639"/>
        <path id="Caminho_19475" data-name="Caminho 19475" d="M3.1,5.818A1.136,1.136,0,1,1,1.975,4.675,1.135,1.135,0,0,1,3.1,5.818" transform="translate(0.872 4.902)" fill="#f27c11"/>
        <path id="Caminho_19476" data-name="Caminho 19476" d="M6.018,5.835A1.136,1.136,0,1,1,4.889,4.692,1.135,1.135,0,0,1,6.018,5.835" transform="translate(3.928 4.92)" fill="#9680b8"/>
        <path id="Caminho_19477" data-name="Caminho 19477" d="M4.579,5.827A1.136,1.136,0,1,1,3.45,4.684,1.137,1.137,0,0,1,4.579,5.827" transform="translate(2.419 4.911)" fill="#fff"/>
        <path id="Caminho_19478" data-name="Caminho 19478" d="M3.1,7.249A1.136,1.136,0,1,1,1.967,6.106,1.135,1.135,0,0,1,3.1,7.249" transform="translate(0.864 6.403)" fill="#b3c327"/>
        <path id="Caminho_19479" data-name="Caminho 19479" d="M6.009,7.266A1.136,1.136,0,1,1,4.88,6.123,1.135,1.135,0,0,1,6.009,7.266" transform="translate(3.919 6.421)" fill="#4c9bcd"/>
        <path id="Caminho_19480" data-name="Caminho 19480" d="M4.571,7.258A1.136,1.136,0,1,1,3.442,6.115,1.137,1.137,0,0,1,4.571,7.258" transform="translate(2.411 6.412)" fill="#dc207b"/>
        <path id="Caminho_19481" data-name="Caminho 19481" d="M2.308,7.817a.176.176,0,1,1-.176-.178.177.177,0,0,1,.176.178" transform="translate(2.051 8.01)" fill="#868787"/>
        <path id="Caminho_19482" data-name="Caminho 19482" d="M2.808,7.82a.176.176,0,1,1-.176-.178.177.177,0,0,1,.176.178" transform="translate(2.575 8.013)" fill="#fff"/>
        <path id="Caminho_19483" data-name="Caminho 19483" d="M3.309,7.823a.176.176,0,1,1-.176-.178.177.177,0,0,1,.176.178" transform="translate(3.101 8.017)" fill="#868787"/>
        <path id="Caminho_19484" data-name="Caminho 19484" d="M3.809,7.826a.176.176,0,1,1-.176-.178.177.177,0,0,1,.176.178" transform="translate(3.625 8.02)" fill="#868787"/>
      </g>
    </g>
  </g>
</svg>
