<svg xmlns="http://www.w3.org/2000/svg" xmlns:xlink="http://www.w3.org/1999/xlink" width="48" height="50" viewBox="0 0 48 50">
  <defs>
    <clipPath id="clip-path">
      <rect id="Retângulo_3907" data-name="Retângulo 3907" width="48" height="50" transform="translate(0.258 -0.397)" fill="#fff" stroke="#707070" stroke-width="1"/>
    </clipPath>
    <clipPath id="clip-path-2">
      <rect id="Retângulo_3905" data-name="Retângulo 3905" width="44.114" height="123.319" fill="none"/>
    </clipPath>
  </defs>
  <g id="Grupo_de_máscara_4" data-name="Grupo de máscara 4" transform="translate(-0.258 0.397)" clip-path="url(#clip-path)">
    <g id="Grupo_5752" data-name="Grupo 5752" transform="translate(1.9 -0.578)">
      <g id="Grupo_5751" data-name="Grupo 5751" clip-path="url(#clip-path-2)">
        <path id="Caminho_11655" data-name="Caminho 11655" d="M42.42,50.863a1.312,1.312,0,0,0,.021-.352L39.157,14.816A7.885,7.885,0,0,0,34.936,8.54v.34c0,1.635-1.6,2.959-3.577,2.959H29.927c-1.977,0-3.577-1.324-3.577-2.959V8.54a7.884,7.884,0,0,0-4.221,6.276l-3.284,35.7a1.3,1.3,0,0,0,.021.35,12.9,12.9,0,0,0-.2,2.26,12.2,12.2,0,0,0,11.98,12.4,12.2,12.2,0,0,0,11.98-12.4,12.88,12.88,0,0,0-.2-2.262" transform="translate(-8.575 -3.924)" fill="#8ea1c2"/>
        <path id="Caminho_11656" data-name="Caminho 11656" d="M42.444,99.186c-.2,2.441-2.929,4.24-5.066,5.4l0,.011-.114.079a11.612,11.612,0,0,1-5.372,1.953,7.675,7.675,0,0,1-2.7-.059,11.5,11.5,0,0,1-3.608-1.164c-.135-.053-.243-.1-.3-.128-2.091-1.065-6.15-3.1-6.4-6.092a36.394,36.394,0,0,1-.145-4.5H42.59a36.524,36.524,0,0,1-.146,4.5" transform="translate(-8.599 -43.503)" fill="#004a8d"/>
        <path id="Caminho_11657" data-name="Caminho 11657" d="M42.444,99.186c-.2,2.441-2.929,4.24-5.066,5.4l0,.011-.114.079a11.612,11.612,0,0,1-5.372,1.953,7.675,7.675,0,0,1-2.7-.059,11.5,11.5,0,0,1-3.608-1.164c-.135-.053-.243-.1-.3-.128-2.091-1.065-6.15-3.1-6.4-6.092a36.394,36.394,0,0,1-.145-4.5H42.59A36.524,36.524,0,0,1,42.444,99.186Z" transform="translate(-8.599 -43.503)" fill="none" stroke="#004a8d" stroke-linecap="round" stroke-linejoin="round" stroke-width="1.5"/>
        <path id="Caminho_11658" data-name="Caminho 11658" d="M24.3,130.349h0a3.2,3.2,0,0,1-3.237-3.065L19.91,97.857a3.2,3.2,0,0,1,3.725-3.295l3.655.61a3.2,3.2,0,0,1,2.66,3.477l-2.505,28.817a3.2,3.2,0,0,1-3.148,2.882" transform="translate(-9.146 -43.426)" fill="#004a8d"/>
        <path id="Caminho_11659" data-name="Caminho 11659" d="M24.3,130.349h0a3.2,3.2,0,0,1-3.237-3.065L19.91,97.857a3.2,3.2,0,0,1,3.725-3.295l3.655.61a3.2,3.2,0,0,1,2.66,3.477l-2.505,28.817A3.2,3.2,0,0,1,24.3,130.349Z" transform="translate(-9.146 -43.426)" fill="none" stroke="#004a8d" stroke-linecap="round" stroke-linejoin="round" stroke-width="1.5"/>
        <path id="Caminho_11660" data-name="Caminho 11660" d="M23.149,151.536a2.628,2.628,0,1,0,3.122-2.017,2.628,2.628,0,0,0-3.122,2.017" transform="translate(-10.608 -68.668)" fill="#004a8d"/>
        <path id="Caminho_11661" data-name="Caminho 11661" d="M23.149,151.536a2.628,2.628,0,1,0,3.122-2.017A2.628,2.628,0,0,0,23.149,151.536Z" transform="translate(-10.608 -68.668)" fill="none" stroke="#004a8d" stroke-linecap="round" stroke-linejoin="round" stroke-width="1.5"/>
        <path id="Caminho_11662" data-name="Caminho 11662" d="M22.847,101.272a3.391,3.391,0,1,0,4.028-2.6,3.391,3.391,0,0,0-4.028,2.6" transform="translate(-10.462 -45.298)" fill="#004a8d"/>
        <path id="Caminho_11663" data-name="Caminho 11663" d="M22.847,101.272a3.391,3.391,0,1,0,4.028-2.6A3.391,3.391,0,0,0,22.847,101.272Z" transform="translate(-10.462 -45.298)" fill="none" stroke="#004a8d" stroke-linecap="round" stroke-linejoin="round" stroke-width="1.5"/>
        <path id="Caminho_11664" data-name="Caminho 11664" d="M48.8,130.349h0a3.2,3.2,0,0,0,3.236-3.065l1.15-29.427a3.2,3.2,0,0,0-3.725-3.295l-3.655.61a3.2,3.2,0,0,0-2.659,3.477l2.5,28.817a3.2,3.2,0,0,0,3.148,2.882" transform="translate(-19.818 -43.426)" fill="#004a8d"/>
        <path id="Caminho_11665" data-name="Caminho 11665" d="M48.8,130.349h0a3.2,3.2,0,0,0,3.236-3.065l1.15-29.427a3.2,3.2,0,0,0-3.725-3.295l-3.655.61a3.2,3.2,0,0,0-2.659,3.477l2.5,28.817A3.2,3.2,0,0,0,48.8,130.349Z" transform="translate(-19.818 -43.426)" fill="none" stroke="#004a8d" stroke-linecap="round" stroke-linejoin="round" stroke-width="1.5"/>
        <path id="Caminho_11666" data-name="Caminho 11666" d="M54.033,151.536a2.628,2.628,0,1,1-3.122-2.017,2.628,2.628,0,0,1,3.122,2.017" transform="translate(-22.437 -68.668)" fill="#004a8d"/>
        <path id="Caminho_11667" data-name="Caminho 11667" d="M54.033,151.536a2.628,2.628,0,1,1-3.122-2.017A2.628,2.628,0,0,1,54.033,151.536Z" transform="translate(-22.437 -68.668)" fill="none" stroke="#004a8d" stroke-linecap="round" stroke-linejoin="round" stroke-width="1.5"/>
        <path id="Caminho_11668" data-name="Caminho 11668" d="M53.037,101.272a3.391,3.391,0,1,1-4.028-2.6,3.391,3.391,0,0,1,4.028,2.6" transform="translate(-21.285 -45.298)" fill="#004a8d"/>
        <path id="Caminho_11669" data-name="Caminho 11669" d="M53.037,101.272a3.391,3.391,0,1,1-4.028-2.6A3.391,3.391,0,0,1,53.037,101.272Z" transform="translate(-21.285 -45.298)" fill="none" stroke="#004a8d" stroke-linecap="round" stroke-linejoin="round" stroke-width="1.5"/>
        <path id="Caminho_11670" data-name="Caminho 11670" d="M46.827,151.79a3.264,3.264,0,1,1,6.482.523l-.582,6.769.076.094-1.323,21.143a.618.618,0,0,1-.595.59l-4.42.079a.62.62,0,0,1-.617-.654Z" transform="translate(-21.064 -68.227)" fill="#004a8d"/>
        <path id="Caminho_11671" data-name="Caminho 11671" d="M46.827,151.79a3.264,3.264,0,1,1,6.482.523l-.582,6.769.076.094-1.323,21.143a.618.618,0,0,1-.595.59l-4.42.079a.62.62,0,0,1-.617-.654Z" transform="translate(-21.064 -68.227)" fill="none" stroke="#004a8d" stroke-linecap="round" stroke-linejoin="round" stroke-width="1.5"/>
        <path id="Caminho_11672" data-name="Caminho 11672" d="M54.061,151.689a2.628,2.628,0,1,1-3-2.2,2.628,2.628,0,0,1,3,2.2" transform="translate(-22.437 -68.669)" fill="#004a8d"/>
        <path id="Caminho_11673" data-name="Caminho 11673" d="M54.061,151.689a2.628,2.628,0,1,1-3-2.2A2.628,2.628,0,0,1,54.061,151.689Z" transform="translate(-22.437 -68.669)" fill="none" stroke="#004a8d" stroke-linecap="round" stroke-linejoin="round" stroke-width="1.5"/>
        <path id="Caminho_11674" data-name="Caminho 11674" d="M28.46,151.79a3.265,3.265,0,1,0-6.482.523l.583,6.769-.076.094,1.323,21.143a.618.618,0,0,0,.595.59l4.419.079a.62.62,0,0,0,.617-.654Z" transform="translate(-10.085 -68.227)" fill="#004a8d"/>
        <path id="Caminho_11675" data-name="Caminho 11675" d="M28.46,151.79a3.265,3.265,0,1,0-6.482.523l.583,6.769-.076.094,1.323,21.143a.618.618,0,0,0,.595.59l4.419.079a.62.62,0,0,0,.617-.654Z" transform="translate(-10.085 -68.227)" fill="none" stroke="#004a8d" stroke-linecap="round" stroke-linejoin="round" stroke-width="1.5"/>
        <path id="Caminho_11676" data-name="Caminho 11676" d="M23.121,151.689a2.628,2.628,0,1,0,3-2.2,2.628,2.628,0,0,0-3,2.2" transform="translate(-10.608 -68.669)" fill="#004a8d"/>
        <path id="Caminho_11677" data-name="Caminho 11677" d="M23.121,151.689a2.628,2.628,0,1,0,3-2.2A2.628,2.628,0,0,0,23.121,151.689Z" transform="translate(-10.608 -68.669)" fill="none" stroke="#004a8d" stroke-linecap="round" stroke-linejoin="round" stroke-width="1.5"/>
        <path id="Caminho_11678" data-name="Caminho 11678" d="M16.645,10.574c-3.078.012-7.078,6.816-7.85,8.862l-1.144,3.1-1.722,5.6s7.255,5.759,7.9,3.428c1.688-6.074,4.731-17.025,4.739-17.051.324-1.118-.182-3.731-1.689-3.927a1.73,1.73,0,0,0-.237-.015" transform="translate(-2.724 -4.858)" fill="#8ea1c2"/>
        <path id="Caminho_11679" data-name="Caminho 11679" d="M54.182,10.574c3.078.012,7.078,6.816,7.85,8.862l1.144,3.1,1.722,5.6S57.643,33.9,57,31.566c-1.688-6.074-4.731-17.025-4.739-17.051-.324-1.118.182-3.731,1.689-3.927a1.73,1.73,0,0,1,.237-.015" transform="translate(-23.966 -4.858)" fill="#8ea1c2"/>
        <path id="Caminho_11680" data-name="Caminho 11680" d="M21.836,181.763c0-.033-.044-.3-.1-.707-.11-.77-.289-2.054-.431-3.285-.157-1.365-.344-2.987-.559-4.681-.024-.19-.051-.392-.079-.6a11.579,11.579,0,0,1,4.326-5.213l3.365-.211c-.143,4.2.323,13.546-.839,17.292-1.008,3.747-3.462,6.395-6.814,5.024.134-.975,1.263-6.749,1.135-7.62" transform="translate(-9.494 -76.758)" fill="#0b151d"/>
        <path id="Caminho_11681" data-name="Caminho 11681" d="M10.227,217.789c.965,1.348,3.582,1.814,5.567.794,3.884-2.171,2.852-3.405,4.829-4.918.33-.267.623-.515.9-.71a11.691,11.691,0,0,1-.6-1.157c-.044-.118.487-.278.589-.334a17.448,17.448,0,0,1,2.105-1,.151.151,0,0,1,.214.11l.015.07.014-.005c.342-.148.695-.628.867-.5-.006-.116-.008-.215-.008-.221.07-.009-.014.05.008.221h0a4.361,4.361,0,0,1,.352,1.307c.053.419-.417.839-.516.923,0,0-.091-.129-.162-.065l-.144.134c-.046.036,0,.121.037.169h0a2.544,2.544,0,0,1-.461.368c-.048-.03-.079-.1-.126-.066a1.969,1.969,0,0,0-.169.108c-.047.038-.029.1-.012.161a2.243,2.243,0,0,1-.5.324s-.075-.142-.124-.1l-.171.1c-.05.043-.008.085.015.148a1.418,1.418,0,0,1-.6.249.355.355,0,0,1-.274-.124.476.476,0,0,0-.549-.122,2.2,2.2,0,0,0-.505.332c-1.2,1.024-1.081,1.1-1.448,2.559a2.48,2.48,0,0,1-.622.978.205.205,0,0,0-.225.009c-.057.047-.114.1-.171.142a.186.186,0,0,0-.015.249,8.846,8.846,0,0,1-.85.667.237.237,0,0,0-.266-.016l-.182.138a.169.169,0,0,0-.044.2c-.165.1-.332.2-.5.291-.1.052-.194.1-.292.146a.282.282,0,0,0-.246-.057l-.234.075a.157.157,0,0,0-.1.2,5.18,5.18,0,0,1-1.172.205.33.33,0,0,0-.288-.174l-.266.014a.159.159,0,0,0-.16.158,4.339,4.339,0,0,1-3.263-1.536c-.049-.065-.271-.419-.241-.437" transform="translate(-4.697 -96.443)" fill="#131a24"/>
        <path id="Caminho_11682" data-name="Caminho 11682" d="M10.009,217.548c.955,1.354,3.513,1.777,5.5.765,3.895-2.145,2.87-3.427,4.884-4.922,1.657-1.224,2.358-.876,3.52-1.862a2.2,2.2,0,0,0,.7-1.6c0-.012,0-.024,0-.036.084-.012.066.2.053.322a2.607,2.607,0,0,1-.7,1.589c-1.116,1.015-1.774.657-3.384,1.9-1.971,1.516-.9,2.783-4.769,4.969-2.09,1.079-4.875.457-5.771-1.031-.043-.068-.05-.081-.023-.1" transform="translate(-4.591 -96.435)" fill="#4e2b11"/>
        <path id="Caminho_11683" data-name="Caminho 11683" d="M9.66,212.567a3.844,3.844,0,0,1,2.18-4.2c2.842-1.068,2.137-1.8,2.884-3.307,1.524-3.067,2.5-3.764,5.313-4.935,2.723-1.337,3.1-.079,2.583.918-.784.9,1.5,1.322,1.5,1.391-.252.919.359,1.243.314,2.742a2.2,2.2,0,0,1-.7,1.6c-1.162.985-1.864.639-3.521,1.862-2.014,1.5-.989,2.777-4.884,4.922-2.092,1.063-4.838.536-5.669-.99" transform="translate(-4.413 -91.679)" fill="#4e2b11"/>
        <path id="Caminho_11684" data-name="Caminho 11684" d="M15.918,211.782c-1.872,1.144-5.173,3.72-6.026-.339-.485-1.829,1.318-3.455,2.191-3.778a10.644,10.644,0,0,0,4.634-2.964,3.46,3.46,0,0,0,.639-1.841,4.844,4.844,0,0,1,5.712-4.182l.437,1.021a12.3,12.3,0,0,1,1.017,4.288c.011.255.013.513,0,.766a2.2,2.2,0,0,1-.7,1.6c-1.163.985-1.863.639-3.52,1.862a5.6,5.6,0,0,0-1.482,1.777c-.83-1.016-1.681,1.38-2.909,1.792" transform="translate(-4.508 -91.257)" fill="#633c1a"/>
        <path id="Caminho_11685" data-name="Caminho 11685" d="M10.368,219.637c.15,2.358,4.161,1.268,5.448-.279,1.037-1.061,2.091-1.282,2.921-.266a7.12,7.12,0,0,1-3.4,3.145c-2.092,1.063-4.986.608-5.669-.991-.276-.645.677-1.038.7-1.609" transform="translate(-4.417 -100.359)" fill="#4e2b11"/>
        <path id="Caminho_11686" data-name="Caminho 11686" d="M10.832,217.03c-.7-.085-1.3-.549-1.2-.861a3.608,3.608,0,0,1,1.6-3.037,7.932,7.932,0,0,0,3.5-3.385c.351.4,2.028.955,1.968,1.671.159,2.016-3.642,5.861-5.869,5.613" transform="translate(-4.422 -96.367)" fill="#4e2b11"/>
        <path id="Caminho_11687" data-name="Caminho 11687" d="M32.874,204.686c-.023.061-.037.1-.041.11-.237.917.386.967.314,2.742a2.2,2.2,0,0,1-.7,1.6c-1.163.985-1.864.639-3.521,1.862-.129.1-.245.2-.354.3,2.784-2.432.829-5.161,4.3-6.613" transform="translate(-13.129 -94.042)" fill="#4e2b11"/>
        <path id="Caminho_11688" data-name="Caminho 11688" d="M17.007,211.035a2.479,2.479,0,0,1-1.988-.341c.447.278,1.556,2.354,1.131,2.033-.667-.5-1.634-.557-1.989-.792a15.9,15.9,0,0,0,1.129,1.783,10.876,10.876,0,0,0-2.274-.8,4.836,4.836,0,0,1,.916,1.922,8.07,8.07,0,0,0-2.049-1.023c.169.66.375.652.741,1.909.012.04.039.015,0,0a8.168,8.168,0,0,1-1.843-.885" transform="translate(-4.953 -96.802)" fill="none" stroke="#040506" stroke-linecap="round" stroke-linejoin="round" stroke-width="1"/>
        <path id="Caminho_11689" data-name="Caminho 11689" d="M22.724,185.885c-1.685-3.281-2-14.073-2.408-18.083q4.478-.048,8.921-.066c-.022.732-.044,1.572-.061,2.435-.03,1.565-.042,3.2-.016,4.4.034,1.553.094,3.038.15,4.287.05,1.127.078,2.3.094,3.011.008.376.011.619.012.649a43.619,43.619,0,0,0,1.371,6.726c-3.394,1.858-6.61-.015-8.063-3.356" transform="translate(-9.334 -77.066)" fill="#091e2d"/>
        <path id="Caminho_11690" data-name="Caminho 11690" d="M20.888,173.632c-.194-2.146-.409-4.26-.572-5.829q4.478-.049,8.921-.066c-.05,1.641-.1,3.821-.091,5.578q-4.113.146-8.259.318" transform="translate(-9.334 -77.066)" fill="#1c2739"/>
        <path id="Caminho_11691" data-name="Caminho 11691" d="M20.311,167.111c0-.169,0-.337-.005-.505a.317.317,0,0,1,.294-.338q4.156-.025,8.282-.024a.336.336,0,0,1,.317.321q.016.24.034.481-4.443.018-8.921.066" transform="translate(-9.329 -76.38)" fill="#091e2d"/>
        <path id="Caminho_11692" data-name="Caminho 11692" d="M30.027,174q.228,4.274.544,8.522a1.685,1.685,0,0,0,1.849,1.532l1.444-.119c-.015-.707-.044-1.884-.094-3.011-.056-1.248-.116-2.734-.149-4.287-.026-1.2-.015-2.833.016-4.4l-2.135.04A1.57,1.57,0,0,0,30.027,174" transform="translate(-13.795 -79.135)" fill="#1c2739"/>
        <path id="Caminho_11693" data-name="Caminho 11693" d="M32.161,187.414a1,1,0,0,0,1.076.912.959.959,0,0,0,.9-1.047q-.04-.411-.078-.823A1.02,1.02,0,0,0,33,185.538a.964.964,0,0,0-.9,1.045q.032.416.064.832" transform="translate(-14.745 -85.244)" fill="#091e2d"/>
        <path id="Caminho_11694" data-name="Caminho 11694" d="M22.026,176.343q2.183-.08,4.356-.154-.019-.349-.038-.7-2.162.064-4.334.136.007.357.015.715" transform="translate(-10.113 -80.629)" fill="#091e2d"/>
        <path id="Caminho_11695" data-name="Caminho 11695" d="M21.972,173.765q2.161-.063,4.313-.119-.019-.349-.036-.7-2.141.048-4.291.1.006.358.014.715" transform="translate(-10.088 -79.46)" fill="#091e2d"/>
        <path id="Caminho_11696" data-name="Caminho 11696" d="M53.277,181.763c0-.033.044-.3.1-.707.11-.77.289-2.054.431-3.285.157-1.365.344-2.987.559-4.681.024-.19.051-.392.079-.6a11.579,11.579,0,0,0-4.326-5.213l-3.365-.211c.143,4.2-.323,13.546.839,17.292,1.008,3.747,3.462,6.395,6.814,5.024-.134-.975-1.263-6.749-1.135-7.62" transform="translate(-21.484 -76.758)" fill="#0b151d"/>
        <path id="Caminho_11697" data-name="Caminho 11697" d="M58.793,217.789c-.965,1.348-3.582,1.814-5.567.794-3.884-2.171-2.852-3.405-4.829-4.918-.33-.267-.623-.515-.9-.71a11.691,11.691,0,0,0,.6-1.157c.044-.118-.487-.278-.589-.334a17.448,17.448,0,0,0-2.105-1,.151.151,0,0,0-.214.11l-.015.07-.014-.005c-.342-.148-.695-.628-.867-.5.006-.116.008-.215.008-.221-.07-.009.014.05-.008.221h0a4.361,4.361,0,0,0-.352,1.307c-.053.419.417.839.516.923,0,0,.091-.129.162-.065l.144.134c.046.036,0,.121-.037.169h0a2.544,2.544,0,0,0,.461.368c.048-.03.079-.1.126-.066a1.969,1.969,0,0,1,.169.108c.047.038.029.1.012.161a2.243,2.243,0,0,0,.5.324s.075-.142.124-.1l.171.1c.05.043.008.085-.015.148a1.418,1.418,0,0,0,.6.249.356.356,0,0,0,.274-.124.476.476,0,0,1,.549-.122,2.2,2.2,0,0,1,.505.332c1.2,1.024,1.081,1.1,1.448,2.559a2.48,2.48,0,0,0,.622.978.205.205,0,0,1,.225.009l.171.142a.186.186,0,0,1,.015.249,8.846,8.846,0,0,0,.85.667.237.237,0,0,1,.266-.016l.182.138a.169.169,0,0,1,.044.2c.165.1.332.2.5.291.1.052.194.1.292.146a.282.282,0,0,1,.246-.057l.234.075a.157.157,0,0,1,.1.2,5.179,5.179,0,0,0,1.172.205.33.33,0,0,1,.288-.174l.266.014a.159.159,0,0,1,.16.158,4.339,4.339,0,0,0,3.263-1.536c.049-.065.271-.419.241-.437" transform="translate(-20.186 -96.443)" fill="#131a24"/>
        <path id="Caminho_11698" data-name="Caminho 11698" d="M59.165,217.548c-.955,1.354-3.513,1.777-5.5.765-3.895-2.145-2.87-3.427-4.884-4.922-1.657-1.224-2.358-.876-3.52-1.862a2.2,2.2,0,0,1-.7-1.6c0-.012,0-.024,0-.036-.084-.012-.066.2-.053.322a2.607,2.607,0,0,0,.7,1.589c1.116,1.015,1.774.657,3.384,1.9,1.971,1.516.9,2.783,4.769,4.969,2.09,1.079,4.875.457,5.771-1.031.043-.068.05-.081.023-.1" transform="translate(-20.446 -96.435)" fill="#4e2b11"/>
        <path id="Caminho_11699" data-name="Caminho 11699" d="M59.387,212.567a3.844,3.844,0,0,0-2.18-4.2c-2.842-1.068-2.137-1.8-2.884-3.307-1.524-3.067-2.5-3.764-5.313-4.935-2.723-1.337-3.1-.079-2.583.918.784.9-1.5,1.322-1.5,1.391.252.919-.359,1.243-.314,2.742a2.2,2.2,0,0,0,.7,1.6c1.162.985,1.864.639,3.521,1.862,2.014,1.5.989,2.777,4.884,4.922,2.092,1.063,4.838.536,5.669-.99" transform="translate(-20.497 -91.679)" fill="#4e2b11"/>
        <path id="Caminho_11700" data-name="Caminho 11700" d="M53.22,211.782c1.872,1.144,5.173,3.72,6.025-.339.485-1.829-1.318-3.455-2.191-3.778a10.639,10.639,0,0,1-4.634-2.964,3.456,3.456,0,0,1-.64-1.841,4.843,4.843,0,0,0-5.711-4.182l-.437,1.021a12.3,12.3,0,0,0-1.017,4.288c-.011.255-.013.513,0,.766a2.2,2.2,0,0,0,.7,1.6c1.163.985,1.863.639,3.52,1.862a5.6,5.6,0,0,1,1.482,1.777c.83-1.016,1.682,1.38,2.909,1.792" transform="translate(-20.494 -91.257)" fill="#633c1a"/>
        <path id="Caminho_11701" data-name="Caminho 11701" d="M63.529,219.637c-.15,2.358-4.161,1.268-5.448-.279-1.037-1.061-2.091-1.282-2.921-.266a7.12,7.12,0,0,0,3.4,3.145c2.092,1.063,4.986.608,5.669-.991.276-.645-.677-1.038-.7-1.609" transform="translate(-25.343 -100.359)" fill="#4e2b11"/>
        <path id="Caminho_11702" data-name="Caminho 11702" d="M64.8,217.03c.7-.085,1.3-.549,1.2-.861a3.608,3.608,0,0,0-1.6-3.037,7.932,7.932,0,0,1-3.5-3.385c-.351.4-2.028.955-1.968,1.671-.159,2.016,3.642,5.861,5.869,5.613" transform="translate(-27.073 -96.367)" fill="#4e2b11"/>
        <path id="Caminho_11703" data-name="Caminho 11703" d="M44.886,204.686c.023.061.037.1.041.11.237.917-.386.967-.314,2.742a2.2,2.2,0,0,0,.7,1.6c1.163.985,1.864.639,3.521,1.862.129.1.245.2.354.3-2.784-2.432-.829-5.161-4.3-6.613" transform="translate(-20.495 -94.042)" fill="#4e2b11"/>
        <path id="Caminho_11704" data-name="Caminho 11704" d="M59.352,211.035a2.479,2.479,0,0,0,1.988-.341c-.447.278-1.556,2.354-1.131,2.033.667-.5,1.634-.557,1.989-.792a15.9,15.9,0,0,1-1.129,1.783,10.876,10.876,0,0,1,2.274-.8,4.836,4.836,0,0,0-.916,1.922,8.07,8.07,0,0,1,2.049-1.023c-.169.66-.375.652-.741,1.909-.012.04-.039.015,0,0a8.169,8.169,0,0,0,1.843-.885" transform="translate(-27.269 -96.802)" fill="none" stroke="#040506" stroke-linecap="round" stroke-linejoin="round" stroke-width="1"/>
        <path id="Caminho_11705" data-name="Caminho 11705" d="M50.027,185.885c1.685-3.281,2-14.073,2.408-18.083q-4.478-.048-8.921-.066c.022.732.044,1.572.061,2.435.03,1.565.042,3.2.016,4.4-.034,1.553-.094,3.038-.15,4.287-.05,1.127-.078,2.3-.094,3.011-.008.376-.011.619-.012.649a43.618,43.618,0,0,1-1.371,6.726c3.394,1.858,6.61-.015,8.063-3.356" transform="translate(-19.28 -77.066)" fill="#091e2d"/>
        <path id="Caminho_11706" data-name="Caminho 11706" d="M53.18,173.632c.194-2.146.409-4.26.572-5.829q-4.478-.049-8.921-.066c.05,1.641.1,3.821.091,5.578q4.113.146,8.259.318" transform="translate(-20.597 -77.066)" fill="#1c2739"/>
        <path id="Caminho_11707" data-name="Caminho 11707" d="M53.752,167.111c0-.169,0-.337.005-.505a.317.317,0,0,0-.294-.338q-4.156-.025-8.282-.024a.336.336,0,0,0-.317.321q-.016.24-.034.481,4.443.018,8.921.066" transform="translate(-20.597 -76.38)" fill="#091e2d"/>
        <path id="Caminho_11708" data-name="Caminho 11708" d="M48.36,174q-.228,4.274-.544,8.522a1.685,1.685,0,0,1-1.849,1.532l-1.444-.119c.015-.707.044-1.884.094-3.011.056-1.248.116-2.734.149-4.287.026-1.2.015-2.833-.016-4.4l2.135.04A1.57,1.57,0,0,1,48.36,174" transform="translate(-20.456 -79.135)" fill="#1c2739"/>
        <path id="Caminho_11709" data-name="Caminho 11709" d="M47.748,187.414a1,1,0,0,1-1.076.912.959.959,0,0,1-.9-1.047q.04-.411.078-.823a1.02,1.02,0,0,1,1.063-.919.964.964,0,0,1,.9,1.045q-.032.416-.064.832" transform="translate(-21.028 -85.244)" fill="#091e2d"/>
        <path id="Caminho_11710" data-name="Caminho 11710" d="M55.908,176.343q-2.183-.08-4.356-.154.019-.349.038-.7,2.162.064,4.334.136-.007.357-.015.715" transform="translate(-23.685 -80.629)" fill="#091e2d"/>
        <path id="Caminho_11711" data-name="Caminho 11711" d="M56,173.765q-2.161-.063-4.313-.119.019-.349.036-.7,2.141.048,4.291.1-.006.358-.014.715" transform="translate(-23.747 -79.46)" fill="#091e2d"/>
        <path id="Caminho_11712" data-name="Caminho 11712" d="M4.419,43.93a1.219,1.219,0,0,1,1.631-1.59c.958.444,1.892.9,2.777,1.368.938.491,1.342.819,2.2,1.335a1.232,1.232,0,0,1,.59,1.81.843.843,0,0,1-1.334.464c-.822-.492-1.693-.981-2.59-1.451-.85-.445-1.748-.888-2.67-1.315a1.214,1.214,0,0,1-.606-.622" transform="translate(-1.984 -19.401)" fill="#5984c2"/>
        <path id="Caminho_11713" data-name="Caminho 11713" d="M7.709,84.013a.856.856,0,0,0-.229-.421l.552-6.051a.4.4,0,0,0-.441-.431c-1.385.17-5.265.73-6.97.977a.726.726,0,0,0-.594.919L2.2,86.624a18.228,18.228,0,0,0,.979,8.354,2.905,2.905,0,0,0,.925,1.45c3.335,2.484,2.78-6.239,2.6-7.509A6.817,6.817,0,0,0,7.68,91.58a.621.621,0,0,0,1.145-.334,33.322,33.322,0,0,0-1.116-7.234" transform="translate(0 -35.427)" fill="#0b2543"/>
        <path id="Caminho_11714" data-name="Caminho 11714" d="M70.838,43.93a1.219,1.219,0,0,0-1.631-1.59c-.958.444-1.892.9-2.777,1.368-.938.491-1.342.819-2.2,1.335a1.232,1.232,0,0,0-.59,1.81.843.843,0,0,0,1.334.464c.822-.492,1.693-.981,2.59-1.451.85-.445,1.748-.888,2.67-1.315a1.214,1.214,0,0,0,.606-.622" transform="translate(-29.159 -19.401)" fill="#5984c2"/>
        <path id="Caminho_11715" data-name="Caminho 11715" d="M66.4,84.013a.856.856,0,0,1,.229-.421l-.552-6.051a.4.4,0,0,1,.441-.431c1.385.17,5.265.73,6.97.977a.726.726,0,0,1,.594.919l-2.174,7.617a18.228,18.228,0,0,1-.979,8.354A2.905,2.905,0,0,1,70,96.427c-3.335,2.484-2.78-6.239-2.6-7.509a6.817,6.817,0,0,1-.968,2.662.621.621,0,0,1-1.145-.334A33.322,33.322,0,0,1,66.4,84.013" transform="translate(-29.994 -35.427)" fill="#0b2543"/>
        <path id="Caminho_11716" data-name="Caminho 11716" d="M15.647,48.341c-.867-.031-1.591-.306-1.636-.613l-.077-12.984-.021-3.617-.087-15.191A32.592,32.592,0,0,1,14,11.193c.184-1.73,2.155-3.116,4.237-4.154.658-.331,1.33-.627,1.957-.888l.132-.083c.5-.254,1.01-.484,1.529-.69A18.214,18.214,0,0,1,24.112,4.5V8.055c0,.889,1.922,1.61,4.293,1.61S32.7,8.944,32.7,8.055h0V4.767a17.241,17.241,0,0,1,1.919.617c.143.045.358.118.369.122.975.379,2.3.888,3.583,1.528,2.082,1.041,4.053,2.427,4.237,4.157a32.592,32.592,0,0,1,.178,4.743L42.9,31.127l-.021,3.617L42.8,47.728c-.045.306-.77.582-1.64.613l-9.429.39c-1.058.042-2.124.063-3.186.066v0h-.278v0q-1.6-.006-3.189-.066Z" transform="translate(-6.336 -2.068)" fill="#ffbc00"/>
        <path id="Caminho_11717" data-name="Caminho 11717" d="M45,8.282h0V5a17.178,17.178,0,0,1,1.92.618c.165.05.3.092.367.119,2.557.994,7.521,2.891,7.82,5.689a32.74,32.74,0,0,1,.178,4.742L55.1,47.955c-.045.306-.769.583-1.638.614l-9.428.388c-1.061.043-2.125.063-3.188.069v0h-.278v0c0-4.625.1-27.834.129-39.132h.011c2.371,0,4.293-.721,4.293-1.61" transform="translate(-18.638 -2.295)" fill="#fea500"/>
        <path id="Caminho_11718" data-name="Caminho 11718" d="M14.017,53.758l.021,3.617H42.979L43,53.758Z" transform="translate(-6.44 -24.699)" fill="#fff"/>
        <path id="Caminho_11719" data-name="Caminho 11719" d="M22.023,7.785v26.8l3.617-.021V6.124a14.341,14.341,0,0,0-3.617,1.661" transform="translate(-10.118 -2.814)" fill="#fff"/>
        <path id="Caminho_11720" data-name="Caminho 11720" d="M52.935,6.336v28.35l3.617-.021V7.878A13.554,13.554,0,0,0,52.97,6.35a.292.292,0,0,1-.035-.014" transform="translate(-24.321 -2.911)" fill="#fff"/>
        <path id="Caminho_11721" data-name="Caminho 11721" d="M14.1,68.1l.021,3.617h28.85l.021-3.617Z" transform="translate(-6.479 -31.289)" fill="#fff"/>
        <path id="Caminho_11722" data-name="Caminho 11722" d="M29.213,19l-.025.007,3.065,12.48.025-.005a1.608,1.608,0,0,0,1.178-1.944l-2.3-9.36A1.607,1.607,0,0,0,29.213,19" transform="translate(-13.41 -8.707)" fill="#1c2739"/>
        <path id="Caminho_11723" data-name="Caminho 11723" d="M25.889,19.052c-3.407.875-4.445,4.077-3.6,7.5s3.244,5.781,6.669,4.979Z" transform="translate(-10.112 -8.753)" fill="#8ea1c2"/>
        <rect id="Retângulo_3901" data-name="Retângulo 3901" width="0.74" height="4.618" transform="matrix(0.746, -0.666, 0.666, 0.746, 13.37, 15.29)" fill="#c1d2ec"/>
        <rect id="Retângulo_3902" data-name="Retângulo 3902" width="0.265" height="2.998" transform="matrix(0.747, -0.665, 0.665, 0.747, 11.522, 12.92)" fill="#1c2739"/>
        <path id="Caminho_11724" data-name="Caminho 11724" d="M21.19,21.525a1.105,1.105,0,1,0-1.105,1.1,1.105,1.105,0,0,0,1.105-1.1" transform="translate(-8.72 -9.382)" fill="#ffbc00"/>
        <path id="Caminho_11725" data-name="Caminho 11725" d="M21.115,21.953a.6.6,0,1,0-.6.6.6.6,0,0,0,.6-.6" transform="translate(-9.148 -9.81)" fill="#1c2739"/>
        <path id="Caminho_11726" data-name="Caminho 11726" d="M49.092,19l.025.007-3.065,12.48-.025-.005a1.608,1.608,0,0,1-1.178-1.944l2.3-9.36A1.607,1.607,0,0,1,49.092,19" transform="translate(-20.584 -8.707)" fill="#1c2739"/>
        <path id="Caminho_11727" data-name="Caminho 11727" d="M50.179,19.052c3.407.875,4.445,4.077,3.6,7.5s-3.244,5.781-6.669,4.979Z" transform="translate(-21.646 -8.753)" fill="#8ea1c2"/>
        <path id="Caminho_11728" data-name="Caminho 11728" d="M30.9,33.547a.7.7,0,1,0-.7.7.7.7,0,0,0,.7-.7" transform="translate(-13.551 -15.09)" fill="#727f99"/>
        <path id="Caminho_11729" data-name="Caminho 11729" d="M30.859,33.787a.422.422,0,1,0-.422.422.421.421,0,0,0,.422-.422" transform="translate(-13.79 -15.329)" fill="#1c2739"/>
        <rect id="Retângulo_3903" data-name="Retângulo 3903" width="4.618" height="0.74" transform="matrix(0.666, -0.746, 0.746, 0.666, 27.14, 18.242)" fill="#c1d2ec"/>
        <rect id="Retângulo_3904" data-name="Retângulo 3904" width="2.998" height="0.265" transform="matrix(0.665, -0.747, 0.747, 0.665, 30.422, 14.983)" fill="#1c2739"/>
        <path id="Caminho_11730" data-name="Caminho 11730" d="M58.582,21.525a1.1,1.1,0,1,1,1.1,1.1,1.1,1.1,0,0,1-1.1-1.1" transform="translate(-26.915 -9.382)" fill="#ffbc00"/>
        <path id="Caminho_11731" data-name="Caminho 11731" d="M60.716,21.953a.6.6,0,1,0-.6.6.6.6,0,0,0,.6-.6" transform="translate(-27.343 -9.81)" fill="#1c2739"/>
        <path id="Caminho_11732" data-name="Caminho 11732" d="M27.007,1.26c-.031.014-.064.023-.1.036a11.127,11.127,0,0,0-3.552,2.482,11.555,11.555,0,0,0-2.39,3.675,11.843,11.843,0,0,0-.876,4.5H21.1a10.593,10.593,0,0,1,5.907-9.574Z" transform="translate(-9.232 -0.579)" fill="#1c2739"/>
        <path id="Caminho_11733" data-name="Caminho 11733" d="M54.738,7.475A11.558,11.558,0,0,0,52.348,3.8,11.121,11.121,0,0,0,48.8,1.318l-.029-.011V2.43a10.6,10.6,0,0,1,5.84,9.54h1.007a11.842,11.842,0,0,0-.876-4.5" transform="translate(-22.406 -0.6)" fill="#1c2739"/>
        <path id="Caminho_11734" data-name="Caminho 11734" d="M28.3,0c-.228.091-.453.185-.675.291A11.958,11.958,0,0,0,22.9,4.354l1.87,1.276A9.711,9.711,0,0,1,28.3,2.49Z" transform="translate(-10.523)" fill="#0c1117"/>
        <path id="Caminho_11735" data-name="Caminho 11735" d="M51.93,1.971A11.684,11.684,0,0,0,48.767.055V2.547a9.517,9.517,0,0,1,1.7,1.149,9.884,9.884,0,0,1,1.754,1.951l1.87-1.278a12.138,12.138,0,0,0-2.158-2.4" transform="translate(-22.406 -0.025)" fill="#0c1117"/>
      </g>
    </g>
  </g>
</svg>
