<svg xmlns="http://www.w3.org/2000/svg" xmlns:xlink="http://www.w3.org/1999/xlink" width="48" height="50" viewBox="0 0 48 50">
  <defs>
    <clipPath id="clip-path">
      <rect id="Retângulo_3906" data-name="Retângulo 3906" width="48" height="50" transform="translate(0.494 -0.397)" fill="#fff" stroke="#707070" stroke-width="1"/>
    </clipPath>
    <clipPath id="clip-path-2">
      <rect id="Retângulo_3900" data-name="Retângulo 3900" width="40.919" height="59.9" fill="none"/>
    </clipPath>
  </defs>
  <g id="Grupo_de_máscara_5" data-name="Grupo de máscara 5" transform="translate(-0.494 0.397)" clip-path="url(#clip-path)">
    <g id="Grupo_5750" data-name="Grupo 5750" transform="translate(4.106 -0.136)">
      <g id="Grupo_5749" data-name="Grupo 5749" clip-path="url(#clip-path-2)">
        <path id="Caminho_11623" data-name="Caminho 11623" d="M40.865,49.168a1.205,1.205,0,0,0,.019-.323L37.868,16.056a7.243,7.243,0,0,0-3.877-5.765V10.6A3.041,3.041,0,0,1,30.7,13.321H29.39A3.041,3.041,0,0,1,26.1,10.6v-.312a7.242,7.242,0,0,0-3.877,5.765L19.21,48.848a1.194,1.194,0,0,0,.019.322,11.85,11.85,0,0,0-.186,2.076,11.2,11.2,0,0,0,11,11.392,11.2,11.2,0,0,0,11-11.392,11.831,11.831,0,0,0-.186-2.078" transform="translate(-9.587 -5.181)" fill="#8ea1c2"/>
        <rect id="Retângulo_3890" data-name="Retângulo 3890" width="9.79" height="3.353" transform="translate(10.67 35.16)" fill="#0b2543"/>
        <rect id="Retângulo_3891" data-name="Retângulo 3891" width="9.79" height="3.353" transform="translate(20.459 35.16)" fill="#0d1a2c"/>
        <path id="Caminho_11624" data-name="Caminho 11624" d="M25.3,9.112,19.463,11.86a70.341,70.341,0,0,1,.435,7.213c0,3.574-.884,6.46-1.569,6.46V39.7a1.778,1.778,0,0,0,1.525,1.95h9.834V20.157Z" transform="translate(-9.228 -4.588)" fill="#e5492e"/>
        <path id="Caminho_11625" data-name="Caminho 11625" d="M45.594,9.112,51.43,11.86a70.341,70.341,0,0,0-.435,7.213c0,3.574.884,6.46,1.569,6.46V39.7a1.778,1.778,0,0,1-1.525,1.95H41.205V20.157Z" transform="translate(-20.745 -4.588)" fill="#e5492e"/>
        <rect id="Retângulo_3892" data-name="Retângulo 3892" width="0.683" height="22.288" transform="translate(20.118 14.771)" fill="#0d1828"/>
        <rect id="Retângulo_3893" data-name="Retângulo 3893" width="0.342" height="22.288" transform="translate(20.118 14.771)" fill="#0b2543"/>
        <rect id="Retângulo_3894" data-name="Retângulo 3894" width="0.683" height="4.43" transform="translate(14.439 26.252)" fill="#0d1828"/>
        <rect id="Retângulo_3895" data-name="Retângulo 3895" width="0.342" height="4.43" transform="translate(14.439 26.252)" fill="#0b2543"/>
        <rect id="Retângulo_3896" data-name="Retângulo 3896" width="0.683" height="4.43" transform="translate(25.797 26.252)" fill="#0d1828"/>
        <rect id="Retângulo_3897" data-name="Retângulo 3897" width="0.342" height="4.43" transform="translate(25.797 26.252)" fill="#0b2543"/>
        <path id="Caminho_11626" data-name="Caminho 11626" d="M41.046,51.537l-.016,1.843H18.255l-.017-1.843Z" transform="translate(-9.182 -25.947)" fill="#0b2543"/>
        <path id="Caminho_11627" data-name="Caminho 11627" d="M41.046,44.51l-.016,1.843H18.255l-.017-1.843Z" transform="translate(-9.182 -22.409)" fill="#0b2543"/>
        <path id="Caminho_11628" data-name="Caminho 11628" d="M41.046,59.491l-.016,1.843h-22.7l-.016-1.843Z" transform="translate(-9.219 -29.951)" fill="#0b2543"/>
        <path id="Caminho_11629" data-name="Caminho 11629" d="M40.147,46.205h-.66a1.039,1.039,0,1,1,0-2.077h.66a1.039,1.039,0,1,1,0,2.077" transform="translate(-19.357 -22.217)" fill="#0b2543"/>
        <path id="Caminho_11630" data-name="Caminho 11630" d="M40.12,46.2H39.006a1.4,1.4,0,0,1,0-2.717H40.12a1.4,1.4,0,0,1,0,2.717m-1.114-2.077a.741.741,0,0,0,0,1.437H40.12a.741.741,0,0,0,0-1.437Z" transform="translate(-19.103 -21.892)" fill="#0d1828"/>
        <path id="Caminho_11631" data-name="Caminho 11631" d="M40.147,61.332h-.66a1.039,1.039,0,1,1,0-2.077h.66a1.039,1.039,0,1,1,0,2.077" transform="translate(-19.357 -29.832)" fill="#0b2543"/>
        <path id="Caminho_11632" data-name="Caminho 11632" d="M40.12,61.328H39.006a1.4,1.4,0,0,1,0-2.717H40.12a1.4,1.4,0,0,1,0,2.717m-1.114-2.077a.741.741,0,0,0,0,1.437H40.12a.741.741,0,0,0,0-1.437Z" transform="translate(-19.103 -29.508)" fill="#0d1828"/>
        <path id="Caminho_11633" data-name="Caminho 11633" d="M40.147,53.378h-.66a1.039,1.039,0,1,1,0-2.077h.66a1.039,1.039,0,1,1,0,2.077" transform="translate(-19.357 -25.828)" fill="#0b2543"/>
        <path id="Caminho_11634" data-name="Caminho 11634" d="M40.12,53.374H39.006a1.4,1.4,0,0,1,0-2.717H40.12a1.4,1.4,0,0,1,0,2.717M39.006,51.3a.741.741,0,0,0,0,1.437H40.12a.741.741,0,0,0,0-1.437Z" transform="translate(-19.103 -25.504)" fill="#0d1828"/>
        <rect id="Retângulo_3898" data-name="Retângulo 3898" width="0.683" height="3.235" transform="translate(14.439 21.956)" fill="#dc0d1c"/>
        <rect id="Retângulo_3899" data-name="Retângulo 3899" width="0.342" height="3.235" transform="translate(14.439 21.956)" fill="#dc0d1c"/>
        <path id="Caminho_11635" data-name="Caminho 11635" d="M57.408,14.775c2.937.086,6.208,6.53,6.872,8.258l.714,1.855,1.951,9.33a3.127,3.127,0,0,1-2.684,3.669,3.457,3.457,0,0,1-4.006-2.2s-4.816-17.642-4.824-17.671c-.27-.941.306-3.11,1.75-3.236a2.034,2.034,0,0,1,.227-.006" transform="translate(-27.875 -7.438)" fill="#f99f00"/>
        <path id="Caminho_11636" data-name="Caminho 11636" d="M56.532,13.314c-.245-.313-.153-.418-.518-.73a8.851,8.851,0,0,0-5.4-1.847c0,.971,3.118,26.672,3.5,34.269.424,8.411-1.682,5.129-1.682,19.627,3.7,0,.156.01,3.854.028.917,0,1.165-.278,1.137-1.218-.042-1.365-.269-18.417-.085-31.525a146.758,146.758,0,0,0-.8-18.6" transform="translate(-25.481 -5.406)" fill="#feb016"/>
        <path id="Caminho_11637" data-name="Caminho 11637" d="M63.873,54.955c.022-.774-.049-2.832.488-3.353a6.621,6.621,0,0,1,3.645-.793c1.682.324,3.824,1.378,3.6,3.209L70.529,71.46c-2.013-.379-3.942-1.426-5.912-1.75Z" transform="translate(-32.157 -25.564)" fill="#f99f00"/>
        <path id="Caminho_11638" data-name="Caminho 11638" d="M50.576,20.457h.085a.218.218,0,0,0,.218-.218V13.555a.218.218,0,0,0-.218-.218h-.085a.218.218,0,0,0-.218.218v6.684a.218.218,0,0,0,.218.218" transform="translate(-25.353 -6.715)" fill="#fffef8"/>
        <path id="Caminho_11639" data-name="Caminho 11639" d="M49.488,24.643a.629.629,0,0,0,.635.674.609.609,0,0,0,.715-.582.64.64,0,0,0-.712-.767.632.632,0,0,0-.638.675" transform="translate(-24.915 -12.067)" fill="#2c2b29"/>
        <path id="Caminho_11640" data-name="Caminho 11640" d="M63.445,80.825a.982.982,0,0,1,.407-.756l-1.063-7.535c2.527-.407,8.206-1.249,9.743,1.271l-2.258,8.61c.067.178.132.367.2.576a22.83,22.83,0,0,1,.274,10.534,3.6,3.6,0,0,1-.868,1.93c-3.589,3.593-4.4-7.192-4.4-8.778a8.543,8.543,0,0,1-.7,3.388.759.759,0,0,1-1.448-.189,41.965,41.965,0,0,1,.118-9.05" transform="translate(-31.612 -36.282)" fill="#e5492e"/>
        <path id="Caminho_11641" data-name="Caminho 11641" d="M49.482.64a3.25,3.25,0,0,1,.511,1.675,3.345,3.345,0,0,1-.6,1.844l.206.2.114.535.259.154L50,5.271a4.763,4.763,0,0,0,1.065-2.937A4.608,4.608,0,0,0,50.5.133,10.5,10.5,0,0,1,49.482.64" transform="translate(-24.867 -0.067)" fill="#565555"/>
        <path id="Caminho_11642" data-name="Caminho 11642" d="M31.1.513A10.43,10.43,0,0,1,30.1,0c-1.181,2.3.421,5.286.5,5.423l.2-.927.077.142.58-.235-.114,0C31.01,3.681,30.3,1.8,31.1.513" transform="translate(-14.937 0)" fill="#565555"/>
        <path id="Caminho_11643" data-name="Caminho 11643" d="M23.45,8.386a1.672,1.672,0,0,1,.217.013,1.54,1.54,0,0,1,1.082.79A7.275,7.275,0,0,1,26.99,7.376V4.5A11.419,11.419,0,0,0,20.8,9.992,4.069,4.069,0,0,1,23.45,8.386" transform="translate(-10.474 -2.267)" fill="#909090"/>
        <path id="Caminho_11644" data-name="Caminho 11644" d="M51.387,9.189a1.54,1.54,0,0,1,1.081-.79,1.6,1.6,0,0,1,.218-.013,4.067,4.067,0,0,1,2.646,1.606A11.422,11.422,0,0,0,49.146,4.5V7.375a7.29,7.29,0,0,1,2.241,1.814" transform="translate(-24.743 -2.266)" fill="#909090"/>
        <path id="Caminho_11645" data-name="Caminho 11645" d="M13.19,14.775c-2.937.086-6.208,6.53-6.872,8.258L5.6,24.888l-1.951,9.33a3.127,3.127,0,0,0,2.684,3.669,3.457,3.457,0,0,0,4.006-2.2s4.816-17.642,4.824-17.671c.27-.941-.306-3.11-1.75-3.236a2.034,2.034,0,0,0-.227-.006" transform="translate(-1.803 -7.438)" fill="#f99f00"/>
        <path id="Caminho_11646" data-name="Caminho 11646" d="M18.971,13.314c.245-.313.073-.549.518-.73,1.528-.624,3.432-1.755,5.4-1.847,0,.971-3.118,26.672-3.5,34.269-.424,8.411,1.682,5.129,1.682,19.627-3.7,0-.156.01-3.854.028-.917,0-1.165-.278-1.137-1.218.042-1.365.269-18.417.085-31.525a146.759,146.759,0,0,1,.8-18.6" transform="translate(-9.103 -5.406)" fill="#feb016"/>
        <path id="Caminho_11647" data-name="Caminho 11647" d="M10.678,54.955c-.022-.774.049-2.832-.488-3.353a6.621,6.621,0,0,0-3.645-.793c-1.682.324-3.824,1.378-3.6,3.209L4.022,71.46c2.013-.379,3.942-1.426,5.912-1.75Z" transform="translate(-1.474 -25.564)" fill="#f99f00"/>
        <path id="Caminho_11648" data-name="Caminho 11648" d="M31.3,20.457H31.22A.218.218,0,0,1,31,20.239V13.555a.218.218,0,0,1,.218-.218H31.3a.218.218,0,0,1,.218.218v6.684a.218.218,0,0,1-.218.218" transform="translate(-15.608 -6.715)" fill="#fffef8"/>
        <path id="Caminho_11649" data-name="Caminho 11649" d="M31.549,24.643a.629.629,0,0,1-.635.674.609.609,0,0,1-.715-.582.64.64,0,0,1,.712-.767.632.632,0,0,1,.638.675" transform="translate(-15.202 -12.067)" fill="#2c2b29"/>
        <path id="Caminho_11650" data-name="Caminho 11650" d="M9.087,80.825a.982.982,0,0,0-.407-.756l1.063-7.535C7.215,72.128,1.536,71.286,0,73.805l2.258,8.61c-.067.178-.132.367-.2.576a22.83,22.83,0,0,0-.274,10.534,3.6,3.6,0,0,0,.868,1.93c3.589,3.593,4.4-7.192,4.4-8.778a8.543,8.543,0,0,0,.7,3.388A.759.759,0,0,0,9.2,89.876a41.965,41.965,0,0,0-.118-9.05" transform="translate(0 -36.282)" fill="#e5492e"/>
        <path id="Caminho_11651" data-name="Caminho 11651" d="M31.116,8.942V7.522A6,6,0,0,1,29,7.2l.348,2.644,1.845-.5a1.175,1.175,0,0,1-.075-.407" transform="translate(-14.599 -3.625)" fill="#f0741b"/>
        <path id="Caminho_11652" data-name="Caminho 11652" d="M49.07,7.523v1.42a1.175,1.175,0,0,1-.075.407l1.845.5L51.188,7.2a6.008,6.008,0,0,1-2.118.321" transform="translate(-24.667 -3.626)" fill="#f0741b"/>
        <path id="Caminho_11653" data-name="Caminho 11653" d="M57.023,31.146l.558.259-.6-19.149c-.971-.942-3.92-2.841-5.8-2.494l-.08.014Z" transform="translate(-25.726 -4.894)" fill="#565555"/>
        <path id="Caminho_11654" data-name="Caminho 11654" d="M18.814,31.146l-.558.259.6-19.149c.971-.942,3.92-2.841,5.8-2.494l.08.014Z" transform="translate(-9.191 -4.894)" fill="#565555"/>
      </g>
    </g>
  </g>
</svg>
