<svg id="Grupo_5134" data-name="Grupo 5134" xmlns="http://www.w3.org/2000/svg" xmlns:xlink="http://www.w3.org/1999/xlink" width="47.037" height="46.623" viewBox="0 0 47.037 46.623">
  <defs>
    <clipPath id="clip-path">
      <rect id="Retângulo_3632" data-name="Retângulo 3632" width="47.037" height="46.623" fill="none"/>
    </clipPath>
  </defs>
  <g id="Grupo_5133" data-name="Grupo 5133" transform="translate(0 0)" clip-path="url(#clip-path)">
    <path id="Caminho_9433" data-name="Caminho 9433" d="M12.694,21.3c-.007-.046-.062-.414-.145-.985-.154-1.073-.4-2.863-.6-4.579-.219-1.9-.48-4.163-.78-6.523-.033-.264-.071-.546-.11-.836a16.135,16.135,0,0,1,6.028-7.264L21.776.823c-.2,5.859.45,18.877-1.169,24.1-1.4,5.221-4.825,8.911-9.5,7,.186-1.358,1.76-9.4,1.582-10.618" transform="translate(-2.728 -0.203)" fill="#0b151d"/>
    <path id="Caminho_9434" data-name="Caminho 9434" d="M.624,54.645c1.345,1.878,4.992,2.528,7.758,1.107,5.412-3.026,3.974-4.746,6.73-6.854.46-.371.869-.718,1.251-.99a16.293,16.293,0,0,1-.831-1.613c-.061-.164.679-.388.82-.465a24.308,24.308,0,0,1,2.934-1.4.211.211,0,0,1,.3.153l.02.1.019-.008c.476-.206.968-.875,1.208-.7-.008-.162-.011-.3-.011-.307.1-.013-.02.069.011.307h0a6.078,6.078,0,0,1,.491,1.821c.074.584-.582,1.169-.719,1.286,0,0-.127-.18-.226-.091l-.2.186c-.065.05,0,.169.051.236h0a3.546,3.546,0,0,1-.643.513c-.066-.041-.11-.145-.176-.093a2.747,2.747,0,0,0-.236.15c-.066.053-.041.142-.017.224a3.128,3.128,0,0,1-.7.451s-.1-.2-.173-.139l-.239.137c-.069.06-.011.118.02.206a1.976,1.976,0,0,1-.843.347.5.5,0,0,1-.381-.173.663.663,0,0,0-.765-.17,3.058,3.058,0,0,0-.7.463c-1.67,1.427-1.506,1.538-2.017,3.566a3.455,3.455,0,0,1-.867,1.363.286.286,0,0,0-.313.013c-.079.066-.158.133-.238.2a.259.259,0,0,0-.02.347,12.337,12.337,0,0,1-1.185.93.33.33,0,0,0-.371-.023c-.084.065-.168.129-.253.193a.235.235,0,0,0-.062.279c-.23.142-.463.277-.7.405-.133.073-.27.141-.408.2a.394.394,0,0,0-.343-.08l-.326.1a.218.218,0,0,0-.141.278A7.216,7.216,0,0,1,6.5,57.4a.46.46,0,0,0-.4-.242l-.371.02a.221.221,0,0,0-.223.221,6.046,6.046,0,0,1-4.547-2.14c-.068-.091-.378-.585-.335-.609" transform="translate(-0.153 -10.773)" fill="#131a24"/>
    <path id="Caminho_9435" data-name="Caminho 9435" d="M.411,54.316c1.33,1.886,4.9,2.476,7.663,1.067,5.427-2.989,4-4.775,6.806-6.859,2.308-1.705,3.286-1.221,4.905-2.6a3.069,3.069,0,0,0,.972-2.227c0-.017,0-.033,0-.05.117-.017.092.285.074.448a3.632,3.632,0,0,1-.982,2.215c-1.555,1.414-2.472.915-4.716,2.648-2.747,2.113-1.25,3.878-6.646,6.924-2.912,1.5-6.794.637-8.042-1.437-.06-.095-.07-.113-.032-.135" transform="translate(-0.096 -10.769)" fill="#4e2b11"/>
    <path id="Caminho_9436" data-name="Caminho 9436" d="M.078,51.449a5.356,5.356,0,0,1,3.037-5.855c3.96-1.489,2.979-2.512,4.02-4.608,2.124-4.273,3.485-5.246,7.4-6.877,3.794-1.863,4.316-.111,3.6,1.279-1.092,1.255,2.092,1.843,2.087,1.939-.351,1.281.5,1.733.437,3.821a3.07,3.07,0,0,1-.971,2.227c-1.62,1.373-2.6.89-4.906,2.6-2.806,2.084-1.378,3.87-6.806,6.859-2.915,1.482-6.742.747-7.9-1.38" transform="translate(0 -8.215)" fill="#4e2b11"/>
    <path id="Caminho_9437" data-name="Caminho 9437" d="M8.718,50.718c-2.609,1.594-7.209,5.183-8.4-.473C-.356,47.7,2.158,45.43,3.374,44.979a14.833,14.833,0,0,0,6.458-4.131,4.822,4.822,0,0,0,.891-2.565c.321-3.39,3.458-6.421,7.96-5.827l.609,1.422a17.147,17.147,0,0,1,1.417,5.976c.016.356.018.715,0,1.068a3.07,3.07,0,0,1-.971,2.227c-1.62,1.373-2.6.89-4.905,2.6a7.8,7.8,0,0,0-2.065,2.476c-1.156-1.415-2.343,1.923-4.053,2.5" transform="translate(-0.051 -7.988)" fill="#633c1a"/>
    <path id="Caminho_9438" data-name="Caminho 9438" d="M1.06,53.867c.209,3.287,5.8,1.767,7.592-.389,1.446-1.479,2.915-1.786,4.071-.371a9.923,9.923,0,0,1-4.742,4.383c-2.915,1.481-6.948.847-7.9-1.381-.385-.9.944-1.447.98-2.243" transform="translate(-0.003 -12.876)" fill="#4e2b11"/>
    <path id="Caminho_9439" data-name="Caminho 9439" d="M1.7,53.653c-.969-.119-1.809-.765-1.667-1.2A5.028,5.028,0,0,1,2.267,48.22,11.054,11.054,0,0,0,7.139,43.5c.489.561,2.826,1.33,2.742,2.329C10.1,48.64,4.805,54,1.7,53.653" transform="translate(-0.005 -10.732)" fill="#4e2b11"/>
    <path id="Caminho_9440" data-name="Caminho 9440" d="M24.961,38.443c-.032.085-.052.139-.056.153-.331,1.278.538,1.348.437,3.821a3.073,3.073,0,0,1-.971,2.227c-1.62,1.373-2.6.89-4.906,2.6-.179.14-.342.28-.493.419,3.879-3.39,1.156-7.192,5.989-9.215" transform="translate(-4.68 -9.484)" fill="#4e2b11"/>
    <path id="Caminho_9441" data-name="Caminho 9441" d="M9.852,44.926a3.455,3.455,0,0,1-2.771-.475c.623.388,2.169,3.281,1.577,2.833-.93-.7-2.277-.777-2.771-1.1A22.16,22.16,0,0,0,7.46,48.665a15.155,15.155,0,0,0-3.169-1.108s1.315,1.777,1.276,2.679A11.246,11.246,0,0,0,2.711,48.81c.236.92.522.908,1.033,2.661.017.056.054.02,0,0a11.382,11.382,0,0,1-2.568-1.234" transform="translate(-0.29 -10.966)" fill="none" stroke="#040506" stroke-linecap="round" stroke-linejoin="round" stroke-width="1"/>
    <path id="Caminho_9442" data-name="Caminho 9442" d="M14.066,26.784c-2.348-4.573-2.793-19.612-3.355-25.2q6.241-.067,12.432-.092c-.031,1.021-.062,2.191-.085,3.393-.042,2.181-.059,4.463-.022,6.129.047,2.164.13,4.234.209,5.974.07,1.57.109,3.211.13,4.2.011.524.016.863.017.9A60.785,60.785,0,0,0,25.3,31.461c-4.73,2.589-9.212-.02-11.237-4.677" transform="translate(-2.642 -0.368)" fill="#091e2d"/>
    <path id="Caminho_9443" data-name="Caminho 9443" d="M11.508,9.708c-.27-2.991-.57-5.936-.8-8.124q6.241-.068,12.432-.093c-.07,2.286-.135,5.324-.127,7.773q-5.731.2-11.509.443" transform="translate(-2.642 -0.368)" fill="#1c2739"/>
    <path id="Caminho_9444" data-name="Caminho 9444" d="M10.709,1.21c0-.235-.005-.469-.008-.7A.441.441,0,0,1,11.11.034Q16.9,0,22.652,0a.468.468,0,0,1,.442.447q.023.334.047.67-6.192.025-12.432.092" transform="translate(-2.64 0)" fill="#091e2d"/>
    <path id="Caminho_9445" data-name="Caminho 9445" d="M20.423,8.45q.318,5.956.759,11.876a2.348,2.348,0,0,0,2.576,2.136l2.013-.166c-.021-.985-.061-2.626-.131-4.2-.078-1.739-.161-3.809-.208-5.974-.037-1.666-.02-3.947.022-6.129l-2.976.056a2.188,2.188,0,0,0-2.055,2.4" transform="translate(-5.038 -1.479)" fill="#1c2739"/>
    <path id="Caminho_9446" data-name="Caminho 9446" d="M22.583,21.91a1.393,1.393,0,0,0,1.5,1.272,1.336,1.336,0,0,0,1.254-1.459q-.055-.573-.109-1.147a1.422,1.422,0,0,0-1.481-1.281,1.344,1.344,0,0,0-1.253,1.456q.044.58.09,1.159" transform="translate(-5.548 -4.759)" fill="#091e2d"/>
    <path id="Caminho_9447" data-name="Caminho 9447" d="M12.428,10.434q3.042-.112,6.071-.214-.026-.486-.053-.972-3.014.089-6.039.19.01.5.021,1" transform="translate(-3.061 -2.281)" fill="#091e2d"/>
    <path id="Caminho_9448" data-name="Caminho 9448" d="M12.374,7.843q3.011-.088,6.011-.166-.026-.486-.05-.973-2.984.067-5.98.143.009.5.02,1" transform="translate(-3.048 -1.653)" fill="#091e2d"/>
    <path id="Caminho_9449" data-name="Caminho 9449" d="M46.238,21.3c.007-.046.062-.414.145-.985.154-1.073.4-2.863.6-4.579.219-1.9.48-4.163.78-6.523.033-.264.071-.546.11-.836a16.135,16.135,0,0,0-6.028-7.264L37.156.823c.2,5.859-.45,18.877,1.169,24.1,1.4,5.221,4.825,8.911,9.5,7-.186-1.358-1.76-9.4-1.582-10.618" transform="translate(-9.167 -0.203)" fill="#0b151d"/>
    <path id="Caminho_9450" data-name="Caminho 9450" d="M55.036,54.645c-1.345,1.878-4.992,2.528-7.758,1.107-5.412-3.026-3.974-4.746-6.73-6.854-.46-.371-.869-.718-1.251-.99a16.293,16.293,0,0,0,.831-1.613c.061-.164-.679-.388-.82-.465a24.308,24.308,0,0,0-2.934-1.4.211.211,0,0,0-.3.153l-.02.1-.019-.008c-.476-.206-.968-.875-1.208-.7.008-.162.011-.3.011-.307-.1-.013.02.069-.011.307h0a6.078,6.078,0,0,0-.491,1.821c-.074.584.582,1.169.719,1.286,0,0,.127-.18.226-.091l.2.186c.065.05,0,.169-.051.236h0a3.546,3.546,0,0,0,.643.513c.066-.041.11-.145.176-.093a2.747,2.747,0,0,1,.236.15c.066.053.041.142.017.224a3.128,3.128,0,0,0,.7.451s.1-.2.173-.139l.239.137c.069.06.011.118-.02.206a1.976,1.976,0,0,0,.843.347.5.5,0,0,0,.381-.173.663.663,0,0,1,.765-.17,3.058,3.058,0,0,1,.7.463c1.67,1.427,1.506,1.538,2.017,3.566a3.455,3.455,0,0,0,.867,1.363.286.286,0,0,1,.313.013c.079.066.158.133.238.2a.259.259,0,0,1,.02.347,12.337,12.337,0,0,0,1.185.93.33.33,0,0,1,.371-.023c.084.065.168.129.253.193a.235.235,0,0,1,.062.279c.23.142.463.277.7.405.133.073.27.141.408.2a.394.394,0,0,1,.343-.08l.326.1a.218.218,0,0,1,.141.278,7.216,7.216,0,0,0,1.633.286.46.46,0,0,1,.4-.242l.371.02a.221.221,0,0,1,.223.221,6.046,6.046,0,0,0,4.547-2.14c.068-.091.378-.585.335-.609" transform="translate(-8.47 -10.773)" fill="#131a24"/>
    <path id="Caminho_9451" data-name="Caminho 9451" d="M55.331,54.316c-1.33,1.886-4.9,2.476-7.663,1.067-5.427-2.989-4-4.775-6.806-6.859-2.309-1.705-3.286-1.221-4.905-2.6a3.069,3.069,0,0,1-.972-2.227c0-.017,0-.033,0-.05-.117-.017-.092.285-.074.448a3.632,3.632,0,0,0,.982,2.215c1.555,1.414,2.472.915,4.716,2.648,2.747,2.113,1.25,3.878,6.646,6.924,2.912,1.5,6.794.637,8.042-1.437.06-.095.07-.113.032-.135" transform="translate(-8.609 -10.769)" fill="#4e2b11"/>
    <path id="Caminho_9452" data-name="Caminho 9452" d="M55.6,51.449a5.356,5.356,0,0,0-3.037-5.855c-3.96-1.489-2.979-2.512-4.02-4.608-2.124-4.273-3.486-5.246-7.4-6.877-3.794-1.863-4.316-.111-3.6,1.279,1.092,1.255-2.092,1.843-2.087,1.939.351,1.281-.5,1.733-.437,3.821a3.07,3.07,0,0,0,.971,2.227c1.62,1.373,2.6.89,4.906,2.6,2.806,2.084,1.378,3.87,6.806,6.859,2.915,1.482,6.742.747,7.9-1.38" transform="translate(-8.637 -8.215)" fill="#4e2b11"/>
    <path id="Caminho_9453" data-name="Caminho 9453" d="M47.006,50.718c2.609,1.594,7.209,5.183,8.4-.473.676-2.548-1.837-4.814-3.053-5.266a14.833,14.833,0,0,1-6.458-4.131A4.822,4.822,0,0,1,45,38.283c-.321-3.39-3.458-6.421-7.96-5.827l-.609,1.422a17.147,17.147,0,0,0-1.417,5.976c-.016.356-.018.715,0,1.068a3.07,3.07,0,0,0,.971,2.227c1.62,1.373,2.6.89,4.905,2.6a7.8,7.8,0,0,1,2.065,2.476c1.156-1.415,2.343,1.923,4.053,2.5" transform="translate(-8.635 -7.988)" fill="#633c1a"/>
    <path id="Caminho_9454" data-name="Caminho 9454" d="M57.219,53.867c-.209,3.287-5.8,1.767-7.592-.389-1.446-1.479-2.915-1.786-4.071-.371A9.923,9.923,0,0,0,50.3,57.491c2.915,1.481,6.948.847,7.9-1.381.385-.9-.944-1.447-.98-2.243" transform="translate(-11.239 -12.876)" fill="#4e2b11"/>
    <path id="Caminho_9455" data-name="Caminho 9455" d="M57.507,53.653c.969-.119,1.809-.765,1.667-1.2a5.028,5.028,0,0,0-2.232-4.233A11.054,11.054,0,0,1,52.07,43.5c-.489.561-2.826,1.33-2.742,2.329C49.106,48.64,54.4,54,57.507,53.653" transform="translate(-12.168 -10.732)" fill="#4e2b11"/>
    <path id="Caminho_9456" data-name="Caminho 9456" d="M35.392,38.443c.032.085.052.139.056.153.331,1.278-.538,1.348-.437,3.821a3.073,3.073,0,0,0,.971,2.227c1.62,1.373,2.6.89,4.906,2.6.179.14.342.28.493.419-3.879-3.39-1.156-7.192-5.989-9.215" transform="translate(-8.635 -9.484)" fill="#4e2b11"/>
    <path id="Caminho_9457" data-name="Caminho 9457" d="M49.748,44.926a3.454,3.454,0,0,0,2.77-.475c-.623.388-2.168,3.281-1.576,2.833.929-.7,2.276-.777,2.771-1.1a22.16,22.16,0,0,1-1.573,2.484,15.155,15.155,0,0,1,3.169-1.108s-1.316,1.777-1.276,2.679a11.234,11.234,0,0,1,2.856-1.425c-.236.92-.522.908-1.034,2.661-.017.056-.053.02,0,0a11.367,11.367,0,0,0,2.568-1.234" transform="translate(-12.273 -10.966)" fill="none" stroke="#040506" stroke-linecap="round" stroke-linejoin="round" stroke-width="1"/>
    <path id="Caminho_9458" data-name="Caminho 9458" d="M43.6,26.784c2.348-4.573,2.793-19.612,3.355-25.2q-6.241-.067-12.432-.092c.031,1.021.062,2.191.085,3.393.042,2.181.059,4.463.022,6.129-.047,2.164-.13,4.234-.209,5.974-.07,1.57-.109,3.211-.13,4.2-.011.524-.016.863-.017.9a60.785,60.785,0,0,1-1.911,9.373c4.73,2.589,9.212-.02,11.237-4.677" transform="translate(-7.983 -0.368)" fill="#091e2d"/>
    <path id="Caminho_9459" data-name="Caminho 9459" d="M46.861,9.708c.27-2.991.57-5.936.8-8.124q-6.241-.068-12.432-.093c.07,2.286.135,5.324.127,7.773q5.731.2,11.509.443" transform="translate(-8.69 -0.368)" fill="#1c2739"/>
    <path id="Caminho_9460" data-name="Caminho 9460" d="M47.658,1.21c0-.235.005-.469.008-.7a.441.441,0,0,0-.409-.472Q41.465,0,35.715,0a.468.468,0,0,0-.442.447q-.023.334-.047.67,6.192.025,12.432.092" transform="translate(-8.69 0)" fill="#091e2d"/>
    <path id="Caminho_9461" data-name="Caminho 9461" d="M40.266,8.45q-.318,5.956-.759,11.876a2.348,2.348,0,0,1-2.576,2.136L34.918,22.3c.021-.985.061-2.626.131-4.2.078-1.739.161-3.809.208-5.974.037-1.666.02-3.947-.022-6.129l2.976.056a2.188,2.188,0,0,1,2.055,2.4" transform="translate(-8.614 -1.479)" fill="#1c2739"/>
    <path id="Caminho_9462" data-name="Caminho 9462" d="M38.924,21.91a1.393,1.393,0,0,1-1.5,1.272,1.336,1.336,0,0,1-1.254-1.459q.055-.573.109-1.147a1.422,1.422,0,0,1,1.481-1.281,1.344,1.344,0,0,1,1.253,1.456q-.044.58-.09,1.159" transform="translate(-8.922 -4.759)" fill="#091e2d"/>
    <path id="Caminho_9463" data-name="Caminho 9463" d="M48.019,10.434q-3.042-.112-6.071-.214.026-.486.053-.972,3.014.089,6.039.19-.01.5-.021,1" transform="translate(-10.349 -2.281)" fill="#091e2d"/>
    <path id="Caminho_9464" data-name="Caminho 9464" d="M48.094,7.843q-3.011-.088-6.011-.166.026-.486.05-.973,2.984.067,5.98.143-.009.5-.02,1" transform="translate(-10.382 -1.653)" fill="#091e2d"/>
  </g>
</svg>
