<svg xmlns="http://www.w3.org/2000/svg" xmlns:xlink="http://www.w3.org/1999/xlink" width="42.068" height="49.602" viewBox="0 0 42.068 49.602">
  <defs>
    <clipPath id="clip-path">
      <rect id="Ret창ngulo_5554" data-name="Ret창ngulo 5554" width="42.068" height="45.294" transform="translate(0 4.308)" fill="none"/>
    </clipPath>
    <clipPath id="clip-path-2">
      <rect id="Ret창ngulo_5555" data-name="Ret창ngulo 5555" width="42.068" height="49.602" fill="none"/>
    </clipPath>
  </defs>
  <g id="Grupo_9457" data-name="Grupo 9457" transform="translate(0 0)">
    <g id="Grupo_9454" data-name="Grupo 9454" transform="translate(0 0)">
      <g id="Grupo_9453" data-name="Grupo 9453" clip-path="url(#clip-path)">
        <path id="Caminho_19399" data-name="Caminho 19399" d="M22.048,4.845a3.812,3.812,0,1,0-7.569.61l.68,7.9-.089.11,1.545,24.69a.721.721,0,0,0,.694.689l5.161.093a.725.725,0,0,0,.721-.764Z" transform="translate(-5.328 -0.369)" fill="#004a8d"/>
        <path id="Caminho_19400" data-name="Caminho 19400" d="M22.114,39.2H22.09l-5.161-.093a1.361,1.361,0,0,1-1.313-1.28L14.071,13.14a.64.64,0,0,1,.069-.33l-.659-7.669a4.666,4.666,0,0,1,1.16-3.683A4.314,4.314,0,0,1,17.959,0,4.5,4.5,0,0,1,22.31,4.457l1.143,33.33a1.389,1.389,0,0,1-.394,1.018,1.315,1.315,0,0,1-.944.4M15.345,13.289l1.531,24.461a.094.094,0,0,0,.076.1l5.161.093c.059-.034.08-.063.078-.111L21.048,4.5V4.493a3.24,3.24,0,0,0-3.112-3.229A3.043,3.043,0,0,0,15.579,2.3a3.414,3.414,0,0,0-.842,2.706l.682,7.926a.628.628,0,0,1-.073.353" transform="translate(-4.959 0)" fill="#004a8d"/>
        <path id="Caminho_19403" data-name="Caminho 19403" d="M39.488,4.845a3.812,3.812,0,1,1,7.569.61l-.68,7.9.089.11-1.545,24.69a.721.721,0,0,1-.694.689l-5.161.093a.725.725,0,0,1-.721-.764Z" transform="translate(-14.14 -0.369)" fill="#004a8d"/>
        <path id="Caminho_19404" data-name="Caminho 19404" d="M37.739,38.8a1.39,1.39,0,0,1-.395-1.018l1.143-33.33A4.5,4.5,0,0,1,42.839,0a4.313,4.313,0,0,1,3.318,1.456,4.665,4.665,0,0,1,1.16,3.683l-.66,7.669a.627.627,0,0,1,.069.33L45.182,37.83a1.361,1.361,0,0,1-1.313,1.28l-5.161.093h-.025a1.311,1.311,0,0,1-.944-.4m7.64-25.869.682-7.926A3.414,3.414,0,0,0,45.219,2.3a3.043,3.043,0,0,0-2.358-1.04A3.24,3.24,0,0,0,39.75,4.493V4.5L38.607,37.83c0,.048.019.077.078.11l5.16-.093a.093.093,0,0,0,.076-.1l1.531-24.461a.629.629,0,0,1-.073-.353" transform="translate(-13.771 0)" fill="#004a8d"/>
        <path id="Caminho_19405" data-name="Caminho 19405" d="M47.435,4.565A3.069,3.069,0,1,1,43.934,2a3.069,3.069,0,0,1,3.5,2.567" transform="translate(-15.242 -0.723)" fill="#004a8d"/>
        <path id="Caminho_19406" data-name="Caminho 19406" d="M41.844,7.647a3.7,3.7,0,1,1,2.751.672,3.717,3.717,0,0,1-.571.044,3.676,3.676,0,0,1-2.18-.716M45.474,2.7a2.438,2.438,0,1,0,.968,1.6,2.425,2.425,0,0,0-.968-1.6" transform="translate(-14.873 -0.354)" fill="#004a8d"/>
      </g>
    </g>
    <g id="Grupo_9456" data-name="Grupo 9456" transform="translate(0 0)">
      <g id="Grupo_9455" data-name="Grupo 9455" clip-path="url(#clip-path-2)">
        <path id="Caminho_19407" data-name="Caminho 19407" d="M18.661,63.7l-.425-2.029c-.027-.127-.066-.237-.1-.352-.013.014-.021.03-.035.044-.033.033-.071.06-.107.09a1.372,1.372,0,0,1-.182.128l-.016.009a1.284,1.284,0,0,1-.181.086c-.023.009-.047.015-.071.022a1.16,1.16,0,0,1-.146.04,1.308,1.308,0,0,1-.239.023h-.025l-3.19-.057-1.972-.035a1.327,1.327,0,0,1-1-.5c-1.216-.037-2.343.744-3.466,1.345a19.636,19.636,0,0,0-4.246,3.286A15.022,15.022,0,0,0,.132,70.021a1.385,1.385,0,0,0-.108.873,1.172,1.172,0,0,0,.848,1c1.812.429,5.278.622,9.787-1.9a14.31,14.31,0,0,0,2.926-2.253c.973-.047,1.026.311,1.572-.025l3.082-2.26c.509-.408.6-.94.422-1.764" transform="translate(0 -22.555)" fill="#161615"/>
        <path id="Caminho_19408" data-name="Caminho 19408" d="M11.5,65.041a.317.317,0,0,1-.124-.025l-2.7-1.148a.315.315,0,0,1,.247-.581l1.614.687-.9-1.189a.316.316,0,0,1,.373-.482l1.634.679-.79-.893a.316.316,0,0,1,.359-.5l3.162,1.331a.316.316,0,0,1-.245.582l-1.885-.793.78.882a.316.316,0,0,1-.357.5l-1.827-.759.908,1.2a.315.315,0,0,1-.252.506" transform="translate(-3.127 -22.703)" fill="#161615"/>
        <path id="Caminho_19409" data-name="Caminho 19409" d="M16.963,62.409a1.239,1.239,0,0,1-.929-.473,3.918,3.918,0,0,1-.513-.953l-.055-.125-.032.009a.294.294,0,0,1-.039.009c-.081.016-.819.109-1.647-.936-.586-.739-.181-1.124-.094-1.194.4-.323,1.14-.1,1.609.479a4.934,4.934,0,0,1,.588.958h0a2.26,2.26,0,0,1,1.561.611A1.038,1.038,0,0,1,17.8,61.81a.819.819,0,0,1-.624.575.968.968,0,0,1-.217.024m-.817-1.571a3.054,3.054,0,0,0,.368.688.57.57,0,0,0,.526.243.192.192,0,0,0,.153-.123c.021-.077-.023-.219-.206-.389a1.633,1.633,0,0,0-.841-.419m-2.091-1.6a1.357,1.357,0,0,0,.187.311,1.722,1.722,0,0,0,.93.692,3.924,3.924,0,0,0-.4-.619.855.855,0,0,0-.716-.384" transform="translate(-4.955 -21.609)" fill="#161615"/>
        <path id="Caminho_19410" data-name="Caminho 19410" d="M55.56,69.982a15.017,15.017,0,0,0-3.122-4.227,21.676,21.676,0,0,0-4.362-3.539c-1.123-.6-2.6-1.4-3.35-1.091a1.327,1.327,0,0,1-1,.5l-1.972.036-3.189.057h-.025a1.315,1.315,0,0,1-.24-.024,1.264,1.264,0,0,1-.145-.04c-.024-.008-.049-.013-.072-.022a1.4,1.4,0,0,1-.181-.086l-.016-.009a1.414,1.414,0,0,1-.182-.128,1.3,1.3,0,0,1-.107-.09c-.013-.013-.022-.03-.035-.044-.036.115-.074.225-.1.352l-.426,2.029c-.175.824-.088,1.356.422,1.764l3.082,2.26c.545.336.6-.022,1.572.025a14.269,14.269,0,0,0,2.926,2.253c4.51,2.522,7.976,2.329,9.787,1.9a1.172,1.172,0,0,0,.848-1,1.385,1.385,0,0,0-.108-.873" transform="translate(-13.625 -22.516)" fill="#161615"/>
        <path id="Caminho_19411" data-name="Caminho 19411" d="M51.591,65.041a.317.317,0,0,0,.124-.025l2.7-1.148a.315.315,0,0,0-.247-.581l-1.614.687.9-1.189a.316.316,0,0,0-.373-.482l-1.634.679.79-.893a.316.316,0,0,0-.359-.5l-3.162,1.331a.316.316,0,1,0,.245.582l1.885-.793-.78.882a.316.316,0,0,0,.357.5l1.827-.759-.908,1.2a.315.315,0,0,0,.252.506" transform="translate(-17.892 -22.703)" fill="#161615"/>
        <path id="Caminho_19412" data-name="Caminho 19412" d="M46.9,62.386a.82.82,0,0,1-.625-.575,1.039,1.039,0,0,1,.388-1.016,2.259,2.259,0,0,1,1.561-.61h0a4.916,4.916,0,0,1,.588-.958c.469-.582,1.206-.8,1.609-.48.086.07.492.455-.094,1.194-.828,1.045-1.565.952-1.647.935l-.039-.009-.032-.009-.054.124a3.911,3.911,0,0,1-.513.953,1.242,1.242,0,0,1-.93.473,1,1,0,0,1-.216-.024m.191-1.127c-.183.169-.227.312-.206.389a.189.189,0,0,0,.153.122.568.568,0,0,0,.526-.242,3.041,3.041,0,0,0,.369-.688,1.637,1.637,0,0,0-.842.419m2.217-1.636a3.948,3.948,0,0,0-.4.619,1.719,1.719,0,0,0,.929-.692,1.38,1.38,0,0,0,.188-.311.855.855,0,0,0-.716.384" transform="translate(-17.054 -21.609)" fill="#161615"/>
      </g>
    </g>
  </g>
</svg>
