<svg id="Grupo_5748" data-name="Grupo 5748" xmlns="http://www.w3.org/2000/svg" xmlns:xlink="http://www.w3.org/1999/xlink" width="48.333" height="37.253" viewBox="0 0 48.333 37.253">
  <defs>
    <clipPath id="clip-path">
      <rect id="Retângulo_3889" data-name="Retângulo 3889" width="48.333" height="37.253" fill="none"/>
    </clipPath>
  </defs>
  <g id="Grupo_5747" data-name="Grupo 5747" transform="translate(0 0)" clip-path="url(#clip-path)">
    <path id="Caminho_11603" data-name="Caminho 11603" d="M.158,40.394C.1,42.357,1.973,44.389,4.779,44.241c5.75-.536,5.855-2.536,9.255-3.94.606-.282,1.158-.576,1.656-.817q-.062-.876-.123-1.753c0-.168.782-.358.95-.443q1.731-.833,3.446-1.846c.166-.1.308-.05.317.11l.007.114.023-.014c.606-.367,1.237-1.415,1.516-1.308-.007-.2-.012-.379-.013-.387.133-.074.148,1.168.124,1.493v0a12.659,12.659,0,0,1-.173,1.655,3.862,3.862,0,0,1-1.174,2.178c-.023-.076-.11-.087-.209-.023l-.019.013a.4.4,0,0,0-.183.311h0q-.4.251-.8.492c-.041-.065-.136-.072-.243-.008l-.3.178a.535.535,0,0,0-.23.288q-.39.226-.78.442l-.179.1c-.041-.068-.135-.082-.242-.024l-.3.163a.511.511,0,0,0-.233.279q-.35.184-.7.361c-.175.087-.319.02-.321-.151q-.056-.769-.111-1.543a8.625,8.625,0,0,0-1.7.615c-2.261,1.027-2.254,1.6-4.039,3.234a5.139,5.139,0,0,1-1.571.86.181.181,0,0,0-.226-.095l-.3.08a.386.386,0,0,0-.258.273,13.215,13.215,0,0,1-1.449.322.189.189,0,0,0-.232-.145c-.1.02-.2.041-.3.06a.353.353,0,0,0-.234.191c-.249.028-.5.047-.737.062q-.207.012-.407.009a.2.2,0,0,0-.171-.179l-.284-.038a.3.3,0,0,0-.278.154,4.607,4.607,0,0,1-1.25-.384.261.261,0,0,0-.105-.325l-.253-.125a.242.242,0,0,0-.284.074A3.766,3.766,0,0,1,.014,41.465a9.759,9.759,0,0,1,.145-1.071" transform="translate(0 -8.377)" fill="#131a24"/>
    <path id="Caminho_11604" data-name="Caminho 11604" d="M.27,40.086c-.059,1.963,1.818,3.926,4.616,3.785,5.736-.524,5.841-2.581,9.231-3.972,2.921-1.407,3.747-.826,6.177-2.715A4.457,4.457,0,0,0,21.857,34c0-.021,0-.041,0-.062.141-.078.118.318.087.539a5.291,5.291,0,0,1-1.721,3.2c-2.441,1.9-3.171,1.273-6.1,2.7-3.4,1.411-3.509,3.468-9.267,4.02A4.135,4.135,0,0,1,.223,40.2c.008-.094.011-.112.047-.111" transform="translate(-0.051 -8.37)" fill="#f78c0f"/>
    <path id="Caminho_11605" data-name="Caminho 11605" d="M.279,31.7c.405-3.185,1.912-3.88,3.533-3.733,3.413.252,4.787-.7,5.936-2.546,1.285-2.111.6-15.55.418-22.495a26.129,26.129,0,0,0,10.59-1.653c-.017,2.794-.071,6.808-.05,9.36.021,2.133.055,4.178.08,5.9.037,2.383-.035,5.007-.038,5.131-.043,1.644,1,1.646,1.121,4.276a4.456,4.456,0,0,1-1.563,3.183c-2.43,1.889-3.256,1.308-6.177,2.715-3.389,1.391-3.5,3.449-9.231,3.973C1.952,35.964.008,33.756.279,31.7" transform="translate(-0.063 -0.314)" fill="#fea500"/>
    <path id="Caminho_11606" data-name="Caminho 11606" d="M4.9,35.815c5.736-.524,5.842-2.582,9.232-3.973,2.921-1.407,3.746-.826,6.176-2.715a4.453,4.453,0,0,0,1.563-3.183c-.135-3.11-1.162-2.635-1.121-4.276,0-.042.011-.388.021-.92.02-1,.041-2.655.018-4.212-.025-1.727-.06-3.771-.081-5.9-.016-1.643.006-3.9.023-6.041.01-1.18.02-2.325.026-3.32a26.129,26.129,0,0,1-10.59,1.653c.185,6.945.867,20.384-.418,22.5-1.149,1.843-2.523,2.8-5.935,2.545C2.191,27.818.684,28.513.279,31.7c-.27,2.058,1.673,4.267,4.618,4.117" transform="translate(-0.063 -0.314)" fill="#ffbc00"/>
    <path id="Caminho_11607" data-name="Caminho 11607" d="M13.677,11.621c-.078-3.187-.185-6.342-.264-8.7A26.129,26.129,0,0,0,24,1.271c-.014,2.225-.049,5.214-.055,7.635a30.234,30.234,0,0,1-10.27,2.716" transform="translate(-3.309 -0.314)" fill="#1c2739"/>
    <path id="Caminho_11608" data-name="Caminho 11608" d="M13.413,2.6c.01-.252.02-.5.03-.754.011-.278.177-.491.37-.479A25.619,25.619,0,0,0,23.573.016c.189-.064.358.07.377.3L24,.951A26.139,26.139,0,0,1,13.413,2.6" transform="translate(-3.309 0)" fill="#ffbf00"/>
    <path id="Caminho_11609" data-name="Caminho 11609" d="M21.581,9.486q.142,6.011.285,12.022a1.452,1.452,0,0,0,2.294,1.33q.938-.473,1.87-1c.02-1,.041-2.656.017-4.212-.024-1.726-.059-3.771-.08-5.9-.016-1.643.005-3.9.023-6.041q-1.275.524-2.57.923a2.976,2.976,0,0,0-1.839,2.886" transform="translate(-5.324 -1.401)" fill="#1c2739"/>
    <path id="Caminho_11610" data-name="Caminho 11610" d="M23.134,22.964a.86.86,0,0,0,1.333.794,2.254,2.254,0,0,0,1.2-1.971q-.034-.56-.067-1.12a.863.863,0,0,0-1.313-.763A2.132,2.132,0,0,0,23.1,21.8l.038,1.165" transform="translate(-5.698 -4.884)" fill="#ffbf00"/>
    <path id="Caminho_11611" data-name="Caminho 11611" d="M14.438,12.674a28.555,28.555,0,0,0,5.4-.964q-.011-.49-.023-.981a28.11,28.11,0,0,1-5.349.886l-.032,1.059" transform="translate(-3.562 -2.647)" fill="#ffbf00"/>
    <path id="Caminho_11612" data-name="Caminho 11612" d="M14.521,9.954a27.622,27.622,0,0,0,5.3-.811q-.011-.49-.023-.982a27.146,27.146,0,0,1-5.241.733l-.032,1.059" transform="translate(-3.582 -2.014)" fill="#ffbf00"/>
    <path id="Caminho_11613" data-name="Caminho 11613" d="M56.815,40.394c.059,1.963-1.815,3.995-4.621,3.847C46.445,43.7,46.34,41.7,42.94,40.3c-.606-.282-1.158-.576-1.656-.817q.062-.876.123-1.753c0-.168-.782-.358-.95-.443q-1.731-.833-3.446-1.846c-.166-.1-.308-.05-.317.11l-.007.114-.023-.014c-.606-.367-1.237-1.415-1.516-1.308.007-.2.012-.379.013-.387-.133-.074-.148,1.168-.124,1.493v0a12.66,12.66,0,0,0,.173,1.655,3.862,3.862,0,0,0,1.174,2.178c.023-.076.11-.087.209-.023l.019.013a.4.4,0,0,1,.183.311h0q.4.251.8.492c.041-.065.136-.072.243-.008l.3.178a.535.535,0,0,1,.23.288q.39.226.78.442l.179.1c.041-.068.135-.082.242-.024l.3.163a.511.511,0,0,1,.233.279q.35.184.7.361c.175.087.319.02.321-.151q.056-.769.111-1.543a8.625,8.625,0,0,1,1.7.615c2.261,1.027,2.254,1.6,4.039,3.234a5.14,5.14,0,0,0,1.571.86.181.181,0,0,1,.226-.095l.3.08a.386.386,0,0,1,.258.273,13.215,13.215,0,0,0,1.449.322.189.189,0,0,1,.232-.145c.1.02.2.041.3.06a.353.353,0,0,1,.234.191c.249.028.5.047.737.062q.207.012.407.009a.2.2,0,0,1,.171-.179l.284-.038a.3.3,0,0,1,.278.154,4.607,4.607,0,0,0,1.25-.384.261.261,0,0,1,.105-.325l.253-.125a.242.242,0,0,1,.284.074,3.766,3.766,0,0,0,1.638-3.341,9.758,9.758,0,0,0-.145-1.071" transform="translate(-8.641 -8.377)" fill="#131a24"/>
    <path id="Caminho_11614" data-name="Caminho 11614" d="M56.766,40.086c.059,1.963-1.818,3.926-4.616,3.785-5.736-.524-5.841-2.581-9.231-3.972-2.921-1.407-3.747-.826-6.177-2.715A4.457,4.457,0,0,1,35.179,34c0-.021,0-.041,0-.062-.141-.078-.118.318-.087.539a5.291,5.291,0,0,0,1.721,3.2c2.441,1.9,3.171,1.273,6.1,2.7,3.4,1.411,3.509,3.468,9.267,4.02a4.135,4.135,0,0,0,4.627-4.2c-.008-.094-.011-.112-.047-.111" transform="translate(-8.652 -8.37)" fill="#f78c0f"/>
    <path id="Caminho_11615" data-name="Caminho 11615" d="M56.8,31.7c-.405-3.185-1.912-3.88-3.533-3.733-3.413.252-4.787-.7-5.936-2.546-1.285-2.111-.6-15.55-.418-22.495a26.129,26.129,0,0,1-10.59-1.653c.017,2.794.071,6.808.05,9.36-.021,2.133-.055,4.178-.08,5.9-.037,2.383.035,5.007.038,5.131.043,1.644-1,1.646-1.121,4.276a4.456,4.456,0,0,0,1.563,3.183c2.43,1.889,3.256,1.308,6.177,2.715,3.389,1.391,3.5,3.449,9.231,3.973,2.945.149,4.889-2.059,4.618-4.117" transform="translate(-8.687 -0.314)" fill="#fea500"/>
    <path id="Caminho_11616" data-name="Caminho 11616" d="M52.185,35.815c-5.736-.524-5.842-2.582-9.232-3.973-2.921-1.407-3.746-.826-6.176-2.715a4.452,4.452,0,0,1-1.562-3.183c.134-3.11,1.162-2.635,1.12-4.276,0-.042-.011-.388-.021-.92-.02-1-.041-2.655-.018-4.212.025-1.727.06-3.771.081-5.9.016-1.643-.005-3.9-.023-6.041-.01-1.18-.019-2.325-.026-3.32a26.131,26.131,0,0,0,10.59,1.653c-.185,6.945-.867,20.384.418,22.5,1.149,1.843,2.523,2.8,5.935,2.545,1.622-.148,3.128.548,3.534,3.733.27,2.058-1.673,4.267-4.618,4.117" transform="translate(-8.687 -0.314)" fill="#ffbc00"/>
    <path id="Caminho_11617" data-name="Caminho 11617" d="M47.016,11.621c.078-3.187.185-6.342.264-8.7a26.129,26.129,0,0,1-10.59-1.653c.014,2.225.049,5.214.055,7.635a30.234,30.234,0,0,0,10.27,2.716" transform="translate(-9.052 -0.314)" fill="#1c2739"/>
    <path id="Caminho_11618" data-name="Caminho 11618" d="M47.281,2.6c-.01-.252-.02-.5-.03-.754-.011-.278-.177-.491-.37-.479A25.619,25.619,0,0,1,37.121.016c-.189-.064-.358.07-.377.3l-.052.633A26.139,26.139,0,0,0,47.281,2.6" transform="translate(-9.052 0)" fill="#ffbf00"/>
    <path id="Caminho_11619" data-name="Caminho 11619" d="M41.114,9.486q-.142,6.011-.285,12.022a1.452,1.452,0,0,1-2.294,1.33q-.938-.473-1.87-1c-.02-1-.041-2.656-.017-4.212.024-1.726.059-3.771.08-5.9.016-1.643-.005-3.9-.023-6.041q1.275.524,2.57.923a2.976,2.976,0,0,1,1.839,2.886" transform="translate(-9.039 -1.401)" fill="#1c2739"/>
    <path id="Caminho_11620" data-name="Caminho 11620" d="M40.183,22.964a.86.86,0,0,1-1.333.794,2.254,2.254,0,0,1-1.2-1.971q.034-.56.067-1.12a.863.863,0,0,1,1.313-.763A2.132,2.132,0,0,1,40.221,21.8l-.038,1.165" transform="translate(-9.287 -4.884)" fill="#ffbf00"/>
    <path id="Caminho_11621" data-name="Caminho 11621" d="M47.954,12.674a28.555,28.555,0,0,1-5.4-.964q.011-.49.023-.981a28.11,28.11,0,0,0,5.349.886l.032,1.059" transform="translate(-10.497 -2.647)" fill="#ffbf00"/>
    <path id="Caminho_11622" data-name="Caminho 11622" d="M47.907,9.954a27.622,27.622,0,0,1-5.3-.811q.011-.49.023-.982a27.146,27.146,0,0,0,5.241.733l.032,1.059" transform="translate(-10.512 -2.014)" fill="#ffbf00"/>
  </g>
</svg>
